M48
;GenerationSoftware,Autodesk,EAGLE,9.6.2*%
;CreationDate,2021-05-18T12:08:34Z*%
FMAT,2
ICI,OFF
METRIC,TZ,000.000
T2C0.300
T1C0.508
%
G90
M71
T1
X149098Y103886
X7874Y19050
X7874Y21590
X5334Y19050
X5334Y21590
X2794Y19050
X2794Y21590
X24130Y19050
X24130Y21590
X21590Y19050
X21590Y21590
X19050Y19050
X19050Y21590
X40386Y19050
X40386Y21590
X37846Y19050
X37846Y21590
X35306Y19050
X35306Y21590
X56642Y19050
X56642Y21590
X54102Y19050
X54102Y21590
X51562Y19050
X51562Y21590
X72898Y19050
X72898Y21590
X70358Y19050
X70358Y21590
X67818Y19050
X67818Y21590
X89154Y19050
X89154Y21590
X86614Y19050
X86614Y21590
X84074Y19050
X84074Y21590
X105410Y19050
X105410Y21590
X102870Y19050
X102870Y21590
X100330Y19050
X100330Y21590
X121666Y19050
X121666Y21590
X119126Y19050
X119126Y21590
X116586Y19050
X116586Y21590
X137922Y19050
X137922Y21590
X135382Y19050
X135382Y21590
X132842Y19050
X132842Y21590
X154178Y19050
X154178Y21590
X151638Y19050
X151638Y21590
X149098Y19050
X149098Y21590
X7874Y60198
X7874Y62738
X5334Y60198
X5334Y62738
X2794Y60198
X2794Y62738
X24130Y60198
X24130Y62738
X21590Y60198
X21590Y62738
X19050Y60198
X19050Y62738
X40386Y60198
X40386Y62738
X37846Y60198
X37846Y62738
X35306Y60198
X35306Y62738
X56642Y60198
X56642Y62738
X54102Y60198
X54102Y62738
X51562Y60198
X51562Y62738
X72898Y60198
X72898Y62738
X70358Y60198
X70358Y62738
X67818Y60198
X67818Y62738
X89154Y60198
X89154Y62738
X86614Y60198
X86614Y62738
X84074Y60198
X84074Y62738
X105410Y60198
X105410Y62738
X102870Y60198
X102870Y62738
X100330Y60198
X100330Y62738
X121666Y60198
X121666Y62738
X119126Y60198
X119126Y62738
X116586Y60198
X116586Y62738
X137922Y60198
X137922Y62738
X135382Y60198
X135382Y62738
X132842Y60198
X132842Y62738
X154178Y60198
X154178Y62738
X151638Y60198
X151638Y62738
X149098Y60198
X149098Y62738
X7874Y101346
X7874Y103886
X5334Y101346
X5334Y103886
X2794Y101346
X2794Y103886
X24130Y101346
X24130Y103886
X21590Y101346
X21590Y103886
X19050Y101346
X19050Y103886
X40386Y101346
X40386Y103886
X37846Y101346
X37846Y103886
X35306Y101346
X35306Y103886
X56642Y101346
X56642Y103886
X54102Y101346
X54102Y103886
X51562Y101346
X51562Y103886
X72898Y101346
X72898Y103886
X70358Y101346
X70358Y103886
X67818Y101346
X67818Y103886
X89154Y101346
X89154Y103886
X86614Y101346
X86614Y103886
X84074Y101346
X84074Y103886
X105410Y101346
X105410Y103886
X102870Y101346
X102870Y103886
X100330Y101346
X100330Y103886
X121666Y101346
X121666Y103886
X119126Y101346
X119126Y103886
X116586Y101346
X116586Y103886
X137922Y101346
X137922Y103886
X135382Y101346
X135382Y103886
X132842Y101346
X132842Y103886
X154178Y101346
X154178Y103886
X151638Y101346
X151638Y103886
X149098Y101346
T2
X33767Y4255
X33703Y2731
X41085Y35370
X42609Y40069
X33147Y39116
X41958Y2223
X38037Y3746
X34719Y17590
X34561Y26860
X35846Y32099
X37846Y36068
X33449Y8636
X33449Y11303
X35862Y14795
X33449Y13843
X39863Y14922
X38847Y10160
X38847Y11430
X39863Y13017
X38164Y29781
X38847Y8763
X40688Y16637
X36322Y6350
X39497Y6350
X39434Y21527
X39434Y19622
X40096Y1587
X39624Y2096
X39116Y1587
X38608Y2096
X38116Y1587
X37656Y2540
X37116Y1587
X36576Y2159
X36116Y1587
X35306Y28208
X34410Y20356
X37624Y20352
X35560Y2159
X35179Y25671
X34021Y19749
X41090Y1582
X34354Y2159
X36031Y37846
X39598Y37846
X39878Y29908
X39878Y30607
X37402Y11430
X36767Y11430
X33719Y1651
X33242Y2127
X42037Y1397
X40323Y15494
X40577Y25844
X39815Y32321
X39815Y33020
X40323Y11938
X40323Y11303
X35941Y16192
X34781Y28829
X35091Y20356
X35941Y15511
X40005Y7374
X58102Y4890
X56896Y2159
X51371Y1587
X52102Y33433
X52033Y38545
X56171Y38545
X49705Y23495
X54102Y24060
X49705Y28829
X50038Y35560
X49705Y29845
X55816Y29019
X57467Y28638
X57467Y26479
X51991Y24384
X56451Y24447
X49705Y19304
X49705Y18225
X50023Y4255
X49959Y2731
X57340Y35370
X58864Y40069
X49403Y39116
X58214Y2223
X54292Y3746
X50975Y17590
X50817Y26860
X52102Y32099
X54102Y36068
X49705Y8636
X49705Y11303
X52118Y14795
X49705Y13843
X56119Y14922
X55103Y10160
X55103Y11430
X56119Y13017
X54419Y29781
X55103Y8763
X56944Y16637
X52578Y6350
X55753Y6350
X55689Y21527
X55689Y19622
X56352Y1587
X55880Y2096
X55372Y1587
X54864Y2096
X54372Y1587
X53911Y2540
X53372Y1587
X52832Y2159
X52372Y1587
X51562Y28208
X50666Y20356
X53880Y20352
X51816Y2159
X51435Y25671
X50277Y19749
X57346Y1582
X50609Y2159
X52287Y37846
X55853Y37846
X56134Y29908
X56134Y30607
X53657Y11430
X53022Y11430
X49974Y1651
X49498Y2127
X58293Y1397
X56578Y15494
X56832Y25844
X56070Y32321
X56070Y33020
X56578Y11938
X56578Y11303
X52197Y16192
X51037Y28829
X51347Y20356
X52197Y15511
X56261Y7374
X74359Y4890
X73152Y2159
X67628Y1587
X68358Y33433
X68289Y38545
X72427Y38545
X65961Y23495
X70358Y24060
X65961Y28829
X66294Y35560
X65961Y29845
X72073Y29019
X73724Y28638
X73724Y26479
X68247Y24384
X72708Y24447
X65961Y19304
X65961Y18225
X66279Y4255
X66215Y2731
X73597Y35370
X75121Y40069
X65659Y39116
X74470Y2223
X70549Y3746
X67231Y17590
X67073Y26860
X68358Y32099
X70358Y36068
X65961Y8636
X65961Y11303
X68374Y14795
X65961Y13843
X72375Y14922
X71359Y10160
X71359Y11430
X72375Y13017
X70676Y29781
X71359Y8763
X73200Y16637
X68834Y6350
X72009Y6350
X71946Y21527
X71946Y19622
X72608Y1587
X72136Y2096
X71628Y1587
X71120Y2096
X70628Y1587
X70168Y2540
X69628Y1587
X69088Y2159
X68628Y1587
X67818Y28208
X66922Y20356
X70136Y20352
X68072Y2159
X67691Y25671
X66533Y19749
X73602Y1582
X66866Y2159
X68543Y37846
X72110Y37846
X72390Y29908
X72390Y30607
X69914Y11430
X69279Y11430
X66231Y1651
X65754Y2127
X74549Y1397
X72835Y15494
X73089Y25844
X72327Y32321
X72327Y33020
X72835Y11938
X72835Y11303
X68453Y16192
X67293Y28829
X67603Y20356
X68453Y15511
X72517Y7374
X90614Y4890
X89408Y2159
X83884Y1587
X84614Y33433
X84545Y38545
X88683Y38545
X82217Y23495
X86614Y24060
X82217Y28829
X82550Y35560
X82217Y29845
X88328Y29019
X89979Y28638
X89979Y26479
X84503Y24384
X88963Y24447
X82217Y19304
X82217Y18225
X82535Y4255
X82471Y2731
X89852Y35370
X91376Y40069
X81915Y39116
X90726Y2223
X86805Y3746
X83487Y17590
X83329Y26860
X84614Y32099
X86614Y36068
X82217Y8636
X82217Y11303
X84630Y14795
X82217Y13843
X88631Y14922
X87615Y10160
X87615Y11430
X88631Y13017
X86932Y29781
X87615Y8763
X89456Y16637
X85090Y6350
X88265Y6350
X88201Y21527
X88201Y19622
X88864Y1587
X88392Y2096
X87884Y1587
X87376Y2096
X86884Y1587
X86424Y2540
X85884Y1587
X85344Y2159
X84884Y1587
X84074Y28208
X83178Y20356
X86392Y20352
X84328Y2159
X83947Y25671
X82789Y19749
X89858Y1582
X83122Y2159
X84799Y37846
X88365Y37846
X88646Y29908
X88646Y30607
X86170Y11430
X85535Y11430
X82487Y1651
X82010Y2127
X90805Y1397
X89090Y15494
X89344Y25844
X88582Y32321
X88582Y33020
X89090Y11938
X89090Y11303
X84709Y16192
X83549Y28829
X83859Y20356
X84709Y15511
X88773Y7374
X106870Y4890
X105664Y2159
X100139Y1587
X100870Y33433
X100801Y38545
X104939Y38545
X98473Y23495
X102870Y24060
X98473Y28829
X98806Y35560
X98473Y29845
X104584Y29019
X106235Y28638
X106235Y26479
X100759Y24384
X105219Y24447
X98473Y19304
X98473Y18225
X98791Y4255
X98727Y2731
X106108Y35370
X107632Y40069
X98171Y39116
X106982Y2223
X103060Y3746
X99743Y17590
X99585Y26860
X100870Y32099
X102870Y36068
X98473Y8636
X98473Y11303
X100886Y14795
X98473Y13843
X104887Y14922
X103871Y10160
X103871Y11430
X104887Y13017
X103187Y29781
X103871Y8763
X105712Y16637
X101346Y6350
X104521Y6350
X104457Y21527
X104457Y19622
X105120Y1587
X104648Y2096
X104140Y1587
X103632Y2096
X103140Y1587
X102679Y2540
X102140Y1587
X101600Y2159
X101140Y1587
X100330Y28208
X99434Y20356
X102648Y20352
X100584Y2159
X100203Y25671
X99045Y19749
X106114Y1582
X99377Y2159
X101055Y37846
X104621Y37846
X104902Y29908
X104902Y30607
X102425Y11430
X101790Y11430
X98742Y1651
X98266Y2127
X107061Y1397
X105346Y15494
X105600Y25844
X104838Y32321
X104838Y33020
X105346Y11938
X105346Y11303
X100965Y16192
X99805Y28829
X100115Y20356
X100965Y15511
X105029Y7374
X123126Y4890
X121920Y2159
X116395Y1587
X117126Y33433
X117057Y38545
X121195Y38545
X114729Y23495
X119126Y24060
X114729Y28829
X115062Y35560
X114729Y29845
X120840Y29019
X122491Y28638
X122491Y26479
X117015Y24384
X121475Y24447
X114729Y19304
X114729Y18225
X115047Y4255
X114983Y2731
X122364Y35370
X123888Y40069
X114427Y39116
X123238Y2223
X119316Y3746
X115999Y17590
X115841Y26860
X117126Y32099
X119126Y36068
X114729Y8636
X114729Y11303
X117142Y14795
X114729Y13843
X121143Y14922
X120127Y10160
X120127Y11430
X121143Y13017
X119443Y29781
X120127Y8763
X121968Y16637
X117602Y6350
X120777Y6350
X120713Y21527
X120713Y19622
X121376Y1587
X120904Y2096
X120396Y1587
X119888Y2096
X119396Y1587
X118935Y2540
X118396Y1587
X117856Y2159
X117396Y1587
X116586Y28208
X115690Y20356
X118904Y20352
X116840Y2159
X116459Y25671
X115301Y19749
X122370Y1582
X115633Y2159
X117311Y37846
X120877Y37846
X121158Y29908
X121158Y30607
X118681Y11430
X118046Y11430
X114998Y1651
X114522Y2127
X123317Y1397
X121602Y15494
X121856Y25844
X121094Y32321
X121094Y33020
X121602Y11938
X121602Y11303
X117221Y16192
X116061Y28829
X116371Y20356
X117221Y15511
X121285Y7374
X139383Y4890
X138176Y2159
X132652Y1587
X133382Y33433
X133313Y38545
X137451Y38545
X130985Y23495
X135382Y24060
X130985Y28829
X131318Y35560
X130985Y29845
X137097Y29019
X138748Y28638
X138748Y26479
X133271Y24384
X137732Y24447
X130985Y19304
X130985Y18225
X131303Y4255
X131239Y2731
X138621Y35370
X140145Y40069
X130683Y39116
X139494Y2223
X135573Y3746
X132255Y17590
X132097Y26860
X133382Y32099
X135382Y36068
X130985Y8636
X130985Y11303
X133398Y14795
X130985Y13843
X137399Y14922
X136383Y10160
X136383Y11430
X137399Y13017
X135700Y29781
X136383Y8763
X138224Y16637
X133858Y6350
X137033Y6350
X136970Y21527
X136970Y19622
X137632Y1587
X137160Y2096
X136652Y1587
X136144Y2096
X135652Y1587
X135192Y2540
X134652Y1587
X134112Y2159
X133652Y1587
X132842Y28208
X131946Y20356
X135160Y20352
X133096Y2159
X132715Y25671
X131557Y19749
X138626Y1582
X131890Y2159
X133567Y37846
X137134Y37846
X137414Y29908
X137414Y30607
X134938Y11430
X134303Y11430
X131255Y1651
X130778Y2127
X139573Y1397
X137859Y15494
X138113Y25844
X137351Y32321
X137351Y33020
X137859Y11938
X137859Y11303
X133477Y16192
X132317Y28829
X132627Y20356
X133477Y15511
X137541Y7374
X155639Y4890
X154432Y2159
X148908Y1587
X149638Y33433
X149569Y38545
X153707Y38545
X147241Y23495
X151638Y24060
X147241Y28829
X147574Y35560
X147241Y29845
X153353Y29019
X155004Y28638
X155004Y26479
X149527Y24384
X153988Y24447
X147241Y19304
X147241Y18225
X147559Y4255
X147495Y2731
X154877Y35370
X156401Y40069
X146939Y39116
X155750Y2223
X151829Y3746
X148511Y17590
X148353Y26860
X149638Y32099
X151638Y36068
X147241Y8636
X147241Y11303
X149654Y14795
X147241Y13843
X153655Y14922
X152639Y10160
X152639Y11430
X153655Y13017
X151956Y29781
X152639Y8763
X154480Y16637
X150114Y6350
X153289Y6350
X153226Y21527
X153226Y19622
X153888Y1587
X153416Y2096
X152908Y1587
X152400Y2096
X151908Y1587
X151448Y2540
X150908Y1587
X150368Y2159
X149908Y1587
X149098Y28208
X148202Y20356
X151416Y20352
X149352Y2159
X148971Y25671
X147813Y19749
X154882Y1582
X148146Y2159
X149823Y37846
X153390Y37846
X153670Y29908
X153670Y30607
X151194Y11430
X150559Y11430
X147511Y1651
X147034Y2127
X155829Y1397
X154115Y15494
X154369Y25844
X153607Y32321
X153607Y33020
X154115Y11938
X154115Y11303
X149733Y16192
X148573Y28829
X148883Y20356
X149733Y15511
X153797Y7374
X9335Y46037
X8128Y43307
X2604Y42736
X3334Y74581
X3265Y79693
X7403Y79693
X937Y64643
X5334Y65208
X937Y69977
X1270Y76708
X937Y70993
X7048Y70168
X8700Y69787
X8700Y67628
X3223Y65532
X7683Y65596
X937Y60452
X937Y59372
X1255Y45402
X1191Y43878
X8573Y76518
X10097Y81217
X635Y80264
X9446Y43371
X5524Y44894
X2207Y58737
X2049Y68009
X3334Y73247
X5334Y77216
X937Y49784
X937Y52451
X3350Y55943
X937Y54991
X7351Y56070
X6335Y51308
X6335Y52578
X7351Y54165
X5651Y70930
X6335Y49911
X8176Y57785
X3810Y47498
X6985Y47498
X6921Y62674
X6921Y60769
X7584Y42736
X7112Y43244
X6604Y42736
X6096Y43244
X5604Y42736
X5144Y43688
X4604Y42736
X4064Y43307
X3604Y42736
X2794Y69356
X1898Y61504
X5112Y61500
X3048Y43307
X2667Y66820
X1509Y60896
X8578Y42730
X1841Y43307
X3519Y78994
X7085Y78994
X7366Y71057
X7366Y71755
X4890Y52578
X4255Y52578
X1207Y42799
X730Y43275
X9525Y42545
X7810Y56642
X8064Y66993
X7302Y73470
X7302Y74168
X7810Y53086
X7810Y52451
X3429Y57340
X2269Y69977
X2579Y61504
X3429Y56659
X7493Y48522
X25590Y46037
X24384Y43307
X18860Y42736
X19590Y74581
X19521Y79693
X23659Y79693
X17193Y64643
X21590Y65208
X17193Y69977
X17526Y76708
X17193Y70993
X23304Y70168
X24955Y69787
X24955Y67628
X19479Y65532
X23939Y65596
X17193Y60452
X17193Y59372
X17511Y45402
X17447Y43878
X24828Y76518
X26352Y81217
X16891Y80264
X25702Y43371
X21781Y44894
X18463Y58737
X18305Y68009
X19590Y73247
X21590Y77216
X17193Y49784
X17193Y52451
X19606Y55943
X17193Y54991
X23607Y56070
X22591Y51308
X22591Y52578
X23607Y54165
X21907Y70930
X22591Y49911
X24432Y57785
X20066Y47498
X23241Y47498
X23177Y62674
X23177Y60769
X23840Y42736
X23368Y43244
X22860Y42736
X22352Y43244
X21860Y42736
X21400Y43688
X20860Y42736
X20320Y43307
X19860Y42736
X19050Y69356
X18154Y61504
X21368Y61500
X19304Y43307
X18923Y66820
X17765Y60896
X24834Y42730
X18098Y43307
X19775Y78994
X23341Y78994
X23622Y71057
X23622Y71755
X21146Y52578
X20511Y52578
X17463Y42799
X16986Y43275
X25781Y42545
X24066Y56642
X24320Y66993
X23558Y73470
X23558Y74168
X24066Y53086
X24066Y52451
X19685Y57340
X18525Y69977
X18835Y61504
X19685Y56659
X23749Y48522
X41847Y46037
X40640Y43307
X35116Y42736
X35846Y74581
X35777Y79693
X39915Y79693
X33449Y64643
X37846Y65208
X33449Y69977
X33782Y76708
X33449Y70993
X39561Y70168
X41212Y69787
X41212Y67628
X35735Y65532
X40196Y65596
X33449Y60452
X33449Y59372
X33767Y45402
X33703Y43878
X41085Y76518
X42609Y81217
X33147Y80264
X41958Y43371
X38037Y44894
X34719Y58737
X34561Y68009
X35846Y73247
X37846Y77216
X33449Y49784
X33449Y52451
X35862Y55943
X33449Y54991
X39863Y56070
X38847Y51308
X38847Y52578
X39863Y54165
X38164Y70930
X38847Y49911
X40688Y57785
X36322Y47498
X39497Y47498
X39434Y62674
X39434Y60769
X40096Y42736
X39624Y43244
X39116Y42736
X38608Y43244
X38116Y42736
X37656Y43688
X37116Y42736
X36576Y43307
X36116Y42736
X35306Y69356
X34410Y61504
X37624Y61500
X35560Y43307
X35179Y66820
X34021Y60896
X41090Y42730
X34354Y43307
X36031Y78994
X39598Y78994
X39878Y71057
X39878Y71755
X37402Y52578
X36767Y52578
X33719Y42799
X33242Y43275
X42037Y42545
X40323Y56642
X40577Y66993
X39815Y73470
X39815Y74168
X40323Y53086
X40323Y52451
X35941Y57340
X34781Y69977
X35091Y61504
X35941Y56659
X40005Y48522
X58102Y46037
X56896Y43307
X51371Y42736
X52102Y74581
X52033Y79693
X56171Y79693
X49705Y64643
X54102Y65208
X49705Y69977
X50038Y76708
X49705Y70993
X55816Y70168
X57467Y69787
X57467Y67628
X51991Y65532
X56451Y65596
X49705Y60452
X49705Y59372
X50023Y45402
X49959Y43878
X57340Y76518
X58864Y81217
X49403Y80264
X58214Y43371
X54292Y44894
X50975Y58737
X50817Y68009
X52102Y73247
X54102Y77216
X49705Y49784
X49705Y52451
X52118Y55943
X49705Y54991
X56119Y56070
X55103Y51308
X55103Y52578
X56119Y54165
X54419Y70930
X55103Y49911
X56944Y57785
X52578Y47498
X55753Y47498
X55689Y62674
X55689Y60769
X56352Y42736
X55880Y43244
X55372Y42736
X54864Y43244
X54372Y42736
X53911Y43688
X53372Y42736
X52832Y43307
X52372Y42736
X51562Y69356
X50666Y61504
X53880Y61500
X51816Y43307
X51435Y66820
X50277Y60896
X57346Y42730
X50609Y43307
X52287Y78994
X55853Y78994
X56134Y71057
X56134Y71755
X53657Y52578
X53022Y52578
X49974Y42799
X49498Y43275
X58293Y42545
X56578Y56642
X56832Y66993
X56070Y73470
X56070Y74168
X56578Y53086
X56578Y52451
X52197Y57340
X51037Y69977
X51347Y61504
X52197Y56659
X56261Y48522
X74359Y46037
X73152Y43307
X67628Y42736
X68358Y74581
X68289Y79693
X72427Y79693
X65961Y64643
X70358Y65208
X65961Y69977
X66294Y76708
X65961Y70993
X72073Y70168
X73724Y69787
X73724Y67628
X68247Y65532
X72708Y65596
X65961Y60452
X65961Y59372
X66279Y45402
X66215Y43878
X73597Y76518
X75121Y81217
X65659Y80264
X74470Y43371
X70549Y44894
X67231Y58737
X67073Y68009
X68358Y73247
X70358Y77216
X65961Y49784
X65961Y52451
X68374Y55943
X65961Y54991
X72375Y56070
X71359Y51308
X71359Y52578
X72375Y54165
X70676Y70930
X71359Y49911
X73200Y57785
X68834Y47498
X72009Y47498
X71946Y62674
X71946Y60769
X72608Y42736
X72136Y43244
X71628Y42736
X71120Y43244
X70628Y42736
X70168Y43688
X69628Y42736
X69088Y43307
X68628Y42736
X67818Y69356
X66922Y61504
X70136Y61500
X68072Y43307
X67691Y66820
X66533Y60896
X73602Y42730
X66866Y43307
X68543Y78994
X72110Y78994
X72390Y71057
X72390Y71755
X69914Y52578
X69279Y52578
X66231Y42799
X65754Y43275
X74549Y42545
X72835Y56642
X73089Y66993
X72327Y73470
X72327Y74168
X72835Y53086
X72835Y52451
X68453Y57340
X67293Y69977
X67603Y61504
X68453Y56659
X72517Y48522
X90614Y46037
X89408Y43307
X83884Y42736
X84614Y74581
X84545Y79693
X88683Y79693
X82217Y64643
X86614Y65208
X82217Y69977
X82550Y76708
X82217Y70993
X88328Y70168
X89979Y69787
X89979Y67628
X84503Y65532
X88963Y65596
X82217Y60452
X82217Y59372
X82535Y45402
X82471Y43878
X89852Y76518
X91376Y81217
X81915Y80264
X90726Y43371
X86805Y44894
X83487Y58737
X83329Y68009
X84614Y73247
X86614Y77216
X82217Y49784
X82217Y52451
X84630Y55943
X82217Y54991
X88631Y56070
X87615Y51308
X87615Y52578
X88631Y54165
X86932Y70930
X87615Y49911
X89456Y57785
X85090Y47498
X88265Y47498
X88201Y62674
X88201Y60769
X88864Y42736
X88392Y43244
X87884Y42736
X87376Y43244
X86884Y42736
X86424Y43688
X85884Y42736
X85344Y43307
X84884Y42736
X84074Y69356
X83178Y61504
X86392Y61500
X84328Y43307
X83947Y66820
X82789Y60896
X89858Y42730
X83122Y43307
X84799Y78994
X88365Y78994
X88646Y71057
X88646Y71755
X86170Y52578
X85535Y52578
X82487Y42799
X82010Y43275
X90805Y42545
X89090Y56642
X89344Y66993
X88582Y73470
X88582Y74168
X89090Y53086
X89090Y52451
X84709Y57340
X83549Y69977
X83859Y61504
X84709Y56659
X88773Y48522
X106870Y46037
X105664Y43307
X100139Y42736
X100870Y74581
X100801Y79693
X104939Y79693
X98473Y64643
X102870Y65208
X98473Y69977
X98806Y76708
X98473Y70993
X104584Y70168
X106235Y69787
X106235Y67628
X100759Y65532
X105219Y65596
X98473Y60452
X98473Y59372
X98791Y45402
X98727Y43878
X106108Y76518
X107632Y81217
X98171Y80264
X106982Y43371
X103060Y44894
X99743Y58737
X99585Y68009
X100870Y73247
X102870Y77216
X98473Y49784
X98473Y52451
X100886Y55943
X98473Y54991
X104887Y56070
X103871Y51308
X103871Y52578
X104887Y54165
X103187Y70930
X103871Y49911
X105712Y57785
X101346Y47498
X104521Y47498
X104457Y62674
X104457Y60769
X105120Y42736
X104648Y43244
X104140Y42736
X103632Y43244
X103140Y42736
X102679Y43688
X102140Y42736
X101600Y43307
X101140Y42736
X100330Y69356
X99434Y61504
X102648Y61500
X100584Y43307
X100203Y66820
X99045Y60896
X106114Y42730
X99377Y43307
X101055Y78994
X104621Y78994
X104902Y71057
X104902Y71755
X102425Y52578
X101790Y52578
X98742Y42799
X98266Y43275
X107061Y42545
X105346Y56642
X105600Y66993
X104838Y73470
X104838Y74168
X105346Y53086
X105346Y52451
X100965Y57340
X99805Y69977
X100115Y61504
X100965Y56659
X105029Y48522
X123126Y46037
X121920Y43307
X116395Y42736
X117126Y74581
X117057Y79693
X121195Y79693
X114729Y64643
X119126Y65208
X114729Y69977
X115062Y76708
X114729Y70993
X120840Y70168
X122491Y69787
X122491Y67628
X117015Y65532
X121475Y65596
X114729Y60452
X114729Y59372
X115047Y45402
X114983Y43878
X122364Y76518
X123888Y81217
X114427Y80264
X123238Y43371
X119316Y44894
X115999Y58737
X115841Y68009
X117126Y73247
X119126Y77216
X114729Y49784
X114729Y52451
X117142Y55943
X114729Y54991
X121143Y56070
X120127Y51308
X120127Y52578
X121143Y54165
X119443Y70930
X120127Y49911
X121968Y57785
X117602Y47498
X120777Y47498
X120713Y62674
X120713Y60769
X121376Y42736
X120904Y43244
X120396Y42736
X119888Y43244
X119396Y42736
X118935Y43688
X118396Y42736
X117856Y43307
X117396Y42736
X116586Y69356
X115690Y61504
X118904Y61500
X116840Y43307
X116459Y66820
X115301Y60896
X122370Y42730
X115633Y43307
X117311Y78994
X120877Y78994
X121158Y71057
X121158Y71755
X118681Y52578
X118046Y52578
X114998Y42799
X114522Y43275
X123317Y42545
X121602Y56642
X121856Y66993
X121094Y73470
X121094Y74168
X121602Y53086
X121602Y52451
X117221Y57340
X116061Y69977
X116371Y61504
X117221Y56659
X121285Y48522
X139383Y46037
X138176Y43307
X132652Y42736
X133382Y74581
X133313Y79693
X137451Y79693
X130985Y64643
X135382Y65208
X130985Y69977
X131318Y76708
X130985Y70993
X137097Y70168
X138748Y69787
X138748Y67628
X133271Y65532
X137732Y65596
X130985Y60452
X130985Y59372
X131303Y45402
X131239Y43878
X138621Y76518
X140145Y81217
X130683Y80264
X139494Y43371
X135573Y44894
X132255Y58737
X132097Y68009
X133382Y73247
X135382Y77216
X130985Y49784
X130985Y52451
X133398Y55943
X130985Y54991
X137399Y56070
X136383Y51308
X136383Y52578
X137399Y54165
X135700Y70930
X136383Y49911
X138224Y57785
X133858Y47498
X137033Y47498
X136970Y62674
X136970Y60769
X137632Y42736
X137160Y43244
X136652Y42736
X136144Y43244
X135652Y42736
X135192Y43688
X134652Y42736
X134112Y43307
X133652Y42736
X132842Y69356
X131946Y61504
X135160Y61500
X133096Y43307
X132715Y66820
X131557Y60896
X138626Y42730
X131890Y43307
X133567Y78994
X137134Y78994
X137414Y71057
X137414Y71755
X134938Y52578
X134303Y52578
X131255Y42799
X130778Y43275
X139573Y42545
X137859Y56642
X138113Y66993
X137351Y73470
X137351Y74168
X137859Y53086
X137859Y52451
X133477Y57340
X132317Y69977
X132627Y61504
X133477Y56659
X137541Y48522
X155639Y46037
X154432Y43307
X148908Y42736
X149638Y74581
X149569Y79693
X153707Y79693
X147241Y64643
X151638Y65208
X147241Y69977
X147574Y76708
X147241Y70993
X153353Y70168
X155004Y69787
X155004Y67628
X149527Y65532
X153988Y65596
X147241Y60452
X147241Y59372
X147559Y45402
X147495Y43878
X154877Y76518
X156401Y81217
X146939Y80264
X155750Y43371
X151829Y44894
X148511Y58737
X148353Y68009
X149638Y73247
X151638Y77216
X147241Y49784
X147241Y52451
X149654Y55943
X147241Y54991
X153655Y56070
X152639Y51308
X152639Y52578
X153655Y54165
X151956Y70930
X152639Y49911
X154480Y57785
X150114Y47498
X153289Y47498
X153226Y62674
X153226Y60769
X153888Y42736
X153416Y43244
X152908Y42736
X152400Y43244
X151908Y42736
X151448Y43688
X150908Y42736
X150368Y43307
X149908Y42736
X149098Y69356
X148202Y61504
X151416Y61500
X149352Y43307
X148971Y66820
X147813Y60896
X154882Y42730
X148146Y43307
X149823Y78994
X153390Y78994
X153670Y71057
X153670Y71755
X151194Y52578
X150559Y52578
X147511Y42799
X147034Y43275
X155829Y42545
X154115Y56642
X154369Y66993
X153607Y73470
X153607Y74168
X154115Y53086
X154115Y52451
X149733Y57340
X148573Y69977
X148883Y61504
X149733Y56659
X153797Y48522
X9335Y87186
X8128Y84455
X2604Y83884
X3334Y115729
X3265Y120840
X7403Y120840
X937Y105791
X5334Y106356
X937Y111125
X1270Y117856
X937Y112141
X7048Y111315
X8700Y110934
X8700Y108775
X3223Y106680
X7683Y106743
X937Y101600
X937Y100520
X1255Y86551
X1191Y85027
X8573Y117665
X10097Y122364
X635Y121412
X9446Y84519
X5524Y86043
X2207Y99885
X2049Y109156
X3334Y114395
X5334Y118364
X937Y90932
X937Y93599
X3350Y97091
X937Y96139
X7351Y97218
X6335Y92456
X6335Y93726
X7351Y95313
X5651Y112077
X6335Y91059
X8176Y98933
X3810Y88646
X6985Y88646
X6921Y103822
X6921Y101917
X7584Y83884
X7112Y84392
X6604Y83884
X6096Y84392
X5604Y83884
X5144Y84836
X4604Y83884
X4064Y84455
X3604Y83884
X2794Y110504
X1898Y102652
X5112Y102648
X3048Y84455
X2667Y107967
X1509Y102044
X8578Y83878
X1841Y84455
X3519Y120142
X7085Y120142
X7366Y112204
X7366Y112903
X4890Y93726
X4255Y93726
X1207Y83947
X730Y84423
X9525Y83693
X7810Y97790
X8064Y108140
X7302Y114617
X7302Y115316
X7810Y94234
X7810Y93599
X3429Y98488
X2269Y111125
X2579Y102652
X3429Y97807
X7493Y89670
X25590Y87186
X24384Y84455
X18860Y83884
X19590Y115729
X19521Y120840
X23659Y120840
X17193Y105791
X21590Y106356
X17193Y111125
X17526Y117856
X17193Y112141
X23304Y111315
X24955Y110934
X24955Y108775
X19479Y106680
X23939Y106743
X17193Y101600
X17193Y100520
X17511Y86551
X17447Y85027
X24828Y117665
X26352Y122364
X16891Y121412
X25702Y84519
X21781Y86043
X18463Y99885
X18305Y109156
X19590Y114395
X21590Y118364
X17193Y90932
X17193Y93599
X19606Y97091
X17193Y96139
X23607Y97218
X22591Y92456
X22591Y93726
X23607Y95313
X21907Y112077
X22591Y91059
X24432Y98933
X20066Y88646
X23241Y88646
X23177Y103822
X23177Y101917
X23840Y83884
X23368Y84392
X22860Y83884
X22352Y84392
X21860Y83884
X21400Y84836
X20860Y83884
X20320Y84455
X19860Y83884
X19050Y110504
X18154Y102652
X21368Y102648
X19304Y84455
X18923Y107967
X17765Y102044
X24834Y83878
X18098Y84455
X19775Y120142
X23341Y120142
X23622Y112204
X23622Y112903
X21146Y93726
X20511Y93726
X17463Y83947
X16986Y84423
X25781Y83693
X24066Y97790
X24320Y108140
X23558Y114617
X23558Y115316
X24066Y94234
X24066Y93599
X19685Y98488
X18525Y111125
X18835Y102652
X19685Y97807
X23749Y89670
X41847Y87186
X40640Y84455
X35116Y83884
X35846Y115729
X35777Y120840
X39915Y120840
X33449Y105791
X37846Y106356
X33449Y111125
X33782Y117856
X33449Y112141
X39561Y111315
X41212Y110934
X41212Y108775
X35735Y106680
X40196Y106743
X33449Y101600
X33449Y100520
X33767Y86551
X33703Y85027
X41085Y117665
X42609Y122364
X33147Y121412
X41958Y84519
X38037Y86043
X34719Y99885
X34561Y109156
X35846Y114395
X37846Y118364
X33449Y90932
X33449Y93599
X35862Y97091
X33449Y96139
X39863Y97218
X38847Y92456
X38847Y93726
X39863Y95313
X38164Y112077
X38847Y91059
X40688Y98933
X36322Y88646
X39497Y88646
X39434Y103822
X39434Y101917
X40096Y83884
X39624Y84392
X39116Y83884
X38608Y84392
X38116Y83884
X37656Y84836
X37116Y83884
X36576Y84455
X36116Y83884
X35306Y110504
X34410Y102652
X37624Y102648
X35560Y84455
X35179Y107967
X34021Y102044
X41090Y83878
X34354Y84455
X36031Y120142
X39598Y120142
X39878Y112204
X39878Y112903
X37402Y93726
X36767Y93726
X33719Y83947
X33242Y84423
X42037Y83693
X40323Y97790
X40577Y108140
X39815Y114617
X39815Y115316
X40323Y94234
X40323Y93599
X35941Y98488
X34781Y111125
X35091Y102652
X35941Y97807
X40005Y89670
X58102Y87186
X56896Y84455
X51371Y83884
X52102Y115729
X52033Y120840
X56171Y120840
X49705Y105791
X54102Y106356
X49705Y111125
X50038Y117856
X49705Y112141
X55816Y111315
X57467Y110934
X57467Y108775
X51991Y106680
X56451Y106743
X49705Y101600
X49705Y100520
X50023Y86551
X49959Y85027
X57340Y117665
X58864Y122364
X49403Y121412
X58214Y84519
X54292Y86043
X50975Y99885
X50817Y109156
X52102Y114395
X54102Y118364
X49705Y90932
X49705Y93599
X52118Y97091
X49705Y96139
X56119Y97218
X55103Y92456
X55103Y93726
X56119Y95313
X54419Y112077
X55103Y91059
X56944Y98933
X52578Y88646
X55753Y88646
X55689Y103822
X55689Y101917
X56352Y83884
X55880Y84392
X55372Y83884
X54864Y84392
X54372Y83884
X53911Y84836
X53372Y83884
X52832Y84455
X52372Y83884
X51562Y110504
X50666Y102652
X53880Y102648
X51816Y84455
X51435Y107967
X50277Y102044
X57346Y83878
X50609Y84455
X52287Y120142
X55853Y120142
X56134Y112204
X56134Y112903
X53657Y93726
X53022Y93726
X49974Y83947
X49498Y84423
X58293Y83693
X56578Y97790
X56832Y108140
X56070Y114617
X56070Y115316
X56578Y94234
X56578Y93599
X52197Y98488
X51037Y111125
X51347Y102652
X52197Y97807
X56261Y89670
X74359Y87186
X73152Y84455
X67628Y83884
X68358Y115729
X68289Y120840
X72427Y120840
X65961Y105791
X70358Y106356
X65961Y111125
X66294Y117856
X65961Y112141
X72073Y111315
X73724Y110934
X9335Y4890
X68247Y106680
X72708Y106743
X65961Y101600
X65961Y100520
X66279Y86551
X66215Y85027
X73597Y117665
X75121Y122364
X65659Y121412
X74470Y84519
X70549Y86043
X67231Y99885
X67073Y109156
X68358Y114395
X70358Y118364
X65961Y90932
X65961Y93599
X68374Y97091
X65961Y96139
X72375Y97218
X71359Y92456
X71359Y93726
X72375Y95313
X70676Y112077
X71359Y91059
X73200Y98933
X68834Y88646
X72009Y88646
X71946Y103822
X71946Y101917
X72608Y83884
X72136Y84392
X71628Y83884
X71120Y84392
X70628Y83884
X70168Y84836
X69628Y83884
X69088Y84455
X68628Y83884
X67818Y110504
X66922Y102652
X70136Y102648
X68072Y84455
X67691Y107967
X66533Y102044
X73602Y83878
X66866Y84455
X68543Y120142
X72110Y120142
X72390Y112204
X72390Y112903
X69914Y93726
X69279Y93726
X66231Y83947
X65754Y84423
X74549Y83693
X72835Y97790
X73089Y108140
X72327Y114617
X72327Y115316
X72835Y94234
X72835Y93599
X68453Y98488
X67293Y111125
X67603Y102652
X68453Y97807
X72517Y89670
X90614Y87186
X89408Y84455
X83884Y83884
X84614Y115729
X84545Y120840
X88683Y120840
X82217Y105791
X86614Y106356
X82217Y111125
X82550Y117856
X82217Y112141
X88328Y111315
X89979Y110934
X89979Y108775
X84503Y106680
X88963Y106743
X82217Y101600
X82217Y100520
X82535Y86551
X82471Y85027
X89852Y117665
X91376Y122364
X81915Y121412
X90726Y84519
X86805Y86043
X83487Y99885
X83329Y109156
X84614Y114395
X86614Y118364
X82217Y90932
X82217Y93599
X84630Y97091
X82217Y96139
X88631Y97218
X87615Y92456
X87615Y93726
X88631Y95313
X86932Y112077
X87615Y91059
X89456Y98933
X85090Y88646
X88265Y88646
X88201Y103822
X88201Y101917
X88864Y83884
X88392Y84392
X87884Y83884
X87376Y84392
X86884Y83884
X86424Y84836
X85884Y83884
X85344Y84455
X84884Y83884
X84074Y110504
X83178Y102652
X86392Y102648
X84328Y84455
X83947Y107967
X82789Y102044
X89858Y83878
X83122Y84455
X84799Y120142
X88365Y120142
X88646Y112204
X88646Y112903
X86170Y93726
X85535Y93726
X82487Y83947
X82010Y84423
X90805Y83693
X89090Y97790
X89344Y108140
X88582Y114617
X88582Y115316
X89090Y94234
X89090Y93599
X84709Y98488
X83549Y111125
X83859Y102652
X84709Y97807
X88773Y89670
X106870Y87186
X105664Y84455
X100139Y83884
X100870Y115729
X100801Y120840
X104939Y120840
X98473Y105791
X102870Y106356
X98473Y111125
X98806Y117856
X98473Y112141
X104584Y111315
X106235Y110934
X106235Y108775
X100759Y106680
X105219Y106743
X98473Y101600
X98473Y100520
X98791Y86551
X98727Y85027
X106108Y117665
X107632Y122364
X98171Y121412
X106982Y84519
X103060Y86043
X99743Y99885
X99585Y109156
X100870Y114395
X102870Y118364
X98473Y90932
X98473Y93599
X100886Y97091
X98473Y96139
X104887Y97218
X103871Y92456
X103871Y93726
X104887Y95313
X103187Y112077
X103871Y91059
X105712Y98933
X101346Y88646
X104521Y88646
X104457Y103822
X104457Y101917
X105120Y83884
X104648Y84392
X104140Y83884
X103632Y84392
X103140Y83884
X102679Y84836
X102140Y83884
X101600Y84455
X101140Y83884
X100330Y110504
X99434Y102652
X102648Y102648
X100584Y84455
X100203Y107967
X99045Y102044
X106114Y83878
X99377Y84455
X101055Y120142
X104621Y120142
X104902Y112204
X104902Y112903
X102425Y93726
X101790Y93726
X98742Y83947
X98266Y84423
X107061Y83693
X105346Y97790
X105600Y108140
X104838Y114617
X104838Y115316
X105346Y94234
X105346Y93599
X100965Y98488
X99805Y111125
X100115Y102652
X100965Y97807
X105029Y89670
X123126Y87186
X121920Y84455
X116395Y83884
X117126Y115729
X117057Y120840
X121195Y120840
X114729Y105791
X119126Y106356
X114729Y111125
X115062Y117856
X114729Y112141
X120840Y111315
X122491Y110934
X122491Y108775
X117015Y106680
X121475Y106743
X114729Y101600
X114729Y100520
X115047Y86551
X114983Y85027
X122364Y117665
X123888Y122364
X114427Y121412
X123238Y84519
X119316Y86043
X115999Y99885
X115841Y109156
X117126Y114395
X119126Y118364
X114729Y90932
X114729Y93599
X117142Y97091
X114729Y96139
X121143Y97218
X120127Y92456
X120127Y93726
X121143Y95313
X119443Y112077
X120127Y91059
X121968Y98933
X117602Y88646
X120777Y88646
X120713Y103822
X120713Y101917
X121376Y83884
X120904Y84392
X120396Y83884
X119888Y84392
X119396Y83884
X118935Y84836
X118396Y83884
X117856Y84455
X117396Y83884
X116586Y110504
X115690Y102652
X118904Y102648
X116840Y84455
X116459Y107967
X115301Y102044
X122370Y83878
X115633Y84455
X117311Y120142
X120877Y120142
X121158Y112204
X121158Y112903
X118681Y93726
X118046Y93726
X114998Y83947
X114522Y84423
X123317Y83693
X121602Y97790
X121856Y108140
X121094Y114617
X121094Y115316
X121602Y94234
X121602Y93599
X117221Y98488
X116061Y111125
X116371Y102652
X117221Y97807
X121285Y89670
X139383Y87186
X138176Y84455
X132652Y83884
X133382Y115729
X133313Y120840
X137451Y120840
X130985Y105791
X135382Y106356
X130985Y111125
X131318Y117856
X130985Y112141
X137097Y111315
X138748Y110934
X138748Y108775
X133271Y106680
X73724Y108775
X130985Y101600
X130985Y100520
X131303Y86551
X131239Y85027
X138621Y117665
X140145Y122364
X130683Y121412
X139494Y84519
X135573Y86043
X132255Y99885
X132097Y109156
X133382Y114395
X135382Y118364
X130985Y90932
X130985Y93599
X133398Y97091
X130985Y96139
X137399Y97218
X136383Y92456
X136383Y93726
X137399Y95313
X135700Y112077
X136383Y91059
X138224Y98933
X133858Y88646
X137033Y88646
X136970Y103822
X136970Y101917
X137632Y83884
X137160Y84392
X136652Y83884
X136144Y84392
X135652Y83884
X135192Y84836
X134652Y83884
X134112Y84455
X133652Y83884
X132842Y110504
X131946Y102652
X135160Y102648
X133096Y84455
X132715Y107967
X131557Y102044
X138626Y83878
X131890Y84455
X133567Y120142
X137134Y120142
X137414Y112204
X137414Y112903
X134938Y93726
X134303Y93726
X131255Y83947
X130778Y84423
X139573Y83693
X137859Y97790
X138113Y108140
X137351Y114617
X137351Y115316
X137859Y94234
X137859Y93599
X133477Y98488
X132317Y111125
X132627Y102652
X133477Y97807
X137541Y89670
X155639Y87186
X154432Y84455
X148908Y83884
X149638Y115729
X149569Y120840
X153707Y120840
X147241Y105791
X151638Y106356
X147241Y111125
X147574Y117856
X147241Y112141
X153353Y111315
X155004Y110934
X155004Y108775
X149527Y106680
X153988Y106743
X147241Y101600
X147241Y100520
X147559Y86551
X147495Y85027
X154877Y117665
X156401Y122364
X146939Y121412
X155750Y84519
X151829Y86043
X148511Y99885
X148353Y109156
X149638Y114395
X151638Y118364
X147241Y90932
X147241Y93599
X149654Y97091
X147241Y96139
X153655Y97218
X152639Y92456
X152639Y93726
X153655Y95313
X151956Y112077
X152639Y91059
X154480Y98933
X150114Y88646
X153289Y88646
X153226Y103822
X153226Y101917
X153888Y83884
X153416Y84392
X152908Y83884
X152400Y84392
X151908Y83884
X151448Y84836
X150908Y83884
X150368Y84455
X149908Y83884
X149098Y110504
X148202Y102652
X151416Y102648
X149352Y84455
X148971Y107967
X147813Y102044
X154882Y83878
X148146Y84455
X149823Y120142
X153390Y120142
X153670Y112204
X153670Y112903
X151194Y93726
X150559Y93726
X147511Y83947
X147034Y84423
X155829Y83693
X154115Y97790
X154369Y108140
X153607Y114617
X153607Y115316
X154115Y94234
X154115Y93599
X149733Y98488
X148573Y111125
X148883Y102652
X149733Y97807
X153797Y89670
X8128Y2159
X2604Y1587
X3334Y33433
X3265Y38545
X7403Y38545
X937Y23495
X5334Y24060
X937Y28829
X1270Y35560
X937Y29845
X7048Y29019
X8700Y28638
X8700Y26479
X3223Y24384
X7683Y24447
X937Y19304
X937Y18225
X1255Y4255
X1191Y2731
X8573Y35370
X10097Y40069
X635Y39116
X9446Y2223
X5524Y3746
X2207Y17590
X2049Y26860
X3334Y32099
X5334Y36068
X937Y8636
X937Y11303
X3350Y14795
X937Y13843
X7351Y14922
X6335Y10160
X6335Y11430
X7351Y13017
X5651Y29781
X6335Y8763
X8176Y16637
X3810Y6350
X6985Y6350
X6921Y21527
X6921Y19622
X7584Y1587
X7112Y2096
X6604Y1587
X6096Y2096
X5604Y1587
X5144Y2540
X4604Y1587
X4064Y2159
X3604Y1587
X2794Y28208
X1898Y20356
X5112Y20352
X3048Y2159
X2667Y25671
X1509Y19749
X8578Y1582
X1841Y2159
X3519Y37846
X7085Y37846
X7366Y29908
X7366Y30607
X4890Y11430
X4255Y11430
X1207Y1651
X730Y2127
X9525Y1397
X7810Y15494
X8064Y25844
X7302Y32321
X7302Y33020
X7810Y11938
X7810Y11303
X3429Y16192
X2269Y28829
X2579Y20356
X3429Y15511
X7493Y7374
X25590Y4890
X24384Y2159
X18860Y1587
X19590Y33433
X19521Y38545
X23659Y38545
X17193Y23495
X21590Y24060
X17193Y28829
X17526Y35560
X17193Y29845
X23304Y29019
X24955Y28638
X24955Y26479
X19479Y24384
X23939Y24447
X17193Y19304
X17193Y18225
X17511Y4255
X17447Y2731
X24828Y35370
X26352Y40069
X16891Y39116
X25702Y2223
X21781Y3746
X18463Y17590
X18305Y26860
X19590Y32099
X21590Y36068
X17193Y8636
X17193Y11303
X19606Y14795
X17193Y13843
X23607Y14922
X22591Y10160
X22591Y11430
X23607Y13017
X21907Y29781
X22591Y8763
X24432Y16637
X20066Y6350
X23241Y6350
X23177Y21527
X23177Y19622
X23840Y1587
X23368Y2096
X22860Y1587
X22352Y2096
X21860Y1587
X21400Y2540
X20860Y1587
X20320Y2159
X19860Y1587
X19050Y28208
X18154Y20356
X21368Y20352
X19304Y2159
X18923Y25671
X17765Y19749
X24834Y1582
X18098Y2159
X19775Y37846
X23341Y37846
X23622Y29908
X23622Y30607
X21146Y11430
X20511Y11430
X17463Y1651
X16986Y2127
X25781Y1397
X24066Y15494
X24320Y25844
X23558Y32321
X23558Y33020
X24066Y11938
X24066Y11303
X19685Y16192
X18525Y28829
X18835Y20356
X19685Y15511
X23749Y7374
X41847Y4890
X40640Y2159
X35116Y1587
X35846Y33433
X35777Y38545
X39915Y38545
X33449Y23495
X37846Y24060
X33449Y28829
X33782Y35560
X33449Y29845
X39561Y29019
X41212Y28638
X41212Y26479
X35735Y24384
X40196Y24447
X33449Y19304
X33449Y18225
X137732Y106743
M30