M48
;GenerationSoftware,Autodesk,EAGLE,9.6.2*%
;CreationDate,2021-08-19T10:53:42Z*%
FMAT,2
ICI,OFF
METRIC,TZ,000.000
T2C0.300
T1C0.508
%
G90
M71
T1
X170434Y103886
X7874Y19050
X7874Y21590
X5334Y19050
X5334Y21590
X2794Y19050
X2794Y21590
X19050Y19050
X19050Y21590
X16510Y19050
X16510Y21590
X13970Y19050
X13970Y21590
X30226Y19050
X30226Y21590
X27686Y19050
X27686Y21590
X25146Y19050
X25146Y21590
X41402Y19050
X41402Y21590
X38862Y19050
X38862Y21590
X36322Y19050
X36322Y21590
X52578Y19050
X52578Y21590
X50038Y19050
X50038Y21590
X47498Y19050
X47498Y21590
X63754Y19050
X63754Y21590
X61214Y19050
X61214Y21590
X58674Y19050
X58674Y21590
X74930Y19050
X74930Y21590
X72390Y19050
X72390Y21590
X69850Y19050
X69850Y21590
X86106Y19050
X86106Y21590
X83566Y19050
X83566Y21590
X81026Y19050
X81026Y21590
X97282Y19050
X97282Y21590
X94742Y19050
X94742Y21590
X92202Y19050
X92202Y21590
X108458Y19050
X108458Y21590
X105918Y19050
X105918Y21590
X103378Y19050
X103378Y21590
X119634Y19050
X119634Y21590
X117094Y19050
X117094Y21590
X114554Y19050
X114554Y21590
X130810Y19050
X130810Y21590
X128270Y19050
X128270Y21590
X125730Y19050
X125730Y21590
X141986Y19050
X141986Y21590
X139446Y19050
X139446Y21590
X136906Y19050
X136906Y21590
X153162Y19050
X153162Y21590
X150622Y19050
X150622Y21590
X148082Y19050
X148082Y21590
X164338Y19050
X164338Y21590
X161798Y19050
X161798Y21590
X159258Y19050
X159258Y21590
X175514Y19050
X175514Y21590
X172974Y19050
X172974Y21590
X170434Y19050
X170434Y21590
X7874Y60198
X7874Y62738
X5334Y60198
X5334Y62738
X2794Y60198
X2794Y62738
X19050Y60198
X19050Y62738
X16510Y60198
X16510Y62738
X13970Y60198
X13970Y62738
X30226Y60198
X30226Y62738
X27686Y60198
X27686Y62738
X25146Y60198
X25146Y62738
X41402Y60198
X41402Y62738
X38862Y60198
X38862Y62738
X36322Y60198
X36322Y62738
X52578Y60198
X52578Y62738
X50038Y60198
X50038Y62738
X47498Y60198
X47498Y62738
X63754Y60198
X63754Y62738
X61214Y60198
X61214Y62738
X58674Y60198
X58674Y62738
X74930Y60198
X74930Y62738
X72390Y60198
X72390Y62738
X69850Y60198
X69850Y62738
X86106Y60198
X86106Y62738
X83566Y60198
X83566Y62738
X81026Y60198
X81026Y62738
X97282Y60198
X97282Y62738
X94742Y60198
X94742Y62738
X92202Y60198
X92202Y62738
X108458Y60198
X108458Y62738
X105918Y60198
X105918Y62738
X103378Y60198
X103378Y62738
X119634Y60198
X119634Y62738
X117094Y60198
X117094Y62738
X114554Y60198
X114554Y62738
X130810Y60198
X130810Y62738
X128270Y60198
X128270Y62738
X125730Y60198
X125730Y62738
X141986Y60198
X141986Y62738
X139446Y60198
X139446Y62738
X136906Y60198
X136906Y62738
X153162Y60198
X153162Y62738
X150622Y60198
X150622Y62738
X148082Y60198
X148082Y62738
X164338Y60198
X164338Y62738
X161798Y60198
X161798Y62738
X159258Y60198
X159258Y62738
X175514Y60198
X175514Y62738
X172974Y60198
X172974Y62738
X170434Y60198
X170434Y62738
X7874Y101346
X7874Y103886
X5334Y101346
X5334Y103886
X2794Y101346
X2794Y103886
X19050Y101346
X19050Y103886
X16510Y101346
X16510Y103886
X13970Y101346
X13970Y103886
X30226Y101346
X30226Y103886
X27686Y101346
X27686Y103886
X25146Y101346
X25146Y103886
X41402Y101346
X41402Y103886
X38862Y101346
X38862Y103886
X36322Y101346
X36322Y103886
X52578Y101346
X52578Y103886
X50038Y101346
X50038Y103886
X47498Y101346
X47498Y103886
X63754Y101346
X63754Y103886
X61214Y101346
X61214Y103886
X58674Y101346
X58674Y103886
X74930Y101346
X74930Y103886
X72390Y101346
X72390Y103886
X69850Y101346
X69850Y103886
X86106Y101346
X86106Y103886
X83566Y101346
X83566Y103886
X81026Y101346
X81026Y103886
X97282Y101346
X97282Y103886
X94742Y101346
X94742Y103886
X92202Y101346
X92202Y103886
X108458Y101346
X108458Y103886
X105918Y101346
X105918Y103886
X103378Y101346
X103378Y103886
X119634Y101346
X119634Y103886
X117094Y101346
X117094Y103886
X114554Y101346
X114554Y103886
X130810Y101346
X130810Y103886
X128270Y101346
X128270Y103886
X125730Y101346
X125730Y103886
X141986Y101346
X141986Y103886
X139446Y101346
X139446Y103886
X136906Y101346
X136906Y103886
X153162Y101346
X153162Y103886
X150622Y101346
X150622Y103886
X148082Y101346
X148082Y103886
X164338Y101346
X164338Y103886
X161798Y101346
X161798Y103886
X159258Y101346
X159258Y103886
X175514Y101346
X175514Y103886
X172974Y101346
X172974Y103886
X170434Y101346
T2
X36862Y32099
X38862Y36068
X34465Y8128
X34465Y12319
X34465Y14478
X37846Y30480
X39815Y21527
X39624Y19939
X34465Y33433
X41021Y34163
X37465Y11684
X41148Y11684
X41212Y20003
X37465Y9906
X41148Y9906
X39116Y16510
X39116Y15240
X41704Y26670
X41656Y17526
X36894Y7810
X41704Y29908
X40561Y6794
X41112Y1587
X40640Y2096
X40132Y1587
X39624Y2096
X39132Y1587
X38672Y2540
X38132Y1587
X37592Y2159
X37132Y1587
X36322Y28208
X35426Y20356
X38640Y20352
X36576Y2159
X36195Y25671
X35037Y19749
X42106Y1582
X35370Y2159
X37047Y37846
X40614Y37846
X42281Y34290
X42281Y33020
X41824Y6563
X40767Y5507
X42281Y13208
X41529Y13208
X42281Y7810
X34735Y1651
X34258Y2127
X43053Y1397
X37592Y9144
X37747Y13017
X41466Y25908
X41085Y32321
X41085Y33020
X38418Y17145
X38418Y15875
X38418Y14605
X39370Y8382
X35797Y28829
X36107Y20356
X39243Y29527
X38799Y30480
X54038Y4890
X52832Y2159
X47307Y1587
X48038Y33433
X47969Y38545
X52107Y38545
X45641Y23495
X50038Y24060
X45641Y28829
X45974Y35560
X45641Y29845
X51752Y28638
X47927Y24384
X52514Y23241
X45641Y19304
X45641Y18225
X45959Y4255
X45895Y2731
X53403Y35560
X54800Y40069
X45339Y39116
X54150Y2223
X50228Y3746
X46753Y26860
X48038Y32099
X50038Y36068
X45641Y8128
X45641Y12319
X45641Y14478
X49022Y30480
X50990Y21527
X50800Y19939
X45641Y33433
X52197Y34163
X48641Y11684
X52324Y11684
X52387Y20003
X48641Y9906
X52324Y9906
X50292Y16510
X50292Y15240
X52880Y26670
X52832Y17526
X48069Y7810
X52880Y29908
X51737Y6794
X52288Y1587
X51816Y2096
X51308Y1587
X50800Y2096
X50308Y1587
X49847Y2540
X49308Y1587
X48768Y2159
X48308Y1587
X47498Y28208
X46602Y20356
X49816Y20352
X47752Y2159
X47371Y25671
X46213Y19749
X53282Y1582
X46545Y2159
X48223Y37846
X51789Y37846
X53457Y34290
X53457Y33020
X53000Y6563
X51943Y5507
X53457Y13208
X52705Y13208
X53457Y7810
X45910Y1651
X45434Y2127
X54229Y1397
X48768Y9144
X48923Y13017
X52641Y25908
X52260Y32321
X52260Y33020
X49593Y17145
X49593Y15875
X49593Y14605
X50546Y8382
X46973Y28829
X47283Y20356
X50419Y29527
X49974Y30480
X65214Y4890
X64008Y2159
X58483Y1587
X59214Y33433
X59145Y38545
X63283Y38545
X56817Y23495
X61214Y24060
X56817Y28829
X57150Y35560
X56817Y29845
X62928Y28638
X59103Y24384
X63690Y23241
X56817Y19304
X56817Y18225
X57135Y4255
X57071Y2731
X64579Y35560
X65977Y40069
X56515Y39116
X65326Y2223
X61404Y3746
X57929Y26860
X59214Y32099
X61214Y36068
X56817Y8128
X56817Y12319
X56817Y14478
X60198Y30480
X62166Y21527
X61976Y19939
X56817Y33433
X63373Y34163
X59817Y11684
X63500Y11684
X63563Y20003
X59817Y9906
X63500Y9906
X61468Y16510
X61468Y15240
X64056Y26670
X64008Y17526
X59245Y7810
X64056Y29908
X62913Y6794
X63464Y1587
X62992Y2096
X62484Y1587
X61976Y2096
X61484Y1587
X61023Y2540
X60484Y1587
X59944Y2159
X59484Y1587
X58674Y28208
X57778Y20356
X60992Y20352
X58928Y2159
X58547Y25671
X57389Y19749
X64458Y1582
X57721Y2159
X59399Y37846
X62965Y37846
X64633Y34290
X64633Y33020
X64176Y6563
X63119Y5507
X64633Y13208
X63881Y13208
X64633Y7810
X57086Y1651
X56610Y2127
X65405Y1397
X59944Y9144
X60099Y13017
X63817Y25908
X63436Y32321
X63436Y33020
X60769Y17145
X60769Y15875
X60769Y14605
X61722Y8382
X58149Y28829
X58459Y20356
X61595Y29527
X61150Y30480
X76391Y4890
X75184Y2159
X69660Y1587
X70390Y33433
X70321Y38545
X74459Y38545
X67993Y23495
X72390Y24060
X67993Y28829
X68326Y35560
X67993Y29845
X74105Y28638
X70279Y24384
X74867Y23241
X67993Y19304
X67993Y18225
X68311Y4255
X68247Y2731
X75756Y35560
X77153Y40069
X67691Y39116
X76502Y2223
X72581Y3746
X69105Y26860
X70390Y32099
X72390Y36068
X67993Y8128
X67993Y12319
X67993Y14478
X71374Y30480
X73343Y21527
X73152Y19939
X67993Y33433
X74549Y34163
X70993Y11684
X74676Y11684
X74740Y20003
X70993Y9906
X74676Y9906
X72644Y16510
X72644Y15240
X75232Y26670
X75184Y17526
X70422Y7810
X75232Y29908
X74089Y6794
X74640Y1587
X74168Y2096
X73660Y1587
X73152Y2096
X72660Y1587
X72200Y2540
X71660Y1587
X71120Y2159
X70660Y1587
X69850Y28208
X68954Y20356
X72168Y20352
X70104Y2159
X69723Y25671
X68565Y19749
X75634Y1582
X68898Y2159
X70575Y37846
X74142Y37846
X75809Y34290
X75809Y33020
X75352Y6563
X74295Y5507
X75809Y13208
X75057Y13208
X75809Y7810
X68263Y1651
X67786Y2127
X76581Y1397
X71120Y9144
X71275Y13017
X74994Y25908
X74613Y32321
X74613Y33020
X71946Y17145
X71946Y15875
X71946Y14605
X72898Y8382
X69325Y28829
X69635Y20356
X72771Y29527
X72327Y30480
X87566Y4890
X86360Y2159
X80836Y1587
X81566Y33433
X81497Y38545
X85635Y38545
X79169Y23495
X83566Y24060
X79169Y28829
X79502Y35560
X79169Y29845
X85281Y28638
X81455Y24384
X86043Y23241
X79169Y19304
X79169Y18225
X79487Y4255
X79423Y2731
X86932Y35560
X88328Y40069
X78867Y39116
X87678Y2223
X83757Y3746
X80281Y26860
X81566Y32099
X83566Y36068
X79169Y8128
X79169Y12319
X79169Y14478
X82550Y30480
X84519Y21527
X84328Y19939
X79169Y33433
X85725Y34163
X82169Y11684
X85852Y11684
X85916Y20003
X82169Y9906
X85852Y9906
X83820Y16510
X83820Y15240
X86408Y26670
X86360Y17526
X81598Y7810
X86408Y29908
X85265Y6794
X85816Y1587
X85344Y2096
X84836Y1587
X84328Y2096
X83836Y1587
X83376Y2540
X82836Y1587
X82296Y2159
X81836Y1587
X81026Y28208
X80130Y20356
X83344Y20352
X81280Y2159
X80899Y25671
X79741Y19749
X86810Y1582
X80074Y2159
X81751Y37846
X85318Y37846
X86985Y34290
X86985Y33020
X86528Y6563
X85471Y5507
X86985Y13208
X86233Y13208
X86985Y7810
X79439Y1651
X78962Y2127
X87757Y1397
X82296Y9144
X82451Y13017
X86170Y25908
X85789Y32321
X85789Y33020
X83122Y17145
X83122Y15875
X83122Y14605
X84074Y8382
X80501Y28829
X80811Y20356
X83947Y29527
X83503Y30480
X98742Y4890
X97536Y2159
X92011Y1587
X92742Y33433
X92673Y38545
X96811Y38545
X90345Y23495
X94742Y24060
X90345Y28829
X90678Y35560
X90345Y29845
X96456Y28638
X92631Y24384
X97218Y23241
X90345Y19304
X90345Y18225
X90663Y4255
X90599Y2731
X98107Y35560
X99504Y40069
X90043Y39116
X98854Y2223
X94932Y3746
X91457Y26860
X92742Y32099
X94742Y36068
X90345Y8128
X90345Y12319
X90345Y14478
X93726Y30480
X95694Y21527
X95504Y19939
X90345Y33433
X96901Y34163
X93345Y11684
X97028Y11684
X97091Y20003
X93345Y9906
X97028Y9906
X94996Y16510
X94996Y15240
X97584Y26670
X97536Y17526
X92773Y7810
X97584Y29908
X96441Y6794
X96992Y1587
X96520Y2096
X96012Y1587
X95504Y2096
X95012Y1587
X94551Y2540
X94012Y1587
X93472Y2159
X93012Y1587
X92202Y28208
X91306Y20356
X94520Y20352
X92456Y2159
X92075Y25671
X90917Y19749
X97986Y1582
X91249Y2159
X92927Y37846
X96493Y37846
X98161Y34290
X98161Y33020
X97704Y6563
X96647Y5507
X98161Y13208
X97409Y13208
X98161Y7810
X90614Y1651
X90138Y2127
X98933Y1397
X93472Y9144
X93627Y13017
X97345Y25908
X96964Y32321
X96964Y33020
X94297Y17145
X94297Y15875
X94297Y14605
X95250Y8382
X91677Y28829
X91987Y20356
X95123Y29527
X94678Y30480
X109918Y4890
X108712Y2159
X103187Y1587
X103918Y33433
X103849Y38545
X107987Y38545
X101521Y23495
X105918Y24060
X101521Y28829
X101854Y35560
X101521Y29845
X107632Y28638
X103807Y24384
X108394Y23241
X101521Y19304
X101521Y18225
X101839Y4255
X101775Y2731
X109283Y35560
X110680Y40069
X101219Y39116
X110030Y2223
X106108Y3746
X102633Y26860
X103918Y32099
X105918Y36068
X101521Y8128
X101521Y12319
X101521Y14478
X104902Y30480
X106870Y21527
X106680Y19939
X101521Y33433
X108077Y34163
X104521Y11684
X108204Y11684
X108267Y20003
X104521Y9906
X108204Y9906
X106172Y16510
X106172Y15240
X108760Y26670
X108712Y17526
X103949Y7810
X108760Y29908
X107617Y6794
X108168Y1587
X107696Y2096
X107188Y1587
X106680Y2096
X106188Y1587
X105727Y2540
X105188Y1587
X104648Y2159
X104188Y1587
X103378Y28208
X102482Y20356
X105696Y20352
X103632Y2159
X103251Y25671
X102093Y19749
X109162Y1582
X102425Y2159
X104103Y37846
X107669Y37846
X109337Y34290
X109337Y33020
X108880Y6563
X107823Y5507
X109337Y13208
X108585Y13208
X109337Y7810
X101790Y1651
X101314Y2127
X110109Y1397
X104648Y9144
X104803Y13017
X108521Y25908
X108140Y32321
X108140Y33020
X105473Y17145
X105473Y15875
X105473Y14605
X106426Y8382
X102853Y28829
X103163Y20356
X106299Y29527
X105854Y30480
X121094Y4890
X119888Y2159
X114363Y1587
X115094Y33433
X115025Y38545
X119163Y38545
X112697Y23495
X117094Y24060
X112697Y28829
X113030Y35560
X112697Y29845
X118808Y28638
X114983Y24384
X119570Y23241
X112697Y19304
X112697Y18225
X113015Y4255
X112951Y2731
X120459Y35560
X121856Y40069
X112395Y39116
X121206Y2223
X117284Y3746
X113809Y26860
X115094Y32099
X117094Y36068
X112697Y8128
X112697Y12319
X112697Y14478
X116078Y30480
X118046Y21527
X117856Y19939
X112697Y33433
X119253Y34163
X115697Y11684
X119380Y11684
X119443Y20003
X115697Y9906
X119380Y9906
X117348Y16510
X117348Y15240
X119936Y26670
X119888Y17526
X115125Y7810
X119936Y29908
X118793Y6794
X119344Y1587
X118872Y2096
X118364Y1587
X117856Y2096
X117364Y1587
X116903Y2540
X116364Y1587
X115824Y2159
X115364Y1587
X114554Y28208
X113658Y20356
X116872Y20352
X114808Y2159
X114427Y25671
X113269Y19749
X120338Y1582
X113601Y2159
X115279Y37846
X118845Y37846
X120513Y34290
X120513Y33020
X120056Y6563
X118999Y5507
X120513Y13208
X119761Y13208
X120513Y7810
X112966Y1651
X112490Y2127
X121285Y1397
X115824Y9144
X115979Y13017
X119697Y25908
X119316Y32321
X119316Y33020
X116649Y17145
X116649Y15875
X116649Y14605
X117602Y8382
X114029Y28829
X114339Y20356
X117475Y29527
X117030Y30480
X132271Y4890
X131064Y2159
X125539Y1587
X126270Y33433
X126201Y38545
X130339Y38545
X123873Y23495
X128270Y24060
X123873Y28829
X124206Y35560
X123873Y29845
X129984Y28638
X126159Y24384
X130746Y23241
X123873Y19304
X123873Y18225
X124191Y4255
X124127Y2731
X131636Y35560
X133033Y40069
X123571Y39116
X132382Y2223
X128460Y3746
X124985Y26860
X126270Y32099
X128270Y36068
X123873Y8128
X123873Y12319
X123873Y14478
X127254Y30480
X129222Y21527
X129032Y19939
X123873Y33433
X130429Y34163
X126873Y11684
X130556Y11684
X130619Y20003
X126873Y9906
X130556Y9906
X128524Y16510
X128524Y15240
X131112Y26670
X131064Y17526
X126301Y7810
X131112Y29908
X129969Y6794
X130520Y1587
X130048Y2096
X129540Y1587
X129032Y2096
X128540Y1587
X128079Y2540
X127540Y1587
X127000Y2159
X126540Y1587
X125730Y28208
X124834Y20356
X128048Y20352
X125984Y2159
X125603Y25671
X124445Y19749
X131514Y1582
X124777Y2159
X126455Y37846
X130021Y37846
X131689Y34290
X131689Y33020
X131232Y6563
X130175Y5507
X131689Y13208
X130937Y13208
X131689Y7810
X124142Y1651
X123666Y2127
X132461Y1397
X127000Y9144
X127155Y13017
X130873Y25908
X130492Y32321
X130492Y33020
X127825Y17145
X127825Y15875
X127825Y14605
X128778Y8382
X125205Y28829
X125515Y20356
X128651Y29527
X128206Y30480
X143447Y4890
X142240Y2159
X136716Y1587
X137446Y33433
X137377Y38545
X141515Y38545
X135049Y23495
X139446Y24060
X135049Y28829
X135382Y35560
X135049Y29845
X141161Y28638
X137335Y24384
X141923Y23241
X135049Y19304
X135049Y18225
X135367Y4255
X135303Y2731
X142812Y35560
X144209Y40069
X134747Y39116
X143558Y2223
X139637Y3746
X136161Y26860
X137446Y32099
X139446Y36068
X135049Y8128
X135049Y12319
X135049Y14478
X138430Y30480
X140399Y21527
X140208Y19939
X135049Y33433
X141605Y34163
X138049Y11684
X141732Y11684
X141796Y20003
X138049Y9906
X141732Y9906
X139700Y16510
X139700Y15240
X142288Y26670
X142240Y17526
X137478Y7810
X142288Y29908
X141145Y6794
X141696Y1587
X141224Y2096
X140716Y1587
X140208Y2096
X139716Y1587
X139256Y2540
X138716Y1587
X138176Y2159
X137716Y1587
X136906Y28208
X136010Y20356
X139224Y20352
X137160Y2159
X136779Y25671
X135621Y19749
X142690Y1582
X135954Y2159
X137631Y37846
X141198Y37846
X142865Y34290
X142865Y33020
X142408Y6563
X141351Y5507
X142865Y13208
X142113Y13208
X142865Y7810
X135319Y1651
X134842Y2127
X143637Y1397
X138176Y9144
X138331Y13017
X142050Y25908
X141669Y32321
X141669Y33020
X139002Y17145
X139002Y15875
X139002Y14605
X139954Y8382
X136381Y28829
X136691Y20356
X139827Y29527
X139383Y30480
X154623Y4890
X153416Y2159
X147892Y1587
X148622Y33433
X148553Y38545
X152691Y38545
X146225Y23495
X150622Y24060
X146225Y28829
X146558Y35560
X146225Y29845
X152337Y28638
X148511Y24384
X153099Y23241
X146225Y19304
X146225Y18225
X146543Y4255
X146479Y2731
X153988Y35560
X155385Y40069
X145923Y39116
X154734Y2223
X150813Y3746
X147337Y26860
X148622Y32099
X150622Y36068
X146225Y8128
X146225Y12319
X146225Y14478
X149606Y30480
X151575Y21527
X151384Y19939
X146225Y33433
X152781Y34163
X149225Y11684
X152908Y11684
X152972Y20003
X149225Y9906
X152908Y9906
X150876Y16510
X150876Y15240
X153464Y26670
X153416Y17526
X148654Y7810
X153464Y29908
X152321Y6794
X152872Y1587
X152400Y2096
X151892Y1587
X151384Y2096
X150892Y1587
X150432Y2540
X149892Y1587
X149352Y2159
X148892Y1587
X148082Y28208
X147186Y20356
X150400Y20352
X148336Y2159
X147955Y25671
X146797Y19749
X153866Y1582
X147130Y2159
X148807Y37846
X152374Y37846
X154041Y34290
X154041Y33020
X153584Y6563
X152527Y5507
X154041Y13208
X153289Y13208
X154041Y7810
X146495Y1651
X146018Y2127
X154813Y1397
X149352Y9144
X149507Y13017
X153226Y25908
X152845Y32321
X152845Y33020
X150178Y17145
X150178Y15875
X150178Y14605
X151130Y8382
X147557Y28829
X147867Y20356
X151003Y29527
X150559Y30480
X165799Y4890
X164592Y2159
X159068Y1587
X159798Y33433
X159729Y38545
X163867Y38545
X157401Y23495
X161798Y24060
X157401Y28829
X157734Y35560
X157401Y29845
X163513Y28638
X159687Y24384
X164275Y23241
X157401Y19304
X157401Y18225
X157719Y4255
X157655Y2731
X165164Y35560
X166561Y40069
X157099Y39116
X165910Y2223
X161989Y3746
X158513Y26860
X159798Y32099
X161798Y36068
X157401Y8128
X157401Y12319
X157401Y14478
X160782Y30480
X162751Y21527
X162560Y19939
X157401Y33433
X163957Y34163
X160401Y11684
X164084Y11684
X164148Y20003
X160401Y9906
X164084Y9906
X162052Y16510
X162052Y15240
X164640Y26670
X164592Y17526
X159830Y7810
X164640Y29908
X163497Y6794
X164048Y1587
X163576Y2096
X163068Y1587
X162560Y2096
X162068Y1587
X161608Y2540
X161068Y1587
X160528Y2159
X160068Y1587
X159258Y28208
X158362Y20356
X161576Y20352
X159512Y2159
X159131Y25671
X157973Y19749
X165042Y1582
X158306Y2159
X159983Y37846
X163550Y37846
X165217Y34290
X165217Y33020
X164760Y6563
X163703Y5507
X165217Y13208
X164465Y13208
X165217Y7810
X157671Y1651
X157194Y2127
X165989Y1397
X160528Y9144
X160683Y13017
X164402Y25908
X164021Y32321
X164021Y33020
X161354Y17145
X161354Y15875
X161354Y14605
X162306Y8382
X158733Y28829
X159043Y20356
X162179Y29527
X161735Y30480
X176974Y4890
X175768Y2159
X170244Y1587
X170974Y33433
X170905Y38545
X175043Y38545
X168577Y23495
X172974Y24060
X168577Y28829
X168910Y35560
X168577Y29845
X174689Y28638
X170863Y24384
X175450Y23241
X168577Y19304
X168577Y18225
X168895Y4255
X168831Y2731
X176339Y35560
X177736Y40069
X168275Y39116
X177086Y2223
X173165Y3746
X169689Y26860
X170974Y32099
X172974Y36068
X168577Y8128
X168577Y12319
X168577Y14478
X171958Y30480
X173927Y21527
X173736Y19939
X168577Y33433
X175133Y34163
X171577Y11684
X175260Y11684
X175323Y20003
X171577Y9906
X175260Y9906
X173228Y16510
X173228Y15240
X175816Y26670
X175768Y17526
X171006Y7810
X175816Y29908
X174673Y6794
X175224Y1587
X174752Y2096
X174244Y1587
X173736Y2096
X173244Y1587
X172784Y2540
X172244Y1587
X171704Y2159
X171244Y1587
X170434Y28208
X169538Y20356
X172752Y20352
X170688Y2159
X170307Y25671
X169149Y19749
X176218Y1582
X169482Y2159
X171159Y37846
X174726Y37846
X176393Y34290
X176393Y33020
X175936Y6563
X174879Y5507
X176393Y13208
X175641Y13208
X176393Y7810
X168847Y1651
X168370Y2127
X177165Y1397
X171704Y9144
X171859Y13017
X175577Y25908
X175196Y32321
X175196Y33020
X172530Y17145
X172530Y15875
X172530Y14605
X173482Y8382
X169909Y28829
X170219Y20356
X173355Y29527
X172911Y30480
X9335Y46037
X8128Y43307
X2604Y42736
X3334Y74581
X3265Y79693
X7403Y79693
X937Y64643
X5334Y65208
X937Y69977
X1270Y76708
X937Y70993
X7048Y69787
X3223Y65532
X7810Y64389
X937Y60452
X937Y59372
X1255Y45402
X1191Y43878
X8700Y76708
X10097Y81217
X635Y80264
X9446Y43371
X5524Y44894
X2049Y68009
X3334Y73247
X5334Y77216
X937Y49276
X937Y53467
X937Y55626
X4318Y71628
X6286Y62674
X6096Y61087
X937Y74581
X7493Y75311
X3937Y52832
X7620Y52832
X7683Y61150
X3937Y51054
X7620Y51054
X5588Y57658
X5588Y56388
X8176Y67818
X8128Y58674
X3365Y48958
X8176Y71057
X7033Y47942
X7584Y42736
X7112Y43244
X6604Y42736
X6096Y43244
X5604Y42736
X5144Y43688
X4604Y42736
X4064Y43307
X3604Y42736
X2794Y69356
X1898Y61504
X5112Y61500
X3048Y43307
X2667Y66820
X1509Y60896
X8578Y42730
X1841Y43307
X3519Y78994
X7085Y78994
X8753Y75438
X8753Y74168
X8296Y47711
X7239Y46655
X8753Y54356
X8001Y54356
X8753Y48958
X1207Y42799
X730Y43275
X9525Y42545
X4064Y50292
X4219Y54165
X7937Y67056
X7556Y73470
X7556Y74168
X4890Y58293
X4890Y57023
X4890Y55753
X5842Y49530
X2269Y69977
X2579Y61504
X5715Y70676
X5271Y71628
X20511Y46037
X19304Y43307
X13779Y42736
X14510Y74581
X14441Y79693
X18579Y79693
X12113Y64643
X16510Y65208
X12113Y69977
X12446Y76708
X12113Y70993
X18225Y69787
X14399Y65532
X18987Y64389
X12113Y60452
X12113Y59372
X12431Y45402
X12367Y43878
X19876Y76708
X21273Y81217
X11811Y80264
X20622Y43371
X16701Y44894
X13225Y68009
X14510Y73247
X16510Y77216
X12113Y49276
X12113Y53467
X12113Y55626
X15494Y71628
X17463Y62674
X17272Y61087
X12113Y74581
X18669Y75311
X15113Y52832
X18796Y52832
X18860Y61150
X15113Y51054
X18796Y51054
X16764Y57658
X16764Y56388
X19352Y67818
X19304Y58674
X14541Y48958
X19352Y71057
X18209Y47942
X18760Y42736
X18288Y43244
X17780Y42736
X17272Y43244
X16780Y42736
X16319Y43688
X15780Y42736
X15240Y43307
X14780Y42736
X13970Y69356
X13074Y61504
X16288Y61500
X14224Y43307
X13843Y66820
X12685Y60896
X19754Y42730
X13017Y43307
X14695Y78994
X18262Y78994
X19929Y75438
X19929Y74168
X19472Y47711
X18415Y46655
X19929Y54356
X19177Y54356
X19929Y48958
X12382Y42799
X11906Y43275
X20701Y42545
X15240Y50292
X15395Y54165
X19114Y67056
X18733Y73470
X18733Y74168
X16065Y58293
X16065Y57023
X16065Y55753
X17018Y49530
X13445Y69977
X13755Y61504
X16891Y70676
X16447Y71628
X31686Y46037
X30480Y43307
X24955Y42736
X25686Y74581
X25617Y79693
X29755Y79693
X23289Y64643
X27686Y65208
X23289Y69977
X23622Y76708
X23289Y70993
X29400Y69787
X25575Y65532
X30162Y64389
X23289Y60452
X23289Y59372
X23607Y45402
X23543Y43878
X31051Y76708
X32448Y81217
X22987Y80264
X31798Y43371
X27876Y44894
X24401Y68009
X25686Y73247
X27686Y77216
X23289Y49276
X23289Y53467
X23289Y55626
X26670Y71628
X28638Y62674
X28448Y61087
X23289Y74581
X29845Y75311
X26289Y52832
X29972Y52832
X30035Y61150
X26289Y51054
X29972Y51054
X27940Y57658
X27940Y56388
X30528Y67818
X30480Y58674
X25717Y48958
X30528Y71057
X29385Y47942
X29936Y42736
X29464Y43244
X28956Y42736
X28448Y43244
X27956Y42736
X27495Y43688
X26956Y42736
X26416Y43307
X25956Y42736
X25146Y69356
X24250Y61504
X27464Y61500
X25400Y43307
X25019Y66820
X23861Y60896
X30930Y42730
X24193Y43307
X25871Y78994
X29437Y78994
X31105Y75438
X31105Y74168
X30648Y47711
X29591Y46655
X31105Y54356
X30353Y54356
X31105Y48958
X23558Y42799
X23082Y43275
X31877Y42545
X26416Y50292
X26571Y54165
X30289Y67056
X29908Y73470
X29908Y74168
X27241Y58293
X27241Y57023
X27241Y55753
X28194Y49530
X24621Y69977
X24931Y61504
X28067Y70676
X27622Y71628
X42863Y46037
X41656Y43307
X36132Y42736
X36862Y74581
X36793Y79693
X40931Y79693
X34465Y64643
X38862Y65208
X34465Y69977
X34798Y76708
X34465Y70993
X40577Y69787
X36751Y65532
X41339Y64389
X34465Y60452
X34465Y59372
X34783Y45402
X34719Y43878
X42228Y76708
X43625Y81217
X34163Y80264
X42974Y43371
X39053Y44894
X35577Y68009
X36862Y73247
X38862Y77216
X34465Y49276
X34465Y53467
X34465Y55626
X37846Y71628
X39815Y62674
X39624Y61087
X34465Y74581
X41021Y75311
X37465Y52832
X41148Y52832
X41212Y61150
X37465Y51054
X41148Y51054
X39116Y57658
X39116Y56388
X41704Y67818
X41656Y58674
X36894Y48958
X41704Y71057
X40561Y47942
X41112Y42736
X40640Y43244
X40132Y42736
X39624Y43244
X39132Y42736
X38672Y43688
X38132Y42736
X37592Y43307
X37132Y42736
X36322Y69356
X35426Y61504
X38640Y61500
X36576Y43307
X36195Y66820
X35037Y60896
X42106Y42730
X35370Y43307
X37047Y78994
X40614Y78994
X42281Y75438
X42281Y74168
X41824Y47711
X40767Y46655
X42281Y54356
X41529Y54356
X42281Y48958
X34735Y42799
X34258Y43275
X43053Y42545
X37592Y50292
X37747Y54165
X41466Y67056
X41085Y73470
X41085Y74168
X38418Y58293
X38418Y57023
X38418Y55753
X39370Y49530
X35797Y69977
X36107Y61504
X39243Y70676
X38799Y71628
X54038Y46037
X52832Y43307
X47307Y42736
X48038Y74581
X47969Y79693
X52107Y79693
X45641Y64643
X50038Y65208
X45641Y69977
X45974Y76708
X45641Y70993
X51752Y69787
X47927Y65532
X52514Y64389
X45641Y60452
X45641Y59372
X45959Y45402
X45895Y43878
X53403Y76708
X54800Y81217
X45339Y80264
X54150Y43371
X50228Y44894
X46753Y68009
X48038Y73247
X50038Y77216
X45641Y49276
X45641Y53467
X45641Y55626
X49022Y71628
X50990Y62674
X50800Y61087
X45641Y74581
X52197Y75311
X48641Y52832
X52324Y52832
X52387Y61150
X48641Y51054
X52324Y51054
X50292Y57658
X50292Y56388
X52880Y67818
X52832Y58674
X48069Y48958
X52880Y71057
X51737Y47942
X52288Y42736
X51816Y43244
X51308Y42736
X50800Y43244
X50308Y42736
X49847Y43688
X49308Y42736
X48768Y43307
X48308Y42736
X47498Y69356
X46602Y61504
X49816Y61500
X47752Y43307
X47371Y66820
X46213Y60896
X53282Y42730
X46545Y43307
X48223Y78994
X51789Y78994
X53457Y75438
X53457Y74168
X53000Y47711
X51943Y46655
X53457Y54356
X52705Y54356
X53457Y48958
X45910Y42799
X45434Y43275
X54229Y42545
X48768Y50292
X48923Y54165
X52641Y67056
X52260Y73470
X52260Y74168
X49593Y58293
X49593Y57023
X49593Y55753
X50546Y49530
X46973Y69977
X47283Y61504
X50419Y70676
X49974Y71628
X65214Y46037
X64008Y43307
X58483Y42736
X59214Y74581
X59145Y79693
X63283Y79693
X56817Y64643
X61214Y65208
X56817Y69977
X57150Y76708
X56817Y70993
X62928Y69787
X59103Y65532
X63690Y64389
X56817Y60452
X56817Y59372
X57135Y45402
X57071Y43878
X64579Y76708
X65977Y81217
X56515Y80264
X65326Y43371
X61404Y44894
X57929Y68009
X59214Y73247
X61214Y77216
X56817Y49276
X56817Y53467
X56817Y55626
X60198Y71628
X62166Y62674
X61976Y61087
X56817Y74581
X63373Y75311
X59817Y52832
X63500Y52832
X63563Y61150
X59817Y51054
X63500Y51054
X61468Y57658
X61468Y56388
X64056Y67818
X64008Y58674
X59245Y48958
X64056Y71057
X62913Y47942
X63464Y42736
X62992Y43244
X62484Y42736
X61976Y43244
X61484Y42736
X61023Y43688
X60484Y42736
X59944Y43307
X59484Y42736
X58674Y69356
X57778Y61504
X60992Y61500
X58928Y43307
X58547Y66820
X57389Y60896
X64458Y42730
X57721Y43307
X59399Y78994
X62965Y78994
X64633Y75438
X64633Y74168
X64176Y47711
X63119Y46655
X64633Y54356
X63881Y54356
X64633Y48958
X57086Y42799
X56610Y43275
X65405Y42545
X59944Y50292
X60099Y54165
X63817Y67056
X63436Y73470
X63436Y74168
X60769Y58293
X60769Y57023
X60769Y55753
X61722Y49530
X58149Y69977
X58459Y61504
X61595Y70676
X61150Y71628
X76391Y46037
X75184Y43307
X69660Y42736
X70390Y74581
X70321Y79693
X74459Y79693
X67993Y64643
X72390Y65208
X67993Y69977
X68326Y76708
X67993Y70993
X74105Y69787
X70279Y65532
X74867Y64389
X67993Y60452
X67993Y59372
X68311Y45402
X68247Y43878
X75756Y76708
X77153Y81217
X67691Y80264
X76502Y43371
X72581Y44894
X69105Y68009
X70390Y73247
X72390Y77216
X67993Y49276
X67993Y53467
X67993Y55626
X71374Y71628
X73343Y62674
X73152Y61087
X67993Y74581
X74549Y75311
X70993Y52832
X74676Y52832
X74740Y61150
X70993Y51054
X74676Y51054
X72644Y57658
X72644Y56388
X75232Y67818
X75184Y58674
X70422Y48958
X75232Y71057
X74089Y47942
X74640Y42736
X74168Y43244
X73660Y42736
X73152Y43244
X72660Y42736
X72200Y43688
X71660Y42736
X71120Y43307
X70660Y42736
X69850Y69356
X68954Y61504
X72168Y61500
X70104Y43307
X69723Y66820
X68565Y60896
X75634Y42730
X68898Y43307
X70575Y78994
X74142Y78994
X75809Y75438
X75809Y74168
X75352Y47711
X74295Y46655
X75809Y54356
X75057Y54356
X75809Y48958
X68263Y42799
X67786Y43275
X76581Y42545
X71120Y50292
X71275Y54165
X74994Y67056
X74613Y73470
X74613Y74168
X71946Y58293
X71946Y57023
X71946Y55753
X72898Y49530
X69325Y69977
X69635Y61504
X72771Y70676
X72327Y71628
X87566Y46037
X86360Y43307
X80836Y42736
X81566Y74581
X81497Y79693
X85635Y79693
X79169Y64643
X83566Y65208
X79169Y69977
X79502Y76708
X79169Y70993
X85281Y69787
X81455Y65532
X86043Y64389
X79169Y60452
X79169Y59372
X79487Y45402
X79423Y43878
X86932Y76708
X88328Y81217
X78867Y80264
X87678Y43371
X83757Y44894
X80281Y68009
X81566Y73247
X83566Y77216
X79169Y49276
X79169Y53467
X79169Y55626
X82550Y71628
X84519Y62674
X84328Y61087
X79169Y74581
X85725Y75311
X82169Y52832
X85852Y52832
X85916Y61150
X82169Y51054
X85852Y51054
X83820Y57658
X83820Y56388
X86408Y67818
X86360Y58674
X81598Y48958
X86408Y71057
X85265Y47942
X85816Y42736
X85344Y43244
X84836Y42736
X84328Y43244
X83836Y42736
X83376Y43688
X82836Y42736
X82296Y43307
X81836Y42736
X81026Y69356
X80130Y61504
X83344Y61500
X81280Y43307
X80899Y66820
X79741Y60896
X86810Y42730
X80074Y43307
X81751Y78994
X85318Y78994
X86985Y75438
X86985Y74168
X86528Y47711
X85471Y46655
X86985Y54356
X86233Y54356
X86985Y48958
X79439Y42799
X78962Y43275
X87757Y42545
X82296Y50292
X82451Y54165
X86170Y67056
X85789Y73470
X85789Y74168
X83122Y58293
X83122Y57023
X83122Y55753
X84074Y49530
X80501Y69977
X80811Y61504
X83947Y70676
X83503Y71628
X98742Y46037
X97536Y43307
X92011Y42736
X92742Y74581
X92673Y79693
X96811Y79693
X90345Y64643
X94742Y65208
X90345Y69977
X90678Y76708
X90345Y70993
X96456Y69787
X92631Y65532
X97218Y64389
X90345Y60452
X90345Y59372
X90663Y45402
X90599Y43878
X98107Y76708
X99504Y81217
X90043Y80264
X98854Y43371
X94932Y44894
X91457Y68009
X92742Y73247
X94742Y77216
X90345Y49276
X90345Y53467
X90345Y55626
X93726Y71628
X95694Y62674
X95504Y61087
X90345Y74581
X96901Y75311
X93345Y52832
X97028Y52832
X97091Y61150
X93345Y51054
X97028Y51054
X94996Y57658
X94996Y56388
X97584Y67818
X97536Y58674
X92773Y48958
X97584Y71057
X96441Y47942
X96992Y42736
X96520Y43244
X96012Y42736
X95504Y43244
X95012Y42736
X94551Y43688
X94012Y42736
X93472Y43307
X93012Y42736
X92202Y69356
X91306Y61504
X94520Y61500
X92456Y43307
X92075Y66820
X90917Y60896
X97986Y42730
X91249Y43307
X92927Y78994
X96493Y78994
X98161Y75438
X98161Y74168
X97704Y47711
X96647Y46655
X98161Y54356
X97409Y54356
X98161Y48958
X90614Y42799
X90138Y43275
X98933Y42545
X93472Y50292
X93627Y54165
X97345Y67056
X96964Y73470
X96964Y74168
X94297Y58293
X94297Y57023
X94297Y55753
X95250Y49530
X91677Y69977
X91987Y61504
X95123Y70676
X94678Y71628
X109918Y46037
X108712Y43307
X103187Y42736
X103918Y74581
X103849Y79693
X107987Y79693
X101521Y64643
X105918Y65208
X101521Y69977
X101854Y76708
X101521Y70993
X107632Y69787
X103807Y65532
X108394Y64389
X101521Y60452
X101521Y59372
X101839Y45402
X101775Y43878
X109283Y76708
X110680Y81217
X101219Y80264
X110030Y43371
X106108Y44894
X102633Y68009
X103918Y73247
X105918Y77216
X101521Y49276
X101521Y53467
X101521Y55626
X104902Y71628
X106870Y62674
X106680Y61087
X101521Y74581
X108077Y75311
X104521Y52832
X108204Y52832
X108267Y61150
X104521Y51054
X108204Y51054
X106172Y57658
X106172Y56388
X108760Y67818
X108712Y58674
X103949Y48958
X108760Y71057
X107617Y47942
X108168Y42736
X107696Y43244
X107188Y42736
X106680Y43244
X106188Y42736
X105727Y43688
X105188Y42736
X104648Y43307
X104188Y42736
X103378Y69356
X102482Y61504
X105696Y61500
X103632Y43307
X103251Y66820
X102093Y60896
X109162Y42730
X102425Y43307
X104103Y78994
X107669Y78994
X109337Y75438
X109337Y74168
X108880Y47711
X107823Y46655
X109337Y54356
X108585Y54356
X109337Y48958
X101790Y42799
X101314Y43275
X110109Y42545
X104648Y50292
X104803Y54165
X108521Y67056
X108140Y73470
X108140Y74168
X105473Y58293
X105473Y57023
X105473Y55753
X106426Y49530
X102853Y69977
X103163Y61504
X106299Y70676
X105854Y71628
X121094Y46037
X119888Y43307
X114363Y42736
X115094Y74581
X115025Y79693
X119163Y79693
X112697Y64643
X117094Y65208
X112697Y69977
X113030Y76708
X112697Y70993
X118808Y69787
X114983Y65532
X119570Y64389
X112697Y60452
X112697Y59372
X113015Y45402
X112951Y43878
X120459Y76708
X121856Y81217
X112395Y80264
X121206Y43371
X117284Y44894
X113809Y68009
X115094Y73247
X117094Y77216
X112697Y49276
X112697Y53467
X112697Y55626
X116078Y71628
X118046Y62674
X117856Y61087
X112697Y74581
X119253Y75311
X115697Y52832
X119380Y52832
X119443Y61150
X115697Y51054
X119380Y51054
X117348Y57658
X117348Y56388
X119936Y67818
X119888Y58674
X115125Y48958
X119936Y71057
X118793Y47942
X119344Y42736
X118872Y43244
X118364Y42736
X117856Y43244
X117364Y42736
X116903Y43688
X116364Y42736
X115824Y43307
X115364Y42736
X114554Y69356
X113658Y61504
X116872Y61500
X114808Y43307
X114427Y66820
X113269Y60896
X120338Y42730
X113601Y43307
X115279Y78994
X118845Y78994
X120513Y75438
X120513Y74168
X120056Y47711
X118999Y46655
X120513Y54356
X119761Y54356
X120513Y48958
X112966Y42799
X112490Y43275
X121285Y42545
X115824Y50292
X115979Y54165
X119697Y67056
X119316Y73470
X119316Y74168
X116649Y58293
X116649Y57023
X116649Y55753
X117602Y49530
X114029Y69977
X114339Y61504
X117475Y70676
X117030Y71628
X132271Y46037
X131064Y43307
X125539Y42736
X126270Y74581
X126201Y79693
X130339Y79693
X123873Y64643
X128270Y65208
X123873Y69977
X124206Y76708
X123873Y70993
X129984Y69787
X126159Y65532
X130746Y64389
X123873Y60452
X123873Y59372
X124191Y45402
X124127Y43878
X131636Y76708
X133033Y81217
X123571Y80264
X132382Y43371
X128460Y44894
X124985Y68009
X126270Y73247
X128270Y77216
X123873Y49276
X123873Y53467
X123873Y55626
X127254Y71628
X129222Y62674
X129032Y61087
X123873Y74581
X130429Y75311
X126873Y52832
X130556Y52832
X130619Y61150
X126873Y51054
X130556Y51054
X128524Y57658
X128524Y56388
X131112Y67818
X131064Y58674
X126301Y48958
X131112Y71057
X129969Y47942
X130520Y42736
X130048Y43244
X129540Y42736
X129032Y43244
X128540Y42736
X128079Y43688
X127540Y42736
X127000Y43307
X126540Y42736
X125730Y69356
X124834Y61504
X128048Y61500
X125984Y43307
X125603Y66820
X124445Y60896
X131514Y42730
X124777Y43307
X126455Y78994
X130021Y78994
X131689Y75438
X131689Y74168
X131232Y47711
X130175Y46655
X131689Y54356
X130937Y54356
X131689Y48958
X124142Y42799
X123666Y43275
X132461Y42545
X127000Y50292
X127155Y54165
X130873Y67056
X130492Y73470
X130492Y74168
X127825Y58293
X127825Y57023
X127825Y55753
X128778Y49530
X125205Y69977
X125515Y61504
X128651Y70676
X128206Y71628
X143447Y46037
X142240Y43307
X136716Y42736
X137446Y74581
X137377Y79693
X141515Y79693
X135049Y64643
X139446Y65208
X135049Y69977
X135382Y76708
X135049Y70993
X141161Y69787
X137335Y65532
X141923Y64389
X135049Y60452
X135049Y59372
X135367Y45402
X135303Y43878
X142812Y76708
X144209Y81217
X134747Y80264
X143558Y43371
X139637Y44894
X136161Y68009
X137446Y73247
X139446Y77216
X135049Y49276
X135049Y53467
X135049Y55626
X138430Y71628
X140399Y62674
X140208Y61087
X135049Y74581
X141605Y75311
X138049Y52832
X141732Y52832
X141796Y61150
X138049Y51054
X141732Y51054
X139700Y57658
X139700Y56388
X142288Y67818
X142240Y58674
X137478Y48958
X142288Y71057
X141145Y47942
X141696Y42736
X141224Y43244
X140716Y42736
X140208Y43244
X139716Y42736
X139256Y43688
X138716Y42736
X138176Y43307
X137716Y42736
X136906Y69356
X136010Y61504
X139224Y61500
X137160Y43307
X136779Y66820
X135621Y60896
X142690Y42730
X135954Y43307
X137631Y78994
X141198Y78994
X142865Y75438
X142865Y74168
X142408Y47711
X141351Y46655
X142865Y54356
X142113Y54356
X142865Y48958
X135319Y42799
X134842Y43275
X143637Y42545
X138176Y50292
X138331Y54165
X142050Y67056
X141669Y73470
X141669Y74168
X139002Y58293
X139002Y57023
X139002Y55753
X139954Y49530
X136381Y69977
X136691Y61504
X139827Y70676
X139383Y71628
X154623Y46037
X153416Y43307
X147892Y42736
X148622Y74581
X148553Y79693
X152691Y79693
X146225Y64643
X150622Y65208
X146225Y69977
X146558Y76708
X146225Y70993
X152337Y69787
X148511Y65532
X153099Y64389
X146225Y60452
X146225Y59372
X146543Y45402
X146479Y43878
X153988Y76708
X155385Y81217
X145923Y80264
X154734Y43371
X150813Y44894
X147337Y68009
X148622Y73247
X150622Y77216
X146225Y49276
X146225Y53467
X146225Y55626
X149606Y71628
X151575Y62674
X151384Y61087
X146225Y74581
X152781Y75311
X149225Y52832
X152908Y52832
X152972Y61150
X149225Y51054
X152908Y51054
X150876Y57658
X150876Y56388
X153464Y67818
X153416Y58674
X148654Y48958
X153464Y71057
X152321Y47942
X152872Y42736
X152400Y43244
X151892Y42736
X151384Y43244
X150892Y42736
X150432Y43688
X149892Y42736
X149352Y43307
X148892Y42736
X148082Y69356
X147186Y61504
X150400Y61500
X148336Y43307
X147955Y66820
X146797Y60896
X153866Y42730
X147130Y43307
X148807Y78994
X152374Y78994
X154041Y75438
X154041Y74168
X153584Y47711
X152527Y46655
X154041Y54356
X153289Y54356
X154041Y48958
X146495Y42799
X146018Y43275
X154813Y42545
X149352Y50292
X149507Y54165
X153226Y67056
X152845Y73470
X152845Y74168
X150178Y58293
X150178Y57023
X150178Y55753
X151130Y49530
X147557Y69977
X147867Y61504
X151003Y70676
X150559Y71628
X165799Y46037
X164592Y43307
X159068Y42736
X159798Y74581
X159729Y79693
X163867Y79693
X157401Y64643
X161798Y65208
X157401Y69977
X157734Y76708
X157401Y70993
X163513Y69787
X159687Y65532
X164275Y64389
X157401Y60452
X157401Y59372
X157719Y45402
X157655Y43878
X165164Y76708
X166561Y81217
X157099Y80264
X165910Y43371
X161989Y44894
X158513Y68009
X159798Y73247
X161798Y77216
X157401Y49276
X157401Y53467
X157401Y55626
X160782Y71628
X162751Y62674
X162560Y61087
X157401Y74581
X163957Y75311
X160401Y52832
X164084Y52832
X164148Y61150
X160401Y51054
X164084Y51054
X162052Y57658
X162052Y56388
X164640Y67818
X164592Y58674
X159830Y48958
X164640Y71057
X163497Y47942
X164048Y42736
X163576Y43244
X163068Y42736
X162560Y43244
X162068Y42736
X161608Y43688
X161068Y42736
X160528Y43307
X160068Y42736
X159258Y69356
X158362Y61504
X161576Y61500
X159512Y43307
X159131Y66820
X157973Y60896
X165042Y42730
X158306Y43307
X159983Y78994
X163550Y78994
X165217Y75438
X165217Y74168
X164760Y47711
X163703Y46655
X165217Y54356
X164465Y54356
X165217Y48958
X157671Y42799
X157194Y43275
X165989Y42545
X160528Y50292
X160683Y54165
X164402Y67056
X164021Y73470
X164021Y74168
X161354Y58293
X161354Y57023
X161354Y55753
X162306Y49530
X158733Y69977
X159043Y61504
X162179Y70676
X161735Y71628
X176974Y46037
X175768Y43307
X170244Y42736
X170974Y74581
X170905Y79693
X175043Y79693
X168577Y64643
X172974Y65208
X168577Y69977
X168910Y76708
X168577Y70993
X174689Y69787
X170863Y65532
X175450Y64389
X168577Y60452
X168577Y59372
X168895Y45402
X168831Y43878
X176339Y76708
X177736Y81217
X168275Y80264
X177086Y43371
X173165Y44894
X169689Y68009
X170974Y73247
X172974Y77216
X168577Y49276
X168577Y53467
X168577Y55626
X171958Y71628
X173927Y62674
X173736Y61087
X168577Y74581
X175133Y75311
X171577Y52832
X175260Y52832
X175323Y61150
X171577Y51054
X175260Y51054
X173228Y57658
X173228Y56388
X175816Y67818
X175768Y58674
X171006Y48958
X175816Y71057
X174673Y47942
X175224Y42736
X174752Y43244
X174244Y42736
X173736Y43244
X173244Y42736
X172784Y43688
X172244Y42736
X171704Y43307
X171244Y42736
X170434Y69356
X169538Y61504
X172752Y61500
X170688Y43307
X170307Y66820
X169149Y60896
X176218Y42730
X169482Y43307
X171159Y78994
X174726Y78994
X176393Y75438
X176393Y74168
X175936Y47711
X174879Y46655
X176393Y54356
X175641Y54356
X176393Y48958
X168847Y42799
X168370Y43275
X177165Y42545
X171704Y50292
X171859Y54165
X175577Y67056
X175196Y73470
X175196Y74168
X172530Y58293
X172530Y57023
X172530Y55753
X173482Y49530
X169909Y69977
X170219Y61504
X173355Y70676
X172911Y71628
X9335Y87186
X8128Y84455
X2604Y83884
X3334Y115729
X3265Y120840
X7403Y120840
X937Y105791
X5334Y106356
X937Y111125
X1270Y117856
X937Y112141
X7048Y110934
X3223Y106680
X7810Y105537
X937Y101600
X937Y100520
X1255Y86551
X1191Y85027
X8700Y117856
X10097Y122364
X635Y121412
X9446Y84519
X5524Y86043
X2049Y109156
X3334Y114395
X5334Y118364
X937Y90424
X937Y94615
X937Y96774
X4318Y112776
X6286Y103822
X6096Y102235
X937Y115729
X7493Y116459
X3937Y93980
X7620Y93980
X7683Y102298
X3937Y92202
X7620Y92202
X5588Y98806
X5588Y97536
X8176Y108966
X8128Y99822
X3365Y90106
X8176Y112204
X7033Y89090
X7584Y83884
X7112Y84392
X6604Y83884
X6096Y84392
X5604Y83884
X5144Y84836
X4604Y83884
X4064Y84455
X3604Y83884
X2794Y110504
X1898Y102652
X5112Y102648
X3048Y84455
X2667Y107967
X1509Y102044
X8578Y83878
X1841Y84455
X3519Y120142
X7085Y120142
X8753Y116586
X8753Y115316
X8296Y88859
X7239Y87803
X8753Y95504
X8001Y95504
X8753Y90106
X1207Y83947
X730Y84423
X9525Y83693
X4064Y91440
X4219Y95313
X7937Y108204
X7556Y114617
X7556Y115316
X4890Y99441
X4890Y98171
X4890Y96901
X5842Y90678
X2269Y111125
X2579Y102652
X5715Y111823
X5271Y112776
X20511Y87186
X19304Y84455
X13779Y83884
X14510Y115729
X14441Y120840
X18579Y120840
X12113Y105791
X16510Y106356
X12113Y111125
X12446Y117856
X12113Y112141
X18225Y110934
X14399Y106680
X18987Y105537
X12113Y101600
X12113Y100520
X12431Y86551
X12367Y85027
X19876Y117856
X21273Y122364
X11811Y121412
X20622Y84519
X16701Y86043
X13225Y109156
X14510Y114395
X16510Y118364
X12113Y90424
X12113Y94615
X12113Y96774
X15494Y112776
X17463Y103822
X17272Y102235
X12113Y115729
X18669Y116459
X15113Y93980
X18796Y93980
X18860Y102298
X15113Y92202
X18796Y92202
X16764Y98806
X16764Y97536
X19352Y108966
X19304Y99822
X14541Y90106
X19352Y112204
X18209Y89090
X18760Y83884
X18288Y84392
X17780Y83884
X17272Y84392
X16780Y83884
X16319Y84836
X15780Y83884
X15240Y84455
X14780Y83884
X13970Y110504
X13074Y102652
X16288Y102648
X14224Y84455
X13843Y107967
X12685Y102044
X19754Y83878
X13017Y84455
X14695Y120142
X18262Y120142
X19929Y116586
X19929Y115316
X19472Y88859
X18415Y87803
X19929Y95504
X19177Y95504
X19929Y90106
X12382Y83947
X11906Y84423
X20701Y83693
X15240Y91440
X15395Y95313
X19114Y108204
X18733Y114617
X18733Y115316
X16065Y99441
X16065Y98171
X16065Y96901
X17018Y90678
X13445Y111125
X13755Y102652
X16891Y111823
X16447Y112776
X31686Y87186
X30480Y84455
X24955Y83884
X25686Y115729
X25617Y120840
X29755Y120840
X23289Y105791
X27686Y106356
X23289Y111125
X23622Y117856
X23289Y112141
X29400Y110934
X25575Y106680
X30162Y105537
X23289Y101600
X23289Y100520
X23607Y86551
X23543Y85027
X31051Y117856
X32448Y122364
X22987Y121412
X31798Y84519
X27876Y86043
X24401Y109156
X25686Y114395
X27686Y118364
X23289Y90424
X23289Y94615
X23289Y96774
X26670Y112776
X28638Y103822
X28448Y102235
X23289Y115729
X29845Y116459
X26289Y93980
X29972Y93980
X30035Y102298
X26289Y92202
X29972Y92202
X27940Y98806
X27940Y97536
X30528Y108966
X30480Y99822
X25717Y90106
X30528Y112204
X29385Y89090
X29936Y83884
X29464Y84392
X28956Y83884
X28448Y84392
X27956Y83884
X27495Y84836
X26956Y83884
X26416Y84455
X25956Y83884
X25146Y110504
X24250Y102652
X27464Y102648
X25400Y84455
X25019Y107967
X23861Y102044
X30930Y83878
X24193Y84455
X25871Y120142
X29437Y120142
X31105Y116586
X31105Y115316
X30648Y88859
X29591Y87803
X31105Y95504
X30353Y95504
X31105Y90106
X23558Y83947
X23082Y84423
X31877Y83693
X26416Y91440
X26571Y95313
X30289Y108204
X29908Y114617
X29908Y115316
X27241Y99441
X27241Y98171
X27241Y96901
X28194Y90678
X24621Y111125
X24931Y102652
X28067Y111823
X27622Y112776
X42863Y87186
X41656Y84455
X36132Y83884
X36862Y115729
X36793Y120840
X40931Y120840
X34465Y105791
X38862Y106356
X34465Y111125
X34798Y117856
X34465Y112141
X40577Y110934
X36751Y106680
X41339Y105537
X34465Y101600
X34465Y100520
X34783Y86551
X34719Y85027
X42228Y117856
X43625Y122364
X34163Y121412
X42974Y84519
X39053Y86043
X35577Y109156
X36862Y114395
X38862Y118364
X34465Y90424
X34465Y94615
X34465Y96774
X37846Y112776
X39815Y103822
X39624Y102235
X34465Y115729
X41021Y116459
X37465Y93980
X41148Y93980
X41212Y102298
X37465Y92202
X41148Y92202
X39116Y98806
X39116Y97536
X41704Y108966
X41656Y99822
X36894Y90106
X41704Y112204
X40561Y89090
X41112Y83884
X40640Y84392
X40132Y83884
X39624Y84392
X39132Y83884
X38672Y84836
X38132Y83884
X37592Y84455
X37132Y83884
X36322Y110504
X35426Y102652
X38640Y102648
X36576Y84455
X36195Y107967
X35037Y102044
X42106Y83878
X35370Y84455
X37047Y120142
X40614Y120142
X42281Y116586
X42281Y115316
X41824Y88859
X40767Y87803
X42281Y95504
X41529Y95504
X42281Y90106
X34735Y83947
X34258Y84423
X43053Y83693
X37592Y91440
X37747Y95313
X41466Y108204
X41085Y114617
X41085Y115316
X38418Y99441
X38418Y98171
X38418Y96901
X39370Y90678
X35797Y111125
X36107Y102652
X39243Y111823
X38799Y112776
X54038Y87186
X52832Y84455
X47307Y83884
X48038Y115729
X47969Y120840
X52107Y120840
X45641Y105791
X50038Y106356
X45641Y111125
X45974Y117856
X45641Y112141
X51752Y110934
X47927Y106680
X52514Y105537
X45641Y101600
X45641Y100520
X45959Y86551
X45895Y85027
X53403Y117856
X54800Y122364
X45339Y121412
X54150Y84519
X50228Y86043
X46753Y109156
X48038Y114395
X50038Y118364
X45641Y90424
X45641Y94615
X45641Y96774
X49022Y112776
X50990Y103822
X50800Y102235
X45641Y115729
X52197Y116459
X48641Y93980
X52324Y93980
X52387Y102298
X48641Y92202
X52324Y92202
X50292Y98806
X50292Y97536
X52880Y108966
X52832Y99822
X48069Y90106
X52880Y112204
X51737Y89090
X52288Y83884
X51816Y84392
X51308Y83884
X50800Y84392
X50308Y83884
X49847Y84836
X49308Y83884
X48768Y84455
X48308Y83884
X47498Y110504
X46602Y102652
X49816Y102648
X47752Y84455
X47371Y107967
X46213Y102044
X53282Y83878
X46545Y84455
X48223Y120142
X51789Y120142
X53457Y116586
X53457Y115316
X53000Y88859
X51943Y87803
X53457Y95504
X52705Y95504
X53457Y90106
X45910Y83947
X45434Y84423
X54229Y83693
X48768Y91440
X48923Y95313
X52641Y108204
X52260Y114617
X52260Y115316
X49593Y99441
X49593Y98171
X49593Y96901
X50546Y90678
X46973Y111125
X47283Y102652
X50419Y111823
X49974Y112776
X65214Y87186
X64008Y84455
X58483Y83884
X59214Y115729
X59145Y120840
X63283Y120840
X56817Y105791
X61214Y106356
X56817Y111125
X57150Y117856
X56817Y112141
X62928Y110934
X59103Y106680
X63690Y105537
X56817Y101600
X56817Y100520
X57135Y86551
X57071Y85027
X64579Y117856
X65977Y122364
X56515Y121412
X65326Y84519
X61404Y86043
X57929Y109156
X59214Y114395
X61214Y118364
X56817Y90424
X56817Y94615
X56817Y96774
X60198Y112776
X62166Y103822
X61976Y102235
X56817Y115729
X63373Y116459
X59817Y93980
X63500Y93980
X63563Y102298
X59817Y92202
X63500Y92202
X61468Y98806
X61468Y97536
X64056Y108966
X64008Y99822
X59245Y90106
X64056Y112204
X62913Y89090
X63464Y83884
X62992Y84392
X62484Y83884
X61976Y84392
X61484Y83884
X61023Y84836
X60484Y83884
X59944Y84455
X59484Y83884
X58674Y110504
X57778Y102652
X60992Y102648
X58928Y84455
X58547Y107967
X57389Y102044
X64458Y83878
X57721Y84455
X59399Y120142
X62965Y120142
X64633Y116586
X64633Y115316
X64176Y88859
X63119Y87803
X64633Y95504
X63881Y95504
X64633Y90106
X57086Y83947
X56610Y84423
X65405Y83693
X59944Y91440
X60099Y95313
X63817Y108204
X63436Y114617
X63436Y115316
X60769Y99441
X60769Y98171
X60769Y96901
X61722Y90678
X58149Y111125
X58459Y102652
X61595Y111823
X61150Y112776
X76391Y87186
X75184Y84455
X69660Y83884
X70390Y115729
X70321Y120840
X74459Y120840
X67993Y105791
X72390Y106356
X67993Y111125
X68326Y117856
X67993Y112141
X74105Y110934
X70279Y106680
X74867Y105537
X67993Y101600
X67993Y100520
X68311Y86551
X68247Y85027
X75756Y117856
X77153Y122364
X67691Y121412
X76502Y84519
X72581Y86043
X69105Y109156
X70390Y114395
X72390Y118364
X67993Y90424
X67993Y94615
X67993Y96774
X71374Y112776
X73343Y103822
X73152Y102235
X67993Y115729
X74549Y116459
X70993Y93980
X74676Y93980
X74740Y102298
X70993Y92202
X74676Y92202
X9335Y4890
X72644Y97536
X75232Y108966
X75184Y99822
X70422Y90106
X75232Y112204
X74089Y89090
X74640Y83884
X74168Y84392
X73660Y83884
X73152Y84392
X72660Y83884
X72200Y84836
X71660Y83884
X71120Y84455
X70660Y83884
X69850Y110504
X68954Y102652
X72168Y102648
X70104Y84455
X69723Y107967
X68565Y102044
X75634Y83878
X68898Y84455
X70575Y120142
X74142Y120142
X75809Y116586
X75809Y115316
X75352Y88859
X74295Y87803
X75809Y95504
X75057Y95504
X75809Y90106
X68263Y83947
X67786Y84423
X76581Y83693
X71120Y91440
X71275Y95313
X74994Y108204
X74613Y114617
X74613Y115316
X71946Y99441
X71946Y98171
X71946Y96901
X72898Y90678
X69325Y111125
X69635Y102652
X72771Y111823
X72327Y112776
X87566Y87186
X86360Y84455
X80836Y83884
X81566Y115729
X81497Y120840
X85635Y120840
X79169Y105791
X83566Y106356
X79169Y111125
X79502Y117856
X79169Y112141
X85281Y110934
X81455Y106680
X86043Y105537
X79169Y101600
X79169Y100520
X79487Y86551
X79423Y85027
X86932Y117856
X88328Y122364
X78867Y121412
X87678Y84519
X83757Y86043
X80281Y109156
X81566Y114395
X83566Y118364
X79169Y90424
X79169Y94615
X79169Y96774
X82550Y112776
X84519Y103822
X84328Y102235
X79169Y115729
X85725Y116459
X82169Y93980
X85852Y93980
X85916Y102298
X82169Y92202
X85852Y92202
X83820Y98806
X83820Y97536
X86408Y108966
X86360Y99822
X81598Y90106
X86408Y112204
X85265Y89090
X85816Y83884
X85344Y84392
X84836Y83884
X84328Y84392
X83836Y83884
X83376Y84836
X82836Y83884
X82296Y84455
X81836Y83884
X81026Y110504
X80130Y102652
X83344Y102648
X81280Y84455
X80899Y107967
X79741Y102044
X86810Y83878
X80074Y84455
X81751Y120142
X85318Y120142
X86985Y116586
X86985Y115316
X86528Y88859
X85471Y87803
X86985Y95504
X86233Y95504
X86985Y90106
X79439Y83947
X78962Y84423
X87757Y83693
X82296Y91440
X82451Y95313
X86170Y108204
X85789Y114617
X85789Y115316
X83122Y99441
X83122Y98171
X83122Y96901
X84074Y90678
X80501Y111125
X80811Y102652
X83947Y111823
X83503Y112776
X98742Y87186
X97536Y84455
X92011Y83884
X92742Y115729
X92673Y120840
X96811Y120840
X90345Y105791
X94742Y106356
X90345Y111125
X90678Y117856
X90345Y112141
X96456Y110934
X92631Y106680
X97218Y105537
X90345Y101600
X90345Y100520
X90663Y86551
X90599Y85027
X98107Y117856
X99504Y122364
X90043Y121412
X98854Y84519
X94932Y86043
X91457Y109156
X92742Y114395
X94742Y118364
X90345Y90424
X90345Y94615
X90345Y96774
X93726Y112776
X95694Y103822
X95504Y102235
X90345Y115729
X96901Y116459
X93345Y93980
X97028Y93980
X97091Y102298
X93345Y92202
X97028Y92202
X94996Y98806
X94996Y97536
X97584Y108966
X97536Y99822
X92773Y90106
X97584Y112204
X96441Y89090
X96992Y83884
X96520Y84392
X96012Y83884
X95504Y84392
X95012Y83884
X94551Y84836
X94012Y83884
X93472Y84455
X93012Y83884
X92202Y110504
X91306Y102652
X94520Y102648
X92456Y84455
X92075Y107967
X90917Y102044
X97986Y83878
X91249Y84455
X92927Y120142
X96493Y120142
X98161Y116586
X98161Y115316
X97704Y88859
X96647Y87803
X98161Y95504
X97409Y95504
X98161Y90106
X90614Y83947
X90138Y84423
X98933Y83693
X93472Y91440
X93627Y95313
X97345Y108204
X96964Y114617
X96964Y115316
X94297Y99441
X94297Y98171
X94297Y96901
X95250Y90678
X91677Y111125
X91987Y102652
X95123Y111823
X94678Y112776
X109918Y87186
X108712Y84455
X103187Y83884
X103918Y115729
X103849Y120840
X107987Y120840
X101521Y105791
X105918Y106356
X101521Y111125
X101854Y117856
X101521Y112141
X107632Y110934
X103807Y106680
X108394Y105537
X101521Y101600
X101521Y100520
X101839Y86551
X101775Y85027
X109283Y117856
X110680Y122364
X101219Y121412
X110030Y84519
X106108Y86043
X102633Y109156
X103918Y114395
X105918Y118364
X101521Y90424
X101521Y94615
X101521Y96774
X104902Y112776
X106870Y103822
X106680Y102235
X101521Y115729
X108077Y116459
X104521Y93980
X108204Y93980
X108267Y102298
X104521Y92202
X108204Y92202
X106172Y98806
X106172Y97536
X108760Y108966
X108712Y99822
X103949Y90106
X108760Y112204
X107617Y89090
X108168Y83884
X107696Y84392
X107188Y83884
X106680Y84392
X106188Y83884
X105727Y84836
X105188Y83884
X104648Y84455
X104188Y83884
X103378Y110504
X102482Y102652
X105696Y102648
X103632Y84455
X103251Y107967
X102093Y102044
X109162Y83878
X102425Y84455
X104103Y120142
X107669Y120142
X109337Y116586
X109337Y115316
X108880Y88859
X107823Y87803
X109337Y95504
X108585Y95504
X109337Y90106
X101790Y83947
X101314Y84423
X110109Y83693
X104648Y91440
X104803Y95313
X108521Y108204
X108140Y114617
X108140Y115316
X105473Y99441
X105473Y98171
X105473Y96901
X106426Y90678
X102853Y111125
X103163Y102652
X106299Y111823
X105854Y112776
X121094Y87186
X119888Y84455
X114363Y83884
X115094Y115729
X115025Y120840
X119163Y120840
X112697Y105791
X117094Y106356
X112697Y111125
X113030Y117856
X112697Y112141
X118808Y110934
X114983Y106680
X119570Y105537
X112697Y101600
X112697Y100520
X113015Y86551
X112951Y85027
X120459Y117856
X121856Y122364
X112395Y121412
X121206Y84519
X117284Y86043
X113809Y109156
X115094Y114395
X117094Y118364
X112697Y90424
X112697Y94615
X112697Y96774
X116078Y112776
X118046Y103822
X117856Y102235
X112697Y115729
X119253Y116459
X115697Y93980
X119380Y93980
X119443Y102298
X115697Y92202
X119380Y92202
X117348Y98806
X117348Y97536
X119936Y108966
X119888Y99822
X115125Y90106
X119936Y112204
X118793Y89090
X119344Y83884
X118872Y84392
X118364Y83884
X117856Y84392
X117364Y83884
X116903Y84836
X116364Y83884
X115824Y84455
X115364Y83884
X114554Y110504
X113658Y102652
X116872Y102648
X114808Y84455
X114427Y107967
X113269Y102044
X120338Y83878
X113601Y84455
X115279Y120142
X118845Y120142
X120513Y116586
X120513Y115316
X120056Y88859
X118999Y87803
X120513Y95504
X119761Y95504
X120513Y90106
X112966Y83947
X112490Y84423
X121285Y83693
X115824Y91440
X115979Y95313
X119697Y108204
X119316Y114617
X119316Y115316
X116649Y99441
X116649Y98171
X116649Y96901
X117602Y90678
X114029Y111125
X114339Y102652
X117475Y111823
X117030Y112776
X132271Y87186
X131064Y84455
X125539Y83884
X126270Y115729
X126201Y120840
X130339Y120840
X123873Y105791
X128270Y106356
X123873Y111125
X124206Y117856
X123873Y112141
X129984Y110934
X126159Y106680
X130746Y105537
X123873Y101600
X123873Y100520
X124191Y86551
X124127Y85027
X131636Y117856
X133033Y122364
X123571Y121412
X132382Y84519
X128460Y86043
X124985Y109156
X126270Y114395
X128270Y118364
X123873Y90424
X123873Y94615
X123873Y96774
X127254Y112776
X129222Y103822
X129032Y102235
X123873Y115729
X130429Y116459
X126873Y93980
X130556Y93980
X130619Y102298
X126873Y92202
X130556Y92202
X128524Y98806
X128524Y97536
X131112Y108966
X131064Y99822
X126301Y90106
X131112Y112204
X129969Y89090
X130520Y83884
X130048Y84392
X129540Y83884
X129032Y84392
X128540Y83884
X128079Y84836
X127540Y83884
X127000Y84455
X126540Y83884
X125730Y110504
X124834Y102652
X128048Y102648
X125984Y84455
X125603Y107967
X124445Y102044
X131514Y83878
X124777Y84455
X126455Y120142
X130021Y120142
X131689Y116586
X131689Y115316
X131232Y88859
X130175Y87803
X131689Y95504
X130937Y95504
X131689Y90106
X124142Y83947
X123666Y84423
X132461Y83693
X127000Y91440
X127155Y95313
X130873Y108204
X130492Y114617
X130492Y115316
X127825Y99441
X127825Y98171
X127825Y96901
X128778Y90678
X125205Y111125
X125515Y102652
X128651Y111823
X128206Y112776
X143447Y87186
X142240Y84455
X136716Y83884
X137446Y115729
X137377Y120840
X141515Y120840
X135049Y105791
X139446Y106356
X135049Y111125
X135382Y117856
X135049Y112141
X141161Y110934
X137335Y106680
X141923Y105537
X135049Y101600
X135049Y100520
X135367Y86551
X135303Y85027
X142812Y117856
X144209Y122364
X134747Y121412
X143558Y84519
X139637Y86043
X136161Y109156
X137446Y114395
X139446Y118364
X135049Y90424
X135049Y94615
X135049Y96774
X138430Y112776
X140399Y103822
X140208Y102235
X135049Y115729
X141605Y116459
X138049Y93980
X141732Y93980
X141796Y102298
X138049Y92202
X141732Y92202
X139700Y98806
X139700Y97536
X142288Y108966
X142240Y99822
X137478Y90106
X142288Y112204
X141145Y89090
X141696Y83884
X141224Y84392
X140716Y83884
X140208Y84392
X139716Y83884
X139256Y84836
X138716Y83884
X138176Y84455
X137716Y83884
X136906Y110504
X136010Y102652
X139224Y102648
X137160Y84455
X136779Y107967
X135621Y102044
X142690Y83878
X135954Y84455
X137631Y120142
X141198Y120142
X142865Y116586
X142865Y115316
X142408Y88859
X141351Y87803
X142865Y95504
X142113Y95504
X142865Y90106
X135319Y83947
X134842Y84423
X143637Y83693
X72644Y98806
X138331Y95313
X142050Y108204
X141669Y114617
X141669Y115316
X139002Y99441
X139002Y98171
X139002Y96901
X139954Y90678
X136381Y111125
X136691Y102652
X139827Y111823
X139383Y112776
X154623Y87186
X153416Y84455
X147892Y83884
X148622Y115729
X148553Y120840
X152691Y120840
X146225Y105791
X150622Y106356
X146225Y111125
X146558Y117856
X146225Y112141
X152337Y110934
X148511Y106680
X153099Y105537
X146225Y101600
X146225Y100520
X146543Y86551
X146479Y85027
X153988Y117856
X155385Y122364
X145923Y121412
X154734Y84519
X150813Y86043
X147337Y109156
X148622Y114395
X150622Y118364
X146225Y90424
X146225Y94615
X146225Y96774
X149606Y112776
X151575Y103822
X151384Y102235
X146225Y115729
X152781Y116459
X149225Y93980
X152908Y93980
X152972Y102298
X149225Y92202
X152908Y92202
X150876Y98806
X150876Y97536
X153464Y108966
X153416Y99822
X148654Y90106
X153464Y112204
X152321Y89090
X152872Y83884
X152400Y84392
X151892Y83884
X151384Y84392
X150892Y83884
X150432Y84836
X149892Y83884
X149352Y84455
X148892Y83884
X148082Y110504
X147186Y102652
X150400Y102648
X148336Y84455
X147955Y107967
X146797Y102044
X153866Y83878
X147130Y84455
X148807Y120142
X152374Y120142
X154041Y116586
X154041Y115316
X153584Y88859
X152527Y87803
X154041Y95504
X153289Y95504
X154041Y90106
X146495Y83947
X146018Y84423
X154813Y83693
X149352Y91440
X149507Y95313
X153226Y108204
X152845Y114617
X152845Y115316
X150178Y99441
X150178Y98171
X150178Y96901
X151130Y90678
X147557Y111125
X147867Y102652
X151003Y111823
X150559Y112776
X165799Y87186
X164592Y84455
X159068Y83884
X159798Y115729
X159729Y120840
X163867Y120840
X157401Y105791
X161798Y106356
X157401Y111125
X157734Y117856
X157401Y112141
X163513Y110934
X159687Y106680
X164275Y105537
X157401Y101600
X157401Y100520
X157719Y86551
X157655Y85027
X165164Y117856
X166561Y122364
X157099Y121412
X165910Y84519
X161989Y86043
X158513Y109156
X159798Y114395
X161798Y118364
X157401Y90424
X157401Y94615
X157401Y96774
X160782Y112776
X162751Y103822
X162560Y102235
X157401Y115729
X163957Y116459
X160401Y93980
X164084Y93980
X164148Y102298
X160401Y92202
X164084Y92202
X162052Y98806
X162052Y97536
X164640Y108966
X164592Y99822
X159830Y90106
X164640Y112204
X163497Y89090
X164048Y83884
X163576Y84392
X163068Y83884
X162560Y84392
X162068Y83884
X161608Y84836
X161068Y83884
X160528Y84455
X160068Y83884
X159258Y110504
X158362Y102652
X161576Y102648
X159512Y84455
X159131Y107967
X157973Y102044
X165042Y83878
X158306Y84455
X159983Y120142
X163550Y120142
X165217Y116586
X165217Y115316
X164760Y88859
X163703Y87803
X165217Y95504
X164465Y95504
X165217Y90106
X157671Y83947
X157194Y84423
X165989Y83693
X160528Y91440
X160683Y95313
X164402Y108204
X164021Y114617
X164021Y115316
X161354Y99441
X161354Y98171
X161354Y96901
X162306Y90678
X158733Y111125
X159043Y102652
X162179Y111823
X161735Y112776
X176974Y87186
X175768Y84455
X170244Y83884
X170974Y115729
X170905Y120840
X175043Y120840
X168577Y105791
X172974Y106356
X168577Y111125
X168910Y117856
X168577Y112141
X174689Y110934
X170863Y106680
X175450Y105537
X168577Y101600
X168577Y100520
X168895Y86551
X168831Y85027
X176339Y117856
X177736Y122364
X168275Y121412
X177086Y84519
X173165Y86043
X169689Y109156
X170974Y114395
X172974Y118364
X168577Y90424
X168577Y94615
X168577Y96774
X171958Y112776
X173927Y103822
X173736Y102235
X168577Y115729
X175133Y116459
X171577Y93980
X175260Y93980
X175323Y102298
X171577Y92202
X175260Y92202
X173228Y98806
X173228Y97536
X175816Y108966
X175768Y99822
X171006Y90106
X175816Y112204
X174673Y89090
X175224Y83884
X174752Y84392
X174244Y83884
X173736Y84392
X173244Y83884
X172784Y84836
X172244Y83884
X171704Y84455
X171244Y83884
X170434Y110504
X169538Y102652
X172752Y102648
X170688Y84455
X170307Y107967
X169149Y102044
X176218Y83878
X169482Y84455
X171159Y120142
X174726Y120142
X176393Y116586
X176393Y115316
X175936Y88859
X174879Y87803
X176393Y95504
X175641Y95504
X176393Y90106
X168847Y83947
X168370Y84423
X177165Y83693
X171704Y91440
X171859Y95313
X175577Y108204
X175196Y114617
X175196Y115316
X172530Y99441
X172530Y98171
X172530Y96901
X173482Y90678
X169909Y111125
X170219Y102652
X173355Y111823
X172911Y112776
X8128Y2159
X2604Y1587
X3334Y33433
X3265Y38545
X7403Y38545
X937Y23495
X5334Y24060
X937Y28829
X1270Y35560
X937Y29845
X7048Y28638
X3223Y24384
X7810Y23241
X937Y19304
X937Y18225
X1255Y4255
X1191Y2731
X8700Y35560
X10097Y40069
X635Y39116
X9446Y2223
X5524Y3746
X2049Y26860
X3334Y32099
X5334Y36068
X937Y8128
X937Y12319
X937Y14478
X4318Y30480
X6286Y21527
X6096Y19939
X937Y33433
X7493Y34163
X3937Y11684
X7620Y11684
X7683Y20003
X3937Y9906
X7620Y9906
X5588Y16510
X5588Y15240
X8176Y26670
X8128Y17526
X3365Y7810
X8176Y29908
X7033Y6794
X7584Y1587
X7112Y2096
X6604Y1587
X6096Y2096
X5604Y1587
X5144Y2540
X4604Y1587
X4064Y2159
X3604Y1587
X2794Y28208
X1898Y20356
X5112Y20352
X3048Y2159
X2667Y25671
X1509Y19749
X8578Y1582
X1841Y2159
X3519Y37846
X7085Y37846
X8753Y34290
X8753Y33020
X8296Y6563
X7239Y5507
X8753Y13208
X8001Y13208
X8753Y7810
X1207Y1651
X730Y2127
X9525Y1397
X4064Y9144
X4219Y13017
X7937Y25908
X7556Y32321
X7556Y33020
X4890Y17145
X4890Y15875
X4890Y14605
X5842Y8382
X2269Y28829
X2579Y20356
X5715Y29527
X5271Y30480
X20511Y4890
X19304Y2159
X13779Y1587
X14510Y33433
X14441Y38545
X18579Y38545
X12113Y23495
X16510Y24060
X12113Y28829
X12446Y35560
X12113Y29845
X18225Y28638
X14399Y24384
X18987Y23241
X12113Y19304
X12113Y18225
X12431Y4255
X12367Y2731
X19876Y35560
X21273Y40069
X11811Y39116
X20622Y2223
X16701Y3746
X13225Y26860
X14510Y32099
X16510Y36068
X12113Y8128
X12113Y12319
X12113Y14478
X15494Y30480
X17463Y21527
X17272Y19939
X12113Y33433
X18669Y34163
X15113Y11684
X18796Y11684
X18860Y20003
X15113Y9906
X18796Y9906
X16764Y16510
X16764Y15240
X19352Y26670
X19304Y17526
X14541Y7810
X19352Y29908
X18209Y6794
X18760Y1587
X18288Y2096
X17780Y1587
X17272Y2096
X16780Y1587
X16319Y2540
X15780Y1587
X15240Y2159
X14780Y1587
X13970Y28208
X13074Y20356
X16288Y20352
X14224Y2159
X13843Y25671
X12685Y19749
X19754Y1582
X13017Y2159
X14695Y37846
X18262Y37846
X19929Y34290
X19929Y33020
X19472Y6563
X18415Y5507
X19929Y13208
X19177Y13208
X19929Y7810
X12382Y1651
X11906Y2127
X20701Y1397
X15240Y9144
X15395Y13017
X19114Y25908
X18733Y32321
X18733Y33020
X16065Y17145
X16065Y15875
X16065Y14605
X17018Y8382
X13445Y28829
X13755Y20356
X16891Y29527
X16447Y30480
X31686Y4890
X30480Y2159
X24955Y1587
X25686Y33433
X25617Y38545
X29755Y38545
X23289Y23495
X27686Y24060
X23289Y28829
X23622Y35560
X23289Y29845
X29400Y28638
X25575Y24384
X30162Y23241
X23289Y19304
X23289Y18225
X23607Y4255
X23543Y2731
X31051Y35560
X32448Y40069
X22987Y39116
X31798Y2223
X27876Y3746
X24401Y26860
X25686Y32099
X27686Y36068
X23289Y8128
X23289Y12319
X23289Y14478
X26670Y30480
X28638Y21527
X28448Y19939
X23289Y33433
X29845Y34163
X26289Y11684
X29972Y11684
X30035Y20003
X26289Y9906
X29972Y9906
X27940Y16510
X27940Y15240
X30528Y26670
X30480Y17526
X25717Y7810
X30528Y29908
X29385Y6794
X29936Y1587
X29464Y2096
X28956Y1587
X28448Y2096
X27956Y1587
X27495Y2540
X26956Y1587
X26416Y2159
X25956Y1587
X25146Y28208
X24250Y20356
X27464Y20352
X25400Y2159
X25019Y25671
X23861Y19749
X30930Y1582
X24193Y2159
X25871Y37846
X29437Y37846
X31105Y34290
X31105Y33020
X30648Y6563
X29591Y5507
X31105Y13208
X30353Y13208
X31105Y7810
X23558Y1651
X23082Y2127
X31877Y1397
X26416Y9144
X26571Y13017
X30289Y25908
X29908Y32321
X29908Y33020
X27241Y17145
X27241Y15875
X27241Y14605
X28194Y8382
X24621Y28829
X24931Y20356
X28067Y29527
X27622Y30480
X42863Y4890
X41656Y2159
X36132Y1587
X36862Y33433
X36793Y38545
X40931Y38545
X34465Y23495
X38862Y24060
X34465Y28829
X34798Y35560
X34465Y29845
X40577Y28638
X36751Y24384
X41339Y23241
X34465Y19304
X34465Y18225
X34783Y4255
X34719Y2731
X42228Y35560
X43625Y40069
X34163Y39116
X42974Y2223
X39053Y3746
X35577Y26860
X138176Y91440
M30