G04 EAGLE Gerber RS-274X export*
G75*
%MOMM*%
%FSLAX34Y34*%
%LPD*%
%INSolderpaste Bottom*%
%IPPOS*%
%AMOC8*
5,1,8,0,0,1.08239X$1,22.5*%
G01*
%ADD10C,0.100000*%
%ADD11R,0.250000X0.650000*%


D10*
X99340Y377445D02*
X102340Y377445D01*
X102340Y370445D01*
X99340Y370445D01*
X99340Y377445D01*
X99340Y371395D02*
X102340Y371395D01*
X102340Y372345D02*
X99340Y372345D01*
X99340Y373295D02*
X102340Y373295D01*
X102340Y374245D02*
X99340Y374245D01*
X99340Y375195D02*
X102340Y375195D01*
X102340Y376145D02*
X99340Y376145D01*
X99340Y377095D02*
X102340Y377095D01*
D11*
X90840Y398945D03*
X85840Y398945D03*
D10*
X7340Y377445D02*
X4340Y377445D01*
X7340Y377445D02*
X7340Y370445D01*
X4340Y370445D01*
X4340Y377445D01*
X4340Y371395D02*
X7340Y371395D01*
X7340Y372345D02*
X4340Y372345D01*
X4340Y373295D02*
X7340Y373295D01*
X7340Y374245D02*
X4340Y374245D01*
X4340Y375195D02*
X7340Y375195D01*
X7340Y376145D02*
X4340Y376145D01*
X4340Y377095D02*
X7340Y377095D01*
D11*
X80840Y398945D03*
X75840Y398945D03*
X70840Y398945D03*
X65840Y398945D03*
X60840Y398945D03*
X55840Y398945D03*
X50840Y398945D03*
X45840Y398945D03*
X40840Y398945D03*
X35840Y398945D03*
X30840Y398945D03*
X25840Y398945D03*
X20840Y398945D03*
X15840Y398945D03*
D10*
X211100Y377445D02*
X214100Y377445D01*
X214100Y370445D01*
X211100Y370445D01*
X211100Y377445D01*
X211100Y371395D02*
X214100Y371395D01*
X214100Y372345D02*
X211100Y372345D01*
X211100Y373295D02*
X214100Y373295D01*
X214100Y374245D02*
X211100Y374245D01*
X211100Y375195D02*
X214100Y375195D01*
X214100Y376145D02*
X211100Y376145D01*
X211100Y377095D02*
X214100Y377095D01*
D11*
X202600Y398945D03*
X197600Y398945D03*
D10*
X119100Y377445D02*
X116100Y377445D01*
X119100Y377445D02*
X119100Y370445D01*
X116100Y370445D01*
X116100Y377445D01*
X116100Y371395D02*
X119100Y371395D01*
X119100Y372345D02*
X116100Y372345D01*
X116100Y373295D02*
X119100Y373295D01*
X119100Y374245D02*
X116100Y374245D01*
X116100Y375195D02*
X119100Y375195D01*
X119100Y376145D02*
X116100Y376145D01*
X116100Y377095D02*
X119100Y377095D01*
D11*
X192600Y398945D03*
X187600Y398945D03*
X182600Y398945D03*
X177600Y398945D03*
X172600Y398945D03*
X167600Y398945D03*
X162600Y398945D03*
X157600Y398945D03*
X152600Y398945D03*
X147600Y398945D03*
X142600Y398945D03*
X137600Y398945D03*
X132600Y398945D03*
X127600Y398945D03*
D10*
X322860Y377445D02*
X325860Y377445D01*
X325860Y370445D01*
X322860Y370445D01*
X322860Y377445D01*
X322860Y371395D02*
X325860Y371395D01*
X325860Y372345D02*
X322860Y372345D01*
X322860Y373295D02*
X325860Y373295D01*
X325860Y374245D02*
X322860Y374245D01*
X322860Y375195D02*
X325860Y375195D01*
X325860Y376145D02*
X322860Y376145D01*
X322860Y377095D02*
X325860Y377095D01*
D11*
X314360Y398945D03*
X309360Y398945D03*
D10*
X230860Y377445D02*
X227860Y377445D01*
X230860Y377445D02*
X230860Y370445D01*
X227860Y370445D01*
X227860Y377445D01*
X227860Y371395D02*
X230860Y371395D01*
X230860Y372345D02*
X227860Y372345D01*
X227860Y373295D02*
X230860Y373295D01*
X230860Y374245D02*
X227860Y374245D01*
X227860Y375195D02*
X230860Y375195D01*
X230860Y376145D02*
X227860Y376145D01*
X227860Y377095D02*
X230860Y377095D01*
D11*
X304360Y398945D03*
X299360Y398945D03*
X294360Y398945D03*
X289360Y398945D03*
X284360Y398945D03*
X279360Y398945D03*
X274360Y398945D03*
X269360Y398945D03*
X264360Y398945D03*
X259360Y398945D03*
X254360Y398945D03*
X249360Y398945D03*
X244360Y398945D03*
X239360Y398945D03*
D10*
X434620Y377445D02*
X437620Y377445D01*
X437620Y370445D01*
X434620Y370445D01*
X434620Y377445D01*
X434620Y371395D02*
X437620Y371395D01*
X437620Y372345D02*
X434620Y372345D01*
X434620Y373295D02*
X437620Y373295D01*
X437620Y374245D02*
X434620Y374245D01*
X434620Y375195D02*
X437620Y375195D01*
X437620Y376145D02*
X434620Y376145D01*
X434620Y377095D02*
X437620Y377095D01*
D11*
X426120Y398945D03*
X421120Y398945D03*
D10*
X342620Y377445D02*
X339620Y377445D01*
X342620Y377445D02*
X342620Y370445D01*
X339620Y370445D01*
X339620Y377445D01*
X339620Y371395D02*
X342620Y371395D01*
X342620Y372345D02*
X339620Y372345D01*
X339620Y373295D02*
X342620Y373295D01*
X342620Y374245D02*
X339620Y374245D01*
X339620Y375195D02*
X342620Y375195D01*
X342620Y376145D02*
X339620Y376145D01*
X339620Y377095D02*
X342620Y377095D01*
D11*
X416120Y398945D03*
X411120Y398945D03*
X406120Y398945D03*
X401120Y398945D03*
X396120Y398945D03*
X391120Y398945D03*
X386120Y398945D03*
X381120Y398945D03*
X376120Y398945D03*
X371120Y398945D03*
X366120Y398945D03*
X361120Y398945D03*
X356120Y398945D03*
X351120Y398945D03*
D10*
X546380Y377445D02*
X549380Y377445D01*
X549380Y370445D01*
X546380Y370445D01*
X546380Y377445D01*
X546380Y371395D02*
X549380Y371395D01*
X549380Y372345D02*
X546380Y372345D01*
X546380Y373295D02*
X549380Y373295D01*
X549380Y374245D02*
X546380Y374245D01*
X546380Y375195D02*
X549380Y375195D01*
X549380Y376145D02*
X546380Y376145D01*
X546380Y377095D02*
X549380Y377095D01*
D11*
X537880Y398945D03*
X532880Y398945D03*
D10*
X454380Y377445D02*
X451380Y377445D01*
X454380Y377445D02*
X454380Y370445D01*
X451380Y370445D01*
X451380Y377445D01*
X451380Y371395D02*
X454380Y371395D01*
X454380Y372345D02*
X451380Y372345D01*
X451380Y373295D02*
X454380Y373295D01*
X454380Y374245D02*
X451380Y374245D01*
X451380Y375195D02*
X454380Y375195D01*
X454380Y376145D02*
X451380Y376145D01*
X451380Y377095D02*
X454380Y377095D01*
D11*
X527880Y398945D03*
X522880Y398945D03*
X517880Y398945D03*
X512880Y398945D03*
X507880Y398945D03*
X502880Y398945D03*
X497880Y398945D03*
X492880Y398945D03*
X487880Y398945D03*
X482880Y398945D03*
X477880Y398945D03*
X472880Y398945D03*
X467880Y398945D03*
X462880Y398945D03*
D10*
X658140Y377445D02*
X661140Y377445D01*
X661140Y370445D01*
X658140Y370445D01*
X658140Y377445D01*
X658140Y371395D02*
X661140Y371395D01*
X661140Y372345D02*
X658140Y372345D01*
X658140Y373295D02*
X661140Y373295D01*
X661140Y374245D02*
X658140Y374245D01*
X658140Y375195D02*
X661140Y375195D01*
X661140Y376145D02*
X658140Y376145D01*
X658140Y377095D02*
X661140Y377095D01*
D11*
X649640Y398945D03*
X644640Y398945D03*
D10*
X566140Y377445D02*
X563140Y377445D01*
X566140Y377445D02*
X566140Y370445D01*
X563140Y370445D01*
X563140Y377445D01*
X563140Y371395D02*
X566140Y371395D01*
X566140Y372345D02*
X563140Y372345D01*
X563140Y373295D02*
X566140Y373295D01*
X566140Y374245D02*
X563140Y374245D01*
X563140Y375195D02*
X566140Y375195D01*
X566140Y376145D02*
X563140Y376145D01*
X563140Y377095D02*
X566140Y377095D01*
D11*
X639640Y398945D03*
X634640Y398945D03*
X629640Y398945D03*
X624640Y398945D03*
X619640Y398945D03*
X614640Y398945D03*
X609640Y398945D03*
X604640Y398945D03*
X599640Y398945D03*
X594640Y398945D03*
X589640Y398945D03*
X584640Y398945D03*
X579640Y398945D03*
X574640Y398945D03*
D10*
X769900Y377445D02*
X772900Y377445D01*
X772900Y370445D01*
X769900Y370445D01*
X769900Y377445D01*
X769900Y371395D02*
X772900Y371395D01*
X772900Y372345D02*
X769900Y372345D01*
X769900Y373295D02*
X772900Y373295D01*
X772900Y374245D02*
X769900Y374245D01*
X769900Y375195D02*
X772900Y375195D01*
X772900Y376145D02*
X769900Y376145D01*
X769900Y377095D02*
X772900Y377095D01*
D11*
X761400Y398945D03*
X756400Y398945D03*
D10*
X677900Y377445D02*
X674900Y377445D01*
X677900Y377445D02*
X677900Y370445D01*
X674900Y370445D01*
X674900Y377445D01*
X674900Y371395D02*
X677900Y371395D01*
X677900Y372345D02*
X674900Y372345D01*
X674900Y373295D02*
X677900Y373295D01*
X677900Y374245D02*
X674900Y374245D01*
X674900Y375195D02*
X677900Y375195D01*
X677900Y376145D02*
X674900Y376145D01*
X674900Y377095D02*
X677900Y377095D01*
D11*
X751400Y398945D03*
X746400Y398945D03*
X741400Y398945D03*
X736400Y398945D03*
X731400Y398945D03*
X726400Y398945D03*
X721400Y398945D03*
X716400Y398945D03*
X711400Y398945D03*
X706400Y398945D03*
X701400Y398945D03*
X696400Y398945D03*
X691400Y398945D03*
X686400Y398945D03*
D10*
X881660Y377445D02*
X884660Y377445D01*
X884660Y370445D01*
X881660Y370445D01*
X881660Y377445D01*
X881660Y371395D02*
X884660Y371395D01*
X884660Y372345D02*
X881660Y372345D01*
X881660Y373295D02*
X884660Y373295D01*
X884660Y374245D02*
X881660Y374245D01*
X881660Y375195D02*
X884660Y375195D01*
X884660Y376145D02*
X881660Y376145D01*
X881660Y377095D02*
X884660Y377095D01*
D11*
X873160Y398945D03*
X868160Y398945D03*
D10*
X789660Y377445D02*
X786660Y377445D01*
X789660Y377445D02*
X789660Y370445D01*
X786660Y370445D01*
X786660Y377445D01*
X786660Y371395D02*
X789660Y371395D01*
X789660Y372345D02*
X786660Y372345D01*
X786660Y373295D02*
X789660Y373295D01*
X789660Y374245D02*
X786660Y374245D01*
X786660Y375195D02*
X789660Y375195D01*
X789660Y376145D02*
X786660Y376145D01*
X786660Y377095D02*
X789660Y377095D01*
D11*
X863160Y398945D03*
X858160Y398945D03*
X853160Y398945D03*
X848160Y398945D03*
X843160Y398945D03*
X838160Y398945D03*
X833160Y398945D03*
X828160Y398945D03*
X823160Y398945D03*
X818160Y398945D03*
X813160Y398945D03*
X808160Y398945D03*
X803160Y398945D03*
X798160Y398945D03*
D10*
X993420Y377445D02*
X996420Y377445D01*
X996420Y370445D01*
X993420Y370445D01*
X993420Y377445D01*
X993420Y371395D02*
X996420Y371395D01*
X996420Y372345D02*
X993420Y372345D01*
X993420Y373295D02*
X996420Y373295D01*
X996420Y374245D02*
X993420Y374245D01*
X993420Y375195D02*
X996420Y375195D01*
X996420Y376145D02*
X993420Y376145D01*
X993420Y377095D02*
X996420Y377095D01*
D11*
X984920Y398945D03*
X979920Y398945D03*
D10*
X901420Y377445D02*
X898420Y377445D01*
X901420Y377445D02*
X901420Y370445D01*
X898420Y370445D01*
X898420Y377445D01*
X898420Y371395D02*
X901420Y371395D01*
X901420Y372345D02*
X898420Y372345D01*
X898420Y373295D02*
X901420Y373295D01*
X901420Y374245D02*
X898420Y374245D01*
X898420Y375195D02*
X901420Y375195D01*
X901420Y376145D02*
X898420Y376145D01*
X898420Y377095D02*
X901420Y377095D01*
D11*
X974920Y398945D03*
X969920Y398945D03*
X964920Y398945D03*
X959920Y398945D03*
X954920Y398945D03*
X949920Y398945D03*
X944920Y398945D03*
X939920Y398945D03*
X934920Y398945D03*
X929920Y398945D03*
X924920Y398945D03*
X919920Y398945D03*
X914920Y398945D03*
X909920Y398945D03*
D10*
X1105180Y377445D02*
X1108180Y377445D01*
X1108180Y370445D01*
X1105180Y370445D01*
X1105180Y377445D01*
X1105180Y371395D02*
X1108180Y371395D01*
X1108180Y372345D02*
X1105180Y372345D01*
X1105180Y373295D02*
X1108180Y373295D01*
X1108180Y374245D02*
X1105180Y374245D01*
X1105180Y375195D02*
X1108180Y375195D01*
X1108180Y376145D02*
X1105180Y376145D01*
X1105180Y377095D02*
X1108180Y377095D01*
D11*
X1096680Y398945D03*
X1091680Y398945D03*
D10*
X1013180Y377445D02*
X1010180Y377445D01*
X1013180Y377445D02*
X1013180Y370445D01*
X1010180Y370445D01*
X1010180Y377445D01*
X1010180Y371395D02*
X1013180Y371395D01*
X1013180Y372345D02*
X1010180Y372345D01*
X1010180Y373295D02*
X1013180Y373295D01*
X1013180Y374245D02*
X1010180Y374245D01*
X1010180Y375195D02*
X1013180Y375195D01*
X1013180Y376145D02*
X1010180Y376145D01*
X1010180Y377095D02*
X1013180Y377095D01*
D11*
X1086680Y398945D03*
X1081680Y398945D03*
X1076680Y398945D03*
X1071680Y398945D03*
X1066680Y398945D03*
X1061680Y398945D03*
X1056680Y398945D03*
X1051680Y398945D03*
X1046680Y398945D03*
X1041680Y398945D03*
X1036680Y398945D03*
X1031680Y398945D03*
X1026680Y398945D03*
X1021680Y398945D03*
D10*
X1216940Y377445D02*
X1219940Y377445D01*
X1219940Y370445D01*
X1216940Y370445D01*
X1216940Y377445D01*
X1216940Y371395D02*
X1219940Y371395D01*
X1219940Y372345D02*
X1216940Y372345D01*
X1216940Y373295D02*
X1219940Y373295D01*
X1219940Y374245D02*
X1216940Y374245D01*
X1216940Y375195D02*
X1219940Y375195D01*
X1219940Y376145D02*
X1216940Y376145D01*
X1216940Y377095D02*
X1219940Y377095D01*
D11*
X1208440Y398945D03*
X1203440Y398945D03*
D10*
X1124940Y377445D02*
X1121940Y377445D01*
X1124940Y377445D02*
X1124940Y370445D01*
X1121940Y370445D01*
X1121940Y377445D01*
X1121940Y371395D02*
X1124940Y371395D01*
X1124940Y372345D02*
X1121940Y372345D01*
X1121940Y373295D02*
X1124940Y373295D01*
X1124940Y374245D02*
X1121940Y374245D01*
X1121940Y375195D02*
X1124940Y375195D01*
X1124940Y376145D02*
X1121940Y376145D01*
X1121940Y377095D02*
X1124940Y377095D01*
D11*
X1198440Y398945D03*
X1193440Y398945D03*
X1188440Y398945D03*
X1183440Y398945D03*
X1178440Y398945D03*
X1173440Y398945D03*
X1168440Y398945D03*
X1163440Y398945D03*
X1158440Y398945D03*
X1153440Y398945D03*
X1148440Y398945D03*
X1143440Y398945D03*
X1138440Y398945D03*
X1133440Y398945D03*
D10*
X1328700Y377445D02*
X1331700Y377445D01*
X1331700Y370445D01*
X1328700Y370445D01*
X1328700Y377445D01*
X1328700Y371395D02*
X1331700Y371395D01*
X1331700Y372345D02*
X1328700Y372345D01*
X1328700Y373295D02*
X1331700Y373295D01*
X1331700Y374245D02*
X1328700Y374245D01*
X1328700Y375195D02*
X1331700Y375195D01*
X1331700Y376145D02*
X1328700Y376145D01*
X1328700Y377095D02*
X1331700Y377095D01*
D11*
X1320200Y398945D03*
X1315200Y398945D03*
D10*
X1236700Y377445D02*
X1233700Y377445D01*
X1236700Y377445D02*
X1236700Y370445D01*
X1233700Y370445D01*
X1233700Y377445D01*
X1233700Y371395D02*
X1236700Y371395D01*
X1236700Y372345D02*
X1233700Y372345D01*
X1233700Y373295D02*
X1236700Y373295D01*
X1236700Y374245D02*
X1233700Y374245D01*
X1233700Y375195D02*
X1236700Y375195D01*
X1236700Y376145D02*
X1233700Y376145D01*
X1233700Y377095D02*
X1236700Y377095D01*
D11*
X1310200Y398945D03*
X1305200Y398945D03*
X1300200Y398945D03*
X1295200Y398945D03*
X1290200Y398945D03*
X1285200Y398945D03*
X1280200Y398945D03*
X1275200Y398945D03*
X1270200Y398945D03*
X1265200Y398945D03*
X1260200Y398945D03*
X1255200Y398945D03*
X1250200Y398945D03*
X1245200Y398945D03*
D10*
X1440460Y377445D02*
X1443460Y377445D01*
X1443460Y370445D01*
X1440460Y370445D01*
X1440460Y377445D01*
X1440460Y371395D02*
X1443460Y371395D01*
X1443460Y372345D02*
X1440460Y372345D01*
X1440460Y373295D02*
X1443460Y373295D01*
X1443460Y374245D02*
X1440460Y374245D01*
X1440460Y375195D02*
X1443460Y375195D01*
X1443460Y376145D02*
X1440460Y376145D01*
X1440460Y377095D02*
X1443460Y377095D01*
D11*
X1431960Y398945D03*
X1426960Y398945D03*
D10*
X1348460Y377445D02*
X1345460Y377445D01*
X1348460Y377445D02*
X1348460Y370445D01*
X1345460Y370445D01*
X1345460Y377445D01*
X1345460Y371395D02*
X1348460Y371395D01*
X1348460Y372345D02*
X1345460Y372345D01*
X1345460Y373295D02*
X1348460Y373295D01*
X1348460Y374245D02*
X1345460Y374245D01*
X1345460Y375195D02*
X1348460Y375195D01*
X1348460Y376145D02*
X1345460Y376145D01*
X1345460Y377095D02*
X1348460Y377095D01*
D11*
X1421960Y398945D03*
X1416960Y398945D03*
X1411960Y398945D03*
X1406960Y398945D03*
X1401960Y398945D03*
X1396960Y398945D03*
X1391960Y398945D03*
X1386960Y398945D03*
X1381960Y398945D03*
X1376960Y398945D03*
X1371960Y398945D03*
X1366960Y398945D03*
X1361960Y398945D03*
X1356960Y398945D03*
D10*
X1552220Y377445D02*
X1555220Y377445D01*
X1555220Y370445D01*
X1552220Y370445D01*
X1552220Y377445D01*
X1552220Y371395D02*
X1555220Y371395D01*
X1555220Y372345D02*
X1552220Y372345D01*
X1552220Y373295D02*
X1555220Y373295D01*
X1555220Y374245D02*
X1552220Y374245D01*
X1552220Y375195D02*
X1555220Y375195D01*
X1555220Y376145D02*
X1552220Y376145D01*
X1552220Y377095D02*
X1555220Y377095D01*
D11*
X1543720Y398945D03*
X1538720Y398945D03*
D10*
X1460220Y377445D02*
X1457220Y377445D01*
X1460220Y377445D02*
X1460220Y370445D01*
X1457220Y370445D01*
X1457220Y377445D01*
X1457220Y371395D02*
X1460220Y371395D01*
X1460220Y372345D02*
X1457220Y372345D01*
X1457220Y373295D02*
X1460220Y373295D01*
X1460220Y374245D02*
X1457220Y374245D01*
X1457220Y375195D02*
X1460220Y375195D01*
X1460220Y376145D02*
X1457220Y376145D01*
X1457220Y377095D02*
X1460220Y377095D01*
D11*
X1533720Y398945D03*
X1528720Y398945D03*
X1523720Y398945D03*
X1518720Y398945D03*
X1513720Y398945D03*
X1508720Y398945D03*
X1503720Y398945D03*
X1498720Y398945D03*
X1493720Y398945D03*
X1488720Y398945D03*
X1483720Y398945D03*
X1478720Y398945D03*
X1473720Y398945D03*
X1468720Y398945D03*
D10*
X1663980Y377445D02*
X1666980Y377445D01*
X1666980Y370445D01*
X1663980Y370445D01*
X1663980Y377445D01*
X1663980Y371395D02*
X1666980Y371395D01*
X1666980Y372345D02*
X1663980Y372345D01*
X1663980Y373295D02*
X1666980Y373295D01*
X1666980Y374245D02*
X1663980Y374245D01*
X1663980Y375195D02*
X1666980Y375195D01*
X1666980Y376145D02*
X1663980Y376145D01*
X1663980Y377095D02*
X1666980Y377095D01*
D11*
X1655480Y398945D03*
X1650480Y398945D03*
D10*
X1571980Y377445D02*
X1568980Y377445D01*
X1571980Y377445D02*
X1571980Y370445D01*
X1568980Y370445D01*
X1568980Y377445D01*
X1568980Y371395D02*
X1571980Y371395D01*
X1571980Y372345D02*
X1568980Y372345D01*
X1568980Y373295D02*
X1571980Y373295D01*
X1571980Y374245D02*
X1568980Y374245D01*
X1568980Y375195D02*
X1571980Y375195D01*
X1571980Y376145D02*
X1568980Y376145D01*
X1568980Y377095D02*
X1571980Y377095D01*
D11*
X1645480Y398945D03*
X1640480Y398945D03*
X1635480Y398945D03*
X1630480Y398945D03*
X1625480Y398945D03*
X1620480Y398945D03*
X1615480Y398945D03*
X1610480Y398945D03*
X1605480Y398945D03*
X1600480Y398945D03*
X1595480Y398945D03*
X1590480Y398945D03*
X1585480Y398945D03*
X1580480Y398945D03*
D10*
X1775740Y377445D02*
X1778740Y377445D01*
X1778740Y370445D01*
X1775740Y370445D01*
X1775740Y377445D01*
X1775740Y371395D02*
X1778740Y371395D01*
X1778740Y372345D02*
X1775740Y372345D01*
X1775740Y373295D02*
X1778740Y373295D01*
X1778740Y374245D02*
X1775740Y374245D01*
X1775740Y375195D02*
X1778740Y375195D01*
X1778740Y376145D02*
X1775740Y376145D01*
X1775740Y377095D02*
X1778740Y377095D01*
D11*
X1767240Y398945D03*
X1762240Y398945D03*
D10*
X1683740Y377445D02*
X1680740Y377445D01*
X1683740Y377445D02*
X1683740Y370445D01*
X1680740Y370445D01*
X1680740Y377445D01*
X1680740Y371395D02*
X1683740Y371395D01*
X1683740Y372345D02*
X1680740Y372345D01*
X1680740Y373295D02*
X1683740Y373295D01*
X1683740Y374245D02*
X1680740Y374245D01*
X1680740Y375195D02*
X1683740Y375195D01*
X1683740Y376145D02*
X1680740Y376145D01*
X1680740Y377095D02*
X1683740Y377095D01*
D11*
X1757240Y398945D03*
X1752240Y398945D03*
X1747240Y398945D03*
X1742240Y398945D03*
X1737240Y398945D03*
X1732240Y398945D03*
X1727240Y398945D03*
X1722240Y398945D03*
X1717240Y398945D03*
X1712240Y398945D03*
X1707240Y398945D03*
X1702240Y398945D03*
X1697240Y398945D03*
X1692240Y398945D03*
D10*
X102340Y788925D02*
X99340Y788925D01*
X102340Y788925D02*
X102340Y781925D01*
X99340Y781925D01*
X99340Y788925D01*
X99340Y782875D02*
X102340Y782875D01*
X102340Y783825D02*
X99340Y783825D01*
X99340Y784775D02*
X102340Y784775D01*
X102340Y785725D02*
X99340Y785725D01*
X99340Y786675D02*
X102340Y786675D01*
X102340Y787625D02*
X99340Y787625D01*
X99340Y788575D02*
X102340Y788575D01*
D11*
X90840Y810425D03*
X85840Y810425D03*
D10*
X7340Y788925D02*
X4340Y788925D01*
X7340Y788925D02*
X7340Y781925D01*
X4340Y781925D01*
X4340Y788925D01*
X4340Y782875D02*
X7340Y782875D01*
X7340Y783825D02*
X4340Y783825D01*
X4340Y784775D02*
X7340Y784775D01*
X7340Y785725D02*
X4340Y785725D01*
X4340Y786675D02*
X7340Y786675D01*
X7340Y787625D02*
X4340Y787625D01*
X4340Y788575D02*
X7340Y788575D01*
D11*
X80840Y810425D03*
X75840Y810425D03*
X70840Y810425D03*
X65840Y810425D03*
X60840Y810425D03*
X55840Y810425D03*
X50840Y810425D03*
X45840Y810425D03*
X40840Y810425D03*
X35840Y810425D03*
X30840Y810425D03*
X25840Y810425D03*
X20840Y810425D03*
X15840Y810425D03*
D10*
X211100Y788925D02*
X214100Y788925D01*
X214100Y781925D01*
X211100Y781925D01*
X211100Y788925D01*
X211100Y782875D02*
X214100Y782875D01*
X214100Y783825D02*
X211100Y783825D01*
X211100Y784775D02*
X214100Y784775D01*
X214100Y785725D02*
X211100Y785725D01*
X211100Y786675D02*
X214100Y786675D01*
X214100Y787625D02*
X211100Y787625D01*
X211100Y788575D02*
X214100Y788575D01*
D11*
X202600Y810425D03*
X197600Y810425D03*
D10*
X119100Y788925D02*
X116100Y788925D01*
X119100Y788925D02*
X119100Y781925D01*
X116100Y781925D01*
X116100Y788925D01*
X116100Y782875D02*
X119100Y782875D01*
X119100Y783825D02*
X116100Y783825D01*
X116100Y784775D02*
X119100Y784775D01*
X119100Y785725D02*
X116100Y785725D01*
X116100Y786675D02*
X119100Y786675D01*
X119100Y787625D02*
X116100Y787625D01*
X116100Y788575D02*
X119100Y788575D01*
D11*
X192600Y810425D03*
X187600Y810425D03*
X182600Y810425D03*
X177600Y810425D03*
X172600Y810425D03*
X167600Y810425D03*
X162600Y810425D03*
X157600Y810425D03*
X152600Y810425D03*
X147600Y810425D03*
X142600Y810425D03*
X137600Y810425D03*
X132600Y810425D03*
X127600Y810425D03*
D10*
X322860Y788925D02*
X325860Y788925D01*
X325860Y781925D01*
X322860Y781925D01*
X322860Y788925D01*
X322860Y782875D02*
X325860Y782875D01*
X325860Y783825D02*
X322860Y783825D01*
X322860Y784775D02*
X325860Y784775D01*
X325860Y785725D02*
X322860Y785725D01*
X322860Y786675D02*
X325860Y786675D01*
X325860Y787625D02*
X322860Y787625D01*
X322860Y788575D02*
X325860Y788575D01*
D11*
X314360Y810425D03*
X309360Y810425D03*
D10*
X230860Y788925D02*
X227860Y788925D01*
X230860Y788925D02*
X230860Y781925D01*
X227860Y781925D01*
X227860Y788925D01*
X227860Y782875D02*
X230860Y782875D01*
X230860Y783825D02*
X227860Y783825D01*
X227860Y784775D02*
X230860Y784775D01*
X230860Y785725D02*
X227860Y785725D01*
X227860Y786675D02*
X230860Y786675D01*
X230860Y787625D02*
X227860Y787625D01*
X227860Y788575D02*
X230860Y788575D01*
D11*
X304360Y810425D03*
X299360Y810425D03*
X294360Y810425D03*
X289360Y810425D03*
X284360Y810425D03*
X279360Y810425D03*
X274360Y810425D03*
X269360Y810425D03*
X264360Y810425D03*
X259360Y810425D03*
X254360Y810425D03*
X249360Y810425D03*
X244360Y810425D03*
X239360Y810425D03*
D10*
X434620Y788925D02*
X437620Y788925D01*
X437620Y781925D01*
X434620Y781925D01*
X434620Y788925D01*
X434620Y782875D02*
X437620Y782875D01*
X437620Y783825D02*
X434620Y783825D01*
X434620Y784775D02*
X437620Y784775D01*
X437620Y785725D02*
X434620Y785725D01*
X434620Y786675D02*
X437620Y786675D01*
X437620Y787625D02*
X434620Y787625D01*
X434620Y788575D02*
X437620Y788575D01*
D11*
X426120Y810425D03*
X421120Y810425D03*
D10*
X342620Y788925D02*
X339620Y788925D01*
X342620Y788925D02*
X342620Y781925D01*
X339620Y781925D01*
X339620Y788925D01*
X339620Y782875D02*
X342620Y782875D01*
X342620Y783825D02*
X339620Y783825D01*
X339620Y784775D02*
X342620Y784775D01*
X342620Y785725D02*
X339620Y785725D01*
X339620Y786675D02*
X342620Y786675D01*
X342620Y787625D02*
X339620Y787625D01*
X339620Y788575D02*
X342620Y788575D01*
D11*
X416120Y810425D03*
X411120Y810425D03*
X406120Y810425D03*
X401120Y810425D03*
X396120Y810425D03*
X391120Y810425D03*
X386120Y810425D03*
X381120Y810425D03*
X376120Y810425D03*
X371120Y810425D03*
X366120Y810425D03*
X361120Y810425D03*
X356120Y810425D03*
X351120Y810425D03*
D10*
X546380Y788925D02*
X549380Y788925D01*
X549380Y781925D01*
X546380Y781925D01*
X546380Y788925D01*
X546380Y782875D02*
X549380Y782875D01*
X549380Y783825D02*
X546380Y783825D01*
X546380Y784775D02*
X549380Y784775D01*
X549380Y785725D02*
X546380Y785725D01*
X546380Y786675D02*
X549380Y786675D01*
X549380Y787625D02*
X546380Y787625D01*
X546380Y788575D02*
X549380Y788575D01*
D11*
X537880Y810425D03*
X532880Y810425D03*
D10*
X454380Y788925D02*
X451380Y788925D01*
X454380Y788925D02*
X454380Y781925D01*
X451380Y781925D01*
X451380Y788925D01*
X451380Y782875D02*
X454380Y782875D01*
X454380Y783825D02*
X451380Y783825D01*
X451380Y784775D02*
X454380Y784775D01*
X454380Y785725D02*
X451380Y785725D01*
X451380Y786675D02*
X454380Y786675D01*
X454380Y787625D02*
X451380Y787625D01*
X451380Y788575D02*
X454380Y788575D01*
D11*
X527880Y810425D03*
X522880Y810425D03*
X517880Y810425D03*
X512880Y810425D03*
X507880Y810425D03*
X502880Y810425D03*
X497880Y810425D03*
X492880Y810425D03*
X487880Y810425D03*
X482880Y810425D03*
X477880Y810425D03*
X472880Y810425D03*
X467880Y810425D03*
X462880Y810425D03*
D10*
X658140Y788925D02*
X661140Y788925D01*
X661140Y781925D01*
X658140Y781925D01*
X658140Y788925D01*
X658140Y782875D02*
X661140Y782875D01*
X661140Y783825D02*
X658140Y783825D01*
X658140Y784775D02*
X661140Y784775D01*
X661140Y785725D02*
X658140Y785725D01*
X658140Y786675D02*
X661140Y786675D01*
X661140Y787625D02*
X658140Y787625D01*
X658140Y788575D02*
X661140Y788575D01*
D11*
X649640Y810425D03*
X644640Y810425D03*
D10*
X566140Y788925D02*
X563140Y788925D01*
X566140Y788925D02*
X566140Y781925D01*
X563140Y781925D01*
X563140Y788925D01*
X563140Y782875D02*
X566140Y782875D01*
X566140Y783825D02*
X563140Y783825D01*
X563140Y784775D02*
X566140Y784775D01*
X566140Y785725D02*
X563140Y785725D01*
X563140Y786675D02*
X566140Y786675D01*
X566140Y787625D02*
X563140Y787625D01*
X563140Y788575D02*
X566140Y788575D01*
D11*
X639640Y810425D03*
X634640Y810425D03*
X629640Y810425D03*
X624640Y810425D03*
X619640Y810425D03*
X614640Y810425D03*
X609640Y810425D03*
X604640Y810425D03*
X599640Y810425D03*
X594640Y810425D03*
X589640Y810425D03*
X584640Y810425D03*
X579640Y810425D03*
X574640Y810425D03*
D10*
X769900Y788925D02*
X772900Y788925D01*
X772900Y781925D01*
X769900Y781925D01*
X769900Y788925D01*
X769900Y782875D02*
X772900Y782875D01*
X772900Y783825D02*
X769900Y783825D01*
X769900Y784775D02*
X772900Y784775D01*
X772900Y785725D02*
X769900Y785725D01*
X769900Y786675D02*
X772900Y786675D01*
X772900Y787625D02*
X769900Y787625D01*
X769900Y788575D02*
X772900Y788575D01*
D11*
X761400Y810425D03*
X756400Y810425D03*
D10*
X677900Y788925D02*
X674900Y788925D01*
X677900Y788925D02*
X677900Y781925D01*
X674900Y781925D01*
X674900Y788925D01*
X674900Y782875D02*
X677900Y782875D01*
X677900Y783825D02*
X674900Y783825D01*
X674900Y784775D02*
X677900Y784775D01*
X677900Y785725D02*
X674900Y785725D01*
X674900Y786675D02*
X677900Y786675D01*
X677900Y787625D02*
X674900Y787625D01*
X674900Y788575D02*
X677900Y788575D01*
D11*
X751400Y810425D03*
X746400Y810425D03*
X741400Y810425D03*
X736400Y810425D03*
X731400Y810425D03*
X726400Y810425D03*
X721400Y810425D03*
X716400Y810425D03*
X711400Y810425D03*
X706400Y810425D03*
X701400Y810425D03*
X696400Y810425D03*
X691400Y810425D03*
X686400Y810425D03*
D10*
X881660Y788925D02*
X884660Y788925D01*
X884660Y781925D01*
X881660Y781925D01*
X881660Y788925D01*
X881660Y782875D02*
X884660Y782875D01*
X884660Y783825D02*
X881660Y783825D01*
X881660Y784775D02*
X884660Y784775D01*
X884660Y785725D02*
X881660Y785725D01*
X881660Y786675D02*
X884660Y786675D01*
X884660Y787625D02*
X881660Y787625D01*
X881660Y788575D02*
X884660Y788575D01*
D11*
X873160Y810425D03*
X868160Y810425D03*
D10*
X789660Y788925D02*
X786660Y788925D01*
X789660Y788925D02*
X789660Y781925D01*
X786660Y781925D01*
X786660Y788925D01*
X786660Y782875D02*
X789660Y782875D01*
X789660Y783825D02*
X786660Y783825D01*
X786660Y784775D02*
X789660Y784775D01*
X789660Y785725D02*
X786660Y785725D01*
X786660Y786675D02*
X789660Y786675D01*
X789660Y787625D02*
X786660Y787625D01*
X786660Y788575D02*
X789660Y788575D01*
D11*
X863160Y810425D03*
X858160Y810425D03*
X853160Y810425D03*
X848160Y810425D03*
X843160Y810425D03*
X838160Y810425D03*
X833160Y810425D03*
X828160Y810425D03*
X823160Y810425D03*
X818160Y810425D03*
X813160Y810425D03*
X808160Y810425D03*
X803160Y810425D03*
X798160Y810425D03*
D10*
X993420Y788925D02*
X996420Y788925D01*
X996420Y781925D01*
X993420Y781925D01*
X993420Y788925D01*
X993420Y782875D02*
X996420Y782875D01*
X996420Y783825D02*
X993420Y783825D01*
X993420Y784775D02*
X996420Y784775D01*
X996420Y785725D02*
X993420Y785725D01*
X993420Y786675D02*
X996420Y786675D01*
X996420Y787625D02*
X993420Y787625D01*
X993420Y788575D02*
X996420Y788575D01*
D11*
X984920Y810425D03*
X979920Y810425D03*
D10*
X901420Y788925D02*
X898420Y788925D01*
X901420Y788925D02*
X901420Y781925D01*
X898420Y781925D01*
X898420Y788925D01*
X898420Y782875D02*
X901420Y782875D01*
X901420Y783825D02*
X898420Y783825D01*
X898420Y784775D02*
X901420Y784775D01*
X901420Y785725D02*
X898420Y785725D01*
X898420Y786675D02*
X901420Y786675D01*
X901420Y787625D02*
X898420Y787625D01*
X898420Y788575D02*
X901420Y788575D01*
D11*
X974920Y810425D03*
X969920Y810425D03*
X964920Y810425D03*
X959920Y810425D03*
X954920Y810425D03*
X949920Y810425D03*
X944920Y810425D03*
X939920Y810425D03*
X934920Y810425D03*
X929920Y810425D03*
X924920Y810425D03*
X919920Y810425D03*
X914920Y810425D03*
X909920Y810425D03*
D10*
X1105180Y788925D02*
X1108180Y788925D01*
X1108180Y781925D01*
X1105180Y781925D01*
X1105180Y788925D01*
X1105180Y782875D02*
X1108180Y782875D01*
X1108180Y783825D02*
X1105180Y783825D01*
X1105180Y784775D02*
X1108180Y784775D01*
X1108180Y785725D02*
X1105180Y785725D01*
X1105180Y786675D02*
X1108180Y786675D01*
X1108180Y787625D02*
X1105180Y787625D01*
X1105180Y788575D02*
X1108180Y788575D01*
D11*
X1096680Y810425D03*
X1091680Y810425D03*
D10*
X1013180Y788925D02*
X1010180Y788925D01*
X1013180Y788925D02*
X1013180Y781925D01*
X1010180Y781925D01*
X1010180Y788925D01*
X1010180Y782875D02*
X1013180Y782875D01*
X1013180Y783825D02*
X1010180Y783825D01*
X1010180Y784775D02*
X1013180Y784775D01*
X1013180Y785725D02*
X1010180Y785725D01*
X1010180Y786675D02*
X1013180Y786675D01*
X1013180Y787625D02*
X1010180Y787625D01*
X1010180Y788575D02*
X1013180Y788575D01*
D11*
X1086680Y810425D03*
X1081680Y810425D03*
X1076680Y810425D03*
X1071680Y810425D03*
X1066680Y810425D03*
X1061680Y810425D03*
X1056680Y810425D03*
X1051680Y810425D03*
X1046680Y810425D03*
X1041680Y810425D03*
X1036680Y810425D03*
X1031680Y810425D03*
X1026680Y810425D03*
X1021680Y810425D03*
D10*
X1216940Y788925D02*
X1219940Y788925D01*
X1219940Y781925D01*
X1216940Y781925D01*
X1216940Y788925D01*
X1216940Y782875D02*
X1219940Y782875D01*
X1219940Y783825D02*
X1216940Y783825D01*
X1216940Y784775D02*
X1219940Y784775D01*
X1219940Y785725D02*
X1216940Y785725D01*
X1216940Y786675D02*
X1219940Y786675D01*
X1219940Y787625D02*
X1216940Y787625D01*
X1216940Y788575D02*
X1219940Y788575D01*
D11*
X1208440Y810425D03*
X1203440Y810425D03*
D10*
X1124940Y788925D02*
X1121940Y788925D01*
X1124940Y788925D02*
X1124940Y781925D01*
X1121940Y781925D01*
X1121940Y788925D01*
X1121940Y782875D02*
X1124940Y782875D01*
X1124940Y783825D02*
X1121940Y783825D01*
X1121940Y784775D02*
X1124940Y784775D01*
X1124940Y785725D02*
X1121940Y785725D01*
X1121940Y786675D02*
X1124940Y786675D01*
X1124940Y787625D02*
X1121940Y787625D01*
X1121940Y788575D02*
X1124940Y788575D01*
D11*
X1198440Y810425D03*
X1193440Y810425D03*
X1188440Y810425D03*
X1183440Y810425D03*
X1178440Y810425D03*
X1173440Y810425D03*
X1168440Y810425D03*
X1163440Y810425D03*
X1158440Y810425D03*
X1153440Y810425D03*
X1148440Y810425D03*
X1143440Y810425D03*
X1138440Y810425D03*
X1133440Y810425D03*
D10*
X1328700Y788925D02*
X1331700Y788925D01*
X1331700Y781925D01*
X1328700Y781925D01*
X1328700Y788925D01*
X1328700Y782875D02*
X1331700Y782875D01*
X1331700Y783825D02*
X1328700Y783825D01*
X1328700Y784775D02*
X1331700Y784775D01*
X1331700Y785725D02*
X1328700Y785725D01*
X1328700Y786675D02*
X1331700Y786675D01*
X1331700Y787625D02*
X1328700Y787625D01*
X1328700Y788575D02*
X1331700Y788575D01*
D11*
X1320200Y810425D03*
X1315200Y810425D03*
D10*
X1236700Y788925D02*
X1233700Y788925D01*
X1236700Y788925D02*
X1236700Y781925D01*
X1233700Y781925D01*
X1233700Y788925D01*
X1233700Y782875D02*
X1236700Y782875D01*
X1236700Y783825D02*
X1233700Y783825D01*
X1233700Y784775D02*
X1236700Y784775D01*
X1236700Y785725D02*
X1233700Y785725D01*
X1233700Y786675D02*
X1236700Y786675D01*
X1236700Y787625D02*
X1233700Y787625D01*
X1233700Y788575D02*
X1236700Y788575D01*
D11*
X1310200Y810425D03*
X1305200Y810425D03*
X1300200Y810425D03*
X1295200Y810425D03*
X1290200Y810425D03*
X1285200Y810425D03*
X1280200Y810425D03*
X1275200Y810425D03*
X1270200Y810425D03*
X1265200Y810425D03*
X1260200Y810425D03*
X1255200Y810425D03*
X1250200Y810425D03*
X1245200Y810425D03*
D10*
X1440460Y788925D02*
X1443460Y788925D01*
X1443460Y781925D01*
X1440460Y781925D01*
X1440460Y788925D01*
X1440460Y782875D02*
X1443460Y782875D01*
X1443460Y783825D02*
X1440460Y783825D01*
X1440460Y784775D02*
X1443460Y784775D01*
X1443460Y785725D02*
X1440460Y785725D01*
X1440460Y786675D02*
X1443460Y786675D01*
X1443460Y787625D02*
X1440460Y787625D01*
X1440460Y788575D02*
X1443460Y788575D01*
D11*
X1431960Y810425D03*
X1426960Y810425D03*
D10*
X1348460Y788925D02*
X1345460Y788925D01*
X1348460Y788925D02*
X1348460Y781925D01*
X1345460Y781925D01*
X1345460Y788925D01*
X1345460Y782875D02*
X1348460Y782875D01*
X1348460Y783825D02*
X1345460Y783825D01*
X1345460Y784775D02*
X1348460Y784775D01*
X1348460Y785725D02*
X1345460Y785725D01*
X1345460Y786675D02*
X1348460Y786675D01*
X1348460Y787625D02*
X1345460Y787625D01*
X1345460Y788575D02*
X1348460Y788575D01*
D11*
X1421960Y810425D03*
X1416960Y810425D03*
X1411960Y810425D03*
X1406960Y810425D03*
X1401960Y810425D03*
X1396960Y810425D03*
X1391960Y810425D03*
X1386960Y810425D03*
X1381960Y810425D03*
X1376960Y810425D03*
X1371960Y810425D03*
X1366960Y810425D03*
X1361960Y810425D03*
X1356960Y810425D03*
D10*
X1552220Y788925D02*
X1555220Y788925D01*
X1555220Y781925D01*
X1552220Y781925D01*
X1552220Y788925D01*
X1552220Y782875D02*
X1555220Y782875D01*
X1555220Y783825D02*
X1552220Y783825D01*
X1552220Y784775D02*
X1555220Y784775D01*
X1555220Y785725D02*
X1552220Y785725D01*
X1552220Y786675D02*
X1555220Y786675D01*
X1555220Y787625D02*
X1552220Y787625D01*
X1552220Y788575D02*
X1555220Y788575D01*
D11*
X1543720Y810425D03*
X1538720Y810425D03*
D10*
X1460220Y788925D02*
X1457220Y788925D01*
X1460220Y788925D02*
X1460220Y781925D01*
X1457220Y781925D01*
X1457220Y788925D01*
X1457220Y782875D02*
X1460220Y782875D01*
X1460220Y783825D02*
X1457220Y783825D01*
X1457220Y784775D02*
X1460220Y784775D01*
X1460220Y785725D02*
X1457220Y785725D01*
X1457220Y786675D02*
X1460220Y786675D01*
X1460220Y787625D02*
X1457220Y787625D01*
X1457220Y788575D02*
X1460220Y788575D01*
D11*
X1533720Y810425D03*
X1528720Y810425D03*
X1523720Y810425D03*
X1518720Y810425D03*
X1513720Y810425D03*
X1508720Y810425D03*
X1503720Y810425D03*
X1498720Y810425D03*
X1493720Y810425D03*
X1488720Y810425D03*
X1483720Y810425D03*
X1478720Y810425D03*
X1473720Y810425D03*
X1468720Y810425D03*
D10*
X1663980Y788925D02*
X1666980Y788925D01*
X1666980Y781925D01*
X1663980Y781925D01*
X1663980Y788925D01*
X1663980Y782875D02*
X1666980Y782875D01*
X1666980Y783825D02*
X1663980Y783825D01*
X1663980Y784775D02*
X1666980Y784775D01*
X1666980Y785725D02*
X1663980Y785725D01*
X1663980Y786675D02*
X1666980Y786675D01*
X1666980Y787625D02*
X1663980Y787625D01*
X1663980Y788575D02*
X1666980Y788575D01*
D11*
X1655480Y810425D03*
X1650480Y810425D03*
D10*
X1571980Y788925D02*
X1568980Y788925D01*
X1571980Y788925D02*
X1571980Y781925D01*
X1568980Y781925D01*
X1568980Y788925D01*
X1568980Y782875D02*
X1571980Y782875D01*
X1571980Y783825D02*
X1568980Y783825D01*
X1568980Y784775D02*
X1571980Y784775D01*
X1571980Y785725D02*
X1568980Y785725D01*
X1568980Y786675D02*
X1571980Y786675D01*
X1571980Y787625D02*
X1568980Y787625D01*
X1568980Y788575D02*
X1571980Y788575D01*
D11*
X1645480Y810425D03*
X1640480Y810425D03*
X1635480Y810425D03*
X1630480Y810425D03*
X1625480Y810425D03*
X1620480Y810425D03*
X1615480Y810425D03*
X1610480Y810425D03*
X1605480Y810425D03*
X1600480Y810425D03*
X1595480Y810425D03*
X1590480Y810425D03*
X1585480Y810425D03*
X1580480Y810425D03*
D10*
X1775740Y788925D02*
X1778740Y788925D01*
X1778740Y781925D01*
X1775740Y781925D01*
X1775740Y788925D01*
X1775740Y782875D02*
X1778740Y782875D01*
X1778740Y783825D02*
X1775740Y783825D01*
X1775740Y784775D02*
X1778740Y784775D01*
X1778740Y785725D02*
X1775740Y785725D01*
X1775740Y786675D02*
X1778740Y786675D01*
X1778740Y787625D02*
X1775740Y787625D01*
X1775740Y788575D02*
X1778740Y788575D01*
D11*
X1767240Y810425D03*
X1762240Y810425D03*
D10*
X1683740Y788925D02*
X1680740Y788925D01*
X1683740Y788925D02*
X1683740Y781925D01*
X1680740Y781925D01*
X1680740Y788925D01*
X1680740Y782875D02*
X1683740Y782875D01*
X1683740Y783825D02*
X1680740Y783825D01*
X1680740Y784775D02*
X1683740Y784775D01*
X1683740Y785725D02*
X1680740Y785725D01*
X1680740Y786675D02*
X1683740Y786675D01*
X1683740Y787625D02*
X1680740Y787625D01*
X1680740Y788575D02*
X1683740Y788575D01*
D11*
X1757240Y810425D03*
X1752240Y810425D03*
X1747240Y810425D03*
X1742240Y810425D03*
X1737240Y810425D03*
X1732240Y810425D03*
X1727240Y810425D03*
X1722240Y810425D03*
X1717240Y810425D03*
X1712240Y810425D03*
X1707240Y810425D03*
X1702240Y810425D03*
X1697240Y810425D03*
X1692240Y810425D03*
D10*
X102340Y1200405D02*
X99340Y1200405D01*
X102340Y1200405D02*
X102340Y1193405D01*
X99340Y1193405D01*
X99340Y1200405D01*
X99340Y1194355D02*
X102340Y1194355D01*
X102340Y1195305D02*
X99340Y1195305D01*
X99340Y1196255D02*
X102340Y1196255D01*
X102340Y1197205D02*
X99340Y1197205D01*
X99340Y1198155D02*
X102340Y1198155D01*
X102340Y1199105D02*
X99340Y1199105D01*
X99340Y1200055D02*
X102340Y1200055D01*
D11*
X90840Y1221905D03*
X85840Y1221905D03*
D10*
X7340Y1200405D02*
X4340Y1200405D01*
X7340Y1200405D02*
X7340Y1193405D01*
X4340Y1193405D01*
X4340Y1200405D01*
X4340Y1194355D02*
X7340Y1194355D01*
X7340Y1195305D02*
X4340Y1195305D01*
X4340Y1196255D02*
X7340Y1196255D01*
X7340Y1197205D02*
X4340Y1197205D01*
X4340Y1198155D02*
X7340Y1198155D01*
X7340Y1199105D02*
X4340Y1199105D01*
X4340Y1200055D02*
X7340Y1200055D01*
D11*
X80840Y1221905D03*
X75840Y1221905D03*
X70840Y1221905D03*
X65840Y1221905D03*
X60840Y1221905D03*
X55840Y1221905D03*
X50840Y1221905D03*
X45840Y1221905D03*
X40840Y1221905D03*
X35840Y1221905D03*
X30840Y1221905D03*
X25840Y1221905D03*
X20840Y1221905D03*
X15840Y1221905D03*
D10*
X211100Y1200405D02*
X214100Y1200405D01*
X214100Y1193405D01*
X211100Y1193405D01*
X211100Y1200405D01*
X211100Y1194355D02*
X214100Y1194355D01*
X214100Y1195305D02*
X211100Y1195305D01*
X211100Y1196255D02*
X214100Y1196255D01*
X214100Y1197205D02*
X211100Y1197205D01*
X211100Y1198155D02*
X214100Y1198155D01*
X214100Y1199105D02*
X211100Y1199105D01*
X211100Y1200055D02*
X214100Y1200055D01*
D11*
X202600Y1221905D03*
X197600Y1221905D03*
D10*
X119100Y1200405D02*
X116100Y1200405D01*
X119100Y1200405D02*
X119100Y1193405D01*
X116100Y1193405D01*
X116100Y1200405D01*
X116100Y1194355D02*
X119100Y1194355D01*
X119100Y1195305D02*
X116100Y1195305D01*
X116100Y1196255D02*
X119100Y1196255D01*
X119100Y1197205D02*
X116100Y1197205D01*
X116100Y1198155D02*
X119100Y1198155D01*
X119100Y1199105D02*
X116100Y1199105D01*
X116100Y1200055D02*
X119100Y1200055D01*
D11*
X192600Y1221905D03*
X187600Y1221905D03*
X182600Y1221905D03*
X177600Y1221905D03*
X172600Y1221905D03*
X167600Y1221905D03*
X162600Y1221905D03*
X157600Y1221905D03*
X152600Y1221905D03*
X147600Y1221905D03*
X142600Y1221905D03*
X137600Y1221905D03*
X132600Y1221905D03*
X127600Y1221905D03*
D10*
X322860Y1200405D02*
X325860Y1200405D01*
X325860Y1193405D01*
X322860Y1193405D01*
X322860Y1200405D01*
X322860Y1194355D02*
X325860Y1194355D01*
X325860Y1195305D02*
X322860Y1195305D01*
X322860Y1196255D02*
X325860Y1196255D01*
X325860Y1197205D02*
X322860Y1197205D01*
X322860Y1198155D02*
X325860Y1198155D01*
X325860Y1199105D02*
X322860Y1199105D01*
X322860Y1200055D02*
X325860Y1200055D01*
D11*
X314360Y1221905D03*
X309360Y1221905D03*
D10*
X230860Y1200405D02*
X227860Y1200405D01*
X230860Y1200405D02*
X230860Y1193405D01*
X227860Y1193405D01*
X227860Y1200405D01*
X227860Y1194355D02*
X230860Y1194355D01*
X230860Y1195305D02*
X227860Y1195305D01*
X227860Y1196255D02*
X230860Y1196255D01*
X230860Y1197205D02*
X227860Y1197205D01*
X227860Y1198155D02*
X230860Y1198155D01*
X230860Y1199105D02*
X227860Y1199105D01*
X227860Y1200055D02*
X230860Y1200055D01*
D11*
X304360Y1221905D03*
X299360Y1221905D03*
X294360Y1221905D03*
X289360Y1221905D03*
X284360Y1221905D03*
X279360Y1221905D03*
X274360Y1221905D03*
X269360Y1221905D03*
X264360Y1221905D03*
X259360Y1221905D03*
X254360Y1221905D03*
X249360Y1221905D03*
X244360Y1221905D03*
X239360Y1221905D03*
D10*
X434620Y1200405D02*
X437620Y1200405D01*
X437620Y1193405D01*
X434620Y1193405D01*
X434620Y1200405D01*
X434620Y1194355D02*
X437620Y1194355D01*
X437620Y1195305D02*
X434620Y1195305D01*
X434620Y1196255D02*
X437620Y1196255D01*
X437620Y1197205D02*
X434620Y1197205D01*
X434620Y1198155D02*
X437620Y1198155D01*
X437620Y1199105D02*
X434620Y1199105D01*
X434620Y1200055D02*
X437620Y1200055D01*
D11*
X426120Y1221905D03*
X421120Y1221905D03*
D10*
X342620Y1200405D02*
X339620Y1200405D01*
X342620Y1200405D02*
X342620Y1193405D01*
X339620Y1193405D01*
X339620Y1200405D01*
X339620Y1194355D02*
X342620Y1194355D01*
X342620Y1195305D02*
X339620Y1195305D01*
X339620Y1196255D02*
X342620Y1196255D01*
X342620Y1197205D02*
X339620Y1197205D01*
X339620Y1198155D02*
X342620Y1198155D01*
X342620Y1199105D02*
X339620Y1199105D01*
X339620Y1200055D02*
X342620Y1200055D01*
D11*
X416120Y1221905D03*
X411120Y1221905D03*
X406120Y1221905D03*
X401120Y1221905D03*
X396120Y1221905D03*
X391120Y1221905D03*
X386120Y1221905D03*
X381120Y1221905D03*
X376120Y1221905D03*
X371120Y1221905D03*
X366120Y1221905D03*
X361120Y1221905D03*
X356120Y1221905D03*
X351120Y1221905D03*
D10*
X546380Y1200405D02*
X549380Y1200405D01*
X549380Y1193405D01*
X546380Y1193405D01*
X546380Y1200405D01*
X546380Y1194355D02*
X549380Y1194355D01*
X549380Y1195305D02*
X546380Y1195305D01*
X546380Y1196255D02*
X549380Y1196255D01*
X549380Y1197205D02*
X546380Y1197205D01*
X546380Y1198155D02*
X549380Y1198155D01*
X549380Y1199105D02*
X546380Y1199105D01*
X546380Y1200055D02*
X549380Y1200055D01*
D11*
X537880Y1221905D03*
X532880Y1221905D03*
D10*
X454380Y1200405D02*
X451380Y1200405D01*
X454380Y1200405D02*
X454380Y1193405D01*
X451380Y1193405D01*
X451380Y1200405D01*
X451380Y1194355D02*
X454380Y1194355D01*
X454380Y1195305D02*
X451380Y1195305D01*
X451380Y1196255D02*
X454380Y1196255D01*
X454380Y1197205D02*
X451380Y1197205D01*
X451380Y1198155D02*
X454380Y1198155D01*
X454380Y1199105D02*
X451380Y1199105D01*
X451380Y1200055D02*
X454380Y1200055D01*
D11*
X527880Y1221905D03*
X522880Y1221905D03*
X517880Y1221905D03*
X512880Y1221905D03*
X507880Y1221905D03*
X502880Y1221905D03*
X497880Y1221905D03*
X492880Y1221905D03*
X487880Y1221905D03*
X482880Y1221905D03*
X477880Y1221905D03*
X472880Y1221905D03*
X467880Y1221905D03*
X462880Y1221905D03*
D10*
X658140Y1200405D02*
X661140Y1200405D01*
X661140Y1193405D01*
X658140Y1193405D01*
X658140Y1200405D01*
X658140Y1194355D02*
X661140Y1194355D01*
X661140Y1195305D02*
X658140Y1195305D01*
X658140Y1196255D02*
X661140Y1196255D01*
X661140Y1197205D02*
X658140Y1197205D01*
X658140Y1198155D02*
X661140Y1198155D01*
X661140Y1199105D02*
X658140Y1199105D01*
X658140Y1200055D02*
X661140Y1200055D01*
D11*
X649640Y1221905D03*
X644640Y1221905D03*
D10*
X566140Y1200405D02*
X563140Y1200405D01*
X566140Y1200405D02*
X566140Y1193405D01*
X563140Y1193405D01*
X563140Y1200405D01*
X563140Y1194355D02*
X566140Y1194355D01*
X566140Y1195305D02*
X563140Y1195305D01*
X563140Y1196255D02*
X566140Y1196255D01*
X566140Y1197205D02*
X563140Y1197205D01*
X563140Y1198155D02*
X566140Y1198155D01*
X566140Y1199105D02*
X563140Y1199105D01*
X563140Y1200055D02*
X566140Y1200055D01*
D11*
X639640Y1221905D03*
X634640Y1221905D03*
X629640Y1221905D03*
X624640Y1221905D03*
X619640Y1221905D03*
X614640Y1221905D03*
X609640Y1221905D03*
X604640Y1221905D03*
X599640Y1221905D03*
X594640Y1221905D03*
X589640Y1221905D03*
X584640Y1221905D03*
X579640Y1221905D03*
X574640Y1221905D03*
D10*
X769900Y1200405D02*
X772900Y1200405D01*
X772900Y1193405D01*
X769900Y1193405D01*
X769900Y1200405D01*
X769900Y1194355D02*
X772900Y1194355D01*
X772900Y1195305D02*
X769900Y1195305D01*
X769900Y1196255D02*
X772900Y1196255D01*
X772900Y1197205D02*
X769900Y1197205D01*
X769900Y1198155D02*
X772900Y1198155D01*
X772900Y1199105D02*
X769900Y1199105D01*
X769900Y1200055D02*
X772900Y1200055D01*
D11*
X761400Y1221905D03*
X756400Y1221905D03*
D10*
X677900Y1200405D02*
X674900Y1200405D01*
X677900Y1200405D02*
X677900Y1193405D01*
X674900Y1193405D01*
X674900Y1200405D01*
X674900Y1194355D02*
X677900Y1194355D01*
X677900Y1195305D02*
X674900Y1195305D01*
X674900Y1196255D02*
X677900Y1196255D01*
X677900Y1197205D02*
X674900Y1197205D01*
X674900Y1198155D02*
X677900Y1198155D01*
X677900Y1199105D02*
X674900Y1199105D01*
X674900Y1200055D02*
X677900Y1200055D01*
D11*
X751400Y1221905D03*
X746400Y1221905D03*
X741400Y1221905D03*
X736400Y1221905D03*
X731400Y1221905D03*
X726400Y1221905D03*
X721400Y1221905D03*
X716400Y1221905D03*
X711400Y1221905D03*
X706400Y1221905D03*
X701400Y1221905D03*
X696400Y1221905D03*
X691400Y1221905D03*
X686400Y1221905D03*
D10*
X881660Y1200405D02*
X884660Y1200405D01*
X884660Y1193405D01*
X881660Y1193405D01*
X881660Y1200405D01*
X881660Y1194355D02*
X884660Y1194355D01*
X884660Y1195305D02*
X881660Y1195305D01*
X881660Y1196255D02*
X884660Y1196255D01*
X884660Y1197205D02*
X881660Y1197205D01*
X881660Y1198155D02*
X884660Y1198155D01*
X884660Y1199105D02*
X881660Y1199105D01*
X881660Y1200055D02*
X884660Y1200055D01*
D11*
X873160Y1221905D03*
X868160Y1221905D03*
D10*
X789660Y1200405D02*
X786660Y1200405D01*
X789660Y1200405D02*
X789660Y1193405D01*
X786660Y1193405D01*
X786660Y1200405D01*
X786660Y1194355D02*
X789660Y1194355D01*
X789660Y1195305D02*
X786660Y1195305D01*
X786660Y1196255D02*
X789660Y1196255D01*
X789660Y1197205D02*
X786660Y1197205D01*
X786660Y1198155D02*
X789660Y1198155D01*
X789660Y1199105D02*
X786660Y1199105D01*
X786660Y1200055D02*
X789660Y1200055D01*
D11*
X863160Y1221905D03*
X858160Y1221905D03*
X853160Y1221905D03*
X848160Y1221905D03*
X843160Y1221905D03*
X838160Y1221905D03*
X833160Y1221905D03*
X828160Y1221905D03*
X823160Y1221905D03*
X818160Y1221905D03*
X813160Y1221905D03*
X808160Y1221905D03*
X803160Y1221905D03*
X798160Y1221905D03*
D10*
X993420Y1200405D02*
X996420Y1200405D01*
X996420Y1193405D01*
X993420Y1193405D01*
X993420Y1200405D01*
X993420Y1194355D02*
X996420Y1194355D01*
X996420Y1195305D02*
X993420Y1195305D01*
X993420Y1196255D02*
X996420Y1196255D01*
X996420Y1197205D02*
X993420Y1197205D01*
X993420Y1198155D02*
X996420Y1198155D01*
X996420Y1199105D02*
X993420Y1199105D01*
X993420Y1200055D02*
X996420Y1200055D01*
D11*
X984920Y1221905D03*
X979920Y1221905D03*
D10*
X901420Y1200405D02*
X898420Y1200405D01*
X901420Y1200405D02*
X901420Y1193405D01*
X898420Y1193405D01*
X898420Y1200405D01*
X898420Y1194355D02*
X901420Y1194355D01*
X901420Y1195305D02*
X898420Y1195305D01*
X898420Y1196255D02*
X901420Y1196255D01*
X901420Y1197205D02*
X898420Y1197205D01*
X898420Y1198155D02*
X901420Y1198155D01*
X901420Y1199105D02*
X898420Y1199105D01*
X898420Y1200055D02*
X901420Y1200055D01*
D11*
X974920Y1221905D03*
X969920Y1221905D03*
X964920Y1221905D03*
X959920Y1221905D03*
X954920Y1221905D03*
X949920Y1221905D03*
X944920Y1221905D03*
X939920Y1221905D03*
X934920Y1221905D03*
X929920Y1221905D03*
X924920Y1221905D03*
X919920Y1221905D03*
X914920Y1221905D03*
X909920Y1221905D03*
D10*
X1105180Y1200405D02*
X1108180Y1200405D01*
X1108180Y1193405D01*
X1105180Y1193405D01*
X1105180Y1200405D01*
X1105180Y1194355D02*
X1108180Y1194355D01*
X1108180Y1195305D02*
X1105180Y1195305D01*
X1105180Y1196255D02*
X1108180Y1196255D01*
X1108180Y1197205D02*
X1105180Y1197205D01*
X1105180Y1198155D02*
X1108180Y1198155D01*
X1108180Y1199105D02*
X1105180Y1199105D01*
X1105180Y1200055D02*
X1108180Y1200055D01*
D11*
X1096680Y1221905D03*
X1091680Y1221905D03*
D10*
X1013180Y1200405D02*
X1010180Y1200405D01*
X1013180Y1200405D02*
X1013180Y1193405D01*
X1010180Y1193405D01*
X1010180Y1200405D01*
X1010180Y1194355D02*
X1013180Y1194355D01*
X1013180Y1195305D02*
X1010180Y1195305D01*
X1010180Y1196255D02*
X1013180Y1196255D01*
X1013180Y1197205D02*
X1010180Y1197205D01*
X1010180Y1198155D02*
X1013180Y1198155D01*
X1013180Y1199105D02*
X1010180Y1199105D01*
X1010180Y1200055D02*
X1013180Y1200055D01*
D11*
X1086680Y1221905D03*
X1081680Y1221905D03*
X1076680Y1221905D03*
X1071680Y1221905D03*
X1066680Y1221905D03*
X1061680Y1221905D03*
X1056680Y1221905D03*
X1051680Y1221905D03*
X1046680Y1221905D03*
X1041680Y1221905D03*
X1036680Y1221905D03*
X1031680Y1221905D03*
X1026680Y1221905D03*
X1021680Y1221905D03*
D10*
X1216940Y1200405D02*
X1219940Y1200405D01*
X1219940Y1193405D01*
X1216940Y1193405D01*
X1216940Y1200405D01*
X1216940Y1194355D02*
X1219940Y1194355D01*
X1219940Y1195305D02*
X1216940Y1195305D01*
X1216940Y1196255D02*
X1219940Y1196255D01*
X1219940Y1197205D02*
X1216940Y1197205D01*
X1216940Y1198155D02*
X1219940Y1198155D01*
X1219940Y1199105D02*
X1216940Y1199105D01*
X1216940Y1200055D02*
X1219940Y1200055D01*
D11*
X1208440Y1221905D03*
X1203440Y1221905D03*
D10*
X1124940Y1200405D02*
X1121940Y1200405D01*
X1124940Y1200405D02*
X1124940Y1193405D01*
X1121940Y1193405D01*
X1121940Y1200405D01*
X1121940Y1194355D02*
X1124940Y1194355D01*
X1124940Y1195305D02*
X1121940Y1195305D01*
X1121940Y1196255D02*
X1124940Y1196255D01*
X1124940Y1197205D02*
X1121940Y1197205D01*
X1121940Y1198155D02*
X1124940Y1198155D01*
X1124940Y1199105D02*
X1121940Y1199105D01*
X1121940Y1200055D02*
X1124940Y1200055D01*
D11*
X1198440Y1221905D03*
X1193440Y1221905D03*
X1188440Y1221905D03*
X1183440Y1221905D03*
X1178440Y1221905D03*
X1173440Y1221905D03*
X1168440Y1221905D03*
X1163440Y1221905D03*
X1158440Y1221905D03*
X1153440Y1221905D03*
X1148440Y1221905D03*
X1143440Y1221905D03*
X1138440Y1221905D03*
X1133440Y1221905D03*
D10*
X1328700Y1200405D02*
X1331700Y1200405D01*
X1331700Y1193405D01*
X1328700Y1193405D01*
X1328700Y1200405D01*
X1328700Y1194355D02*
X1331700Y1194355D01*
X1331700Y1195305D02*
X1328700Y1195305D01*
X1328700Y1196255D02*
X1331700Y1196255D01*
X1331700Y1197205D02*
X1328700Y1197205D01*
X1328700Y1198155D02*
X1331700Y1198155D01*
X1331700Y1199105D02*
X1328700Y1199105D01*
X1328700Y1200055D02*
X1331700Y1200055D01*
D11*
X1320200Y1221905D03*
X1315200Y1221905D03*
D10*
X1236700Y1200405D02*
X1233700Y1200405D01*
X1236700Y1200405D02*
X1236700Y1193405D01*
X1233700Y1193405D01*
X1233700Y1200405D01*
X1233700Y1194355D02*
X1236700Y1194355D01*
X1236700Y1195305D02*
X1233700Y1195305D01*
X1233700Y1196255D02*
X1236700Y1196255D01*
X1236700Y1197205D02*
X1233700Y1197205D01*
X1233700Y1198155D02*
X1236700Y1198155D01*
X1236700Y1199105D02*
X1233700Y1199105D01*
X1233700Y1200055D02*
X1236700Y1200055D01*
D11*
X1310200Y1221905D03*
X1305200Y1221905D03*
X1300200Y1221905D03*
X1295200Y1221905D03*
X1290200Y1221905D03*
X1285200Y1221905D03*
X1280200Y1221905D03*
X1275200Y1221905D03*
X1270200Y1221905D03*
X1265200Y1221905D03*
X1260200Y1221905D03*
X1255200Y1221905D03*
X1250200Y1221905D03*
X1245200Y1221905D03*
D10*
X1440460Y1200405D02*
X1443460Y1200405D01*
X1443460Y1193405D01*
X1440460Y1193405D01*
X1440460Y1200405D01*
X1440460Y1194355D02*
X1443460Y1194355D01*
X1443460Y1195305D02*
X1440460Y1195305D01*
X1440460Y1196255D02*
X1443460Y1196255D01*
X1443460Y1197205D02*
X1440460Y1197205D01*
X1440460Y1198155D02*
X1443460Y1198155D01*
X1443460Y1199105D02*
X1440460Y1199105D01*
X1440460Y1200055D02*
X1443460Y1200055D01*
D11*
X1431960Y1221905D03*
X1426960Y1221905D03*
D10*
X1348460Y1200405D02*
X1345460Y1200405D01*
X1348460Y1200405D02*
X1348460Y1193405D01*
X1345460Y1193405D01*
X1345460Y1200405D01*
X1345460Y1194355D02*
X1348460Y1194355D01*
X1348460Y1195305D02*
X1345460Y1195305D01*
X1345460Y1196255D02*
X1348460Y1196255D01*
X1348460Y1197205D02*
X1345460Y1197205D01*
X1345460Y1198155D02*
X1348460Y1198155D01*
X1348460Y1199105D02*
X1345460Y1199105D01*
X1345460Y1200055D02*
X1348460Y1200055D01*
D11*
X1421960Y1221905D03*
X1416960Y1221905D03*
X1411960Y1221905D03*
X1406960Y1221905D03*
X1401960Y1221905D03*
X1396960Y1221905D03*
X1391960Y1221905D03*
X1386960Y1221905D03*
X1381960Y1221905D03*
X1376960Y1221905D03*
X1371960Y1221905D03*
X1366960Y1221905D03*
X1361960Y1221905D03*
X1356960Y1221905D03*
D10*
X1552220Y1200405D02*
X1555220Y1200405D01*
X1555220Y1193405D01*
X1552220Y1193405D01*
X1552220Y1200405D01*
X1552220Y1194355D02*
X1555220Y1194355D01*
X1555220Y1195305D02*
X1552220Y1195305D01*
X1552220Y1196255D02*
X1555220Y1196255D01*
X1555220Y1197205D02*
X1552220Y1197205D01*
X1552220Y1198155D02*
X1555220Y1198155D01*
X1555220Y1199105D02*
X1552220Y1199105D01*
X1552220Y1200055D02*
X1555220Y1200055D01*
D11*
X1543720Y1221905D03*
X1538720Y1221905D03*
D10*
X1460220Y1200405D02*
X1457220Y1200405D01*
X1460220Y1200405D02*
X1460220Y1193405D01*
X1457220Y1193405D01*
X1457220Y1200405D01*
X1457220Y1194355D02*
X1460220Y1194355D01*
X1460220Y1195305D02*
X1457220Y1195305D01*
X1457220Y1196255D02*
X1460220Y1196255D01*
X1460220Y1197205D02*
X1457220Y1197205D01*
X1457220Y1198155D02*
X1460220Y1198155D01*
X1460220Y1199105D02*
X1457220Y1199105D01*
X1457220Y1200055D02*
X1460220Y1200055D01*
D11*
X1533720Y1221905D03*
X1528720Y1221905D03*
X1523720Y1221905D03*
X1518720Y1221905D03*
X1513720Y1221905D03*
X1508720Y1221905D03*
X1503720Y1221905D03*
X1498720Y1221905D03*
X1493720Y1221905D03*
X1488720Y1221905D03*
X1483720Y1221905D03*
X1478720Y1221905D03*
X1473720Y1221905D03*
X1468720Y1221905D03*
D10*
X1663980Y1200405D02*
X1666980Y1200405D01*
X1666980Y1193405D01*
X1663980Y1193405D01*
X1663980Y1200405D01*
X1663980Y1194355D02*
X1666980Y1194355D01*
X1666980Y1195305D02*
X1663980Y1195305D01*
X1663980Y1196255D02*
X1666980Y1196255D01*
X1666980Y1197205D02*
X1663980Y1197205D01*
X1663980Y1198155D02*
X1666980Y1198155D01*
X1666980Y1199105D02*
X1663980Y1199105D01*
X1663980Y1200055D02*
X1666980Y1200055D01*
D11*
X1655480Y1221905D03*
X1650480Y1221905D03*
D10*
X1571980Y1200405D02*
X1568980Y1200405D01*
X1571980Y1200405D02*
X1571980Y1193405D01*
X1568980Y1193405D01*
X1568980Y1200405D01*
X1568980Y1194355D02*
X1571980Y1194355D01*
X1571980Y1195305D02*
X1568980Y1195305D01*
X1568980Y1196255D02*
X1571980Y1196255D01*
X1571980Y1197205D02*
X1568980Y1197205D01*
X1568980Y1198155D02*
X1571980Y1198155D01*
X1571980Y1199105D02*
X1568980Y1199105D01*
X1568980Y1200055D02*
X1571980Y1200055D01*
D11*
X1645480Y1221905D03*
X1640480Y1221905D03*
X1635480Y1221905D03*
X1630480Y1221905D03*
X1625480Y1221905D03*
X1620480Y1221905D03*
X1615480Y1221905D03*
X1610480Y1221905D03*
X1605480Y1221905D03*
X1600480Y1221905D03*
X1595480Y1221905D03*
X1590480Y1221905D03*
X1585480Y1221905D03*
X1580480Y1221905D03*
D10*
X1775740Y1200405D02*
X1778740Y1200405D01*
X1778740Y1193405D01*
X1775740Y1193405D01*
X1775740Y1200405D01*
X1775740Y1194355D02*
X1778740Y1194355D01*
X1778740Y1195305D02*
X1775740Y1195305D01*
X1775740Y1196255D02*
X1778740Y1196255D01*
X1778740Y1197205D02*
X1775740Y1197205D01*
X1775740Y1198155D02*
X1778740Y1198155D01*
X1778740Y1199105D02*
X1775740Y1199105D01*
X1775740Y1200055D02*
X1778740Y1200055D01*
D11*
X1767240Y1221905D03*
X1762240Y1221905D03*
D10*
X1683740Y1200405D02*
X1680740Y1200405D01*
X1683740Y1200405D02*
X1683740Y1193405D01*
X1680740Y1193405D01*
X1680740Y1200405D01*
X1680740Y1194355D02*
X1683740Y1194355D01*
X1683740Y1195305D02*
X1680740Y1195305D01*
X1680740Y1196255D02*
X1683740Y1196255D01*
X1683740Y1197205D02*
X1680740Y1197205D01*
X1680740Y1198155D02*
X1683740Y1198155D01*
X1683740Y1199105D02*
X1680740Y1199105D01*
X1680740Y1200055D02*
X1683740Y1200055D01*
D11*
X1757240Y1221905D03*
X1752240Y1221905D03*
X1747240Y1221905D03*
X1742240Y1221905D03*
X1737240Y1221905D03*
X1732240Y1221905D03*
X1727240Y1221905D03*
X1722240Y1221905D03*
X1717240Y1221905D03*
X1712240Y1221905D03*
X1707240Y1221905D03*
X1702240Y1221905D03*
X1697240Y1221905D03*
X1692240Y1221905D03*
M02*
