M48
;GenerationSoftware,Autodesk,EAGLE,9.6.2*%
;CreationDate,2021-05-27T09:24:44Z*%
FMAT,2
ICI,OFF
METRIC,TZ,000.000
T2C0.300
T1C0.508
%
G90
M71
T1
X170434Y103886
X7874Y19050
X7874Y21590
X5334Y19050
X5334Y21590
X2794Y19050
X2794Y21590
X19050Y19050
X19050Y21590
X16510Y19050
X16510Y21590
X13970Y19050
X13970Y21590
X30226Y19050
X30226Y21590
X27686Y19050
X27686Y21590
X25146Y19050
X25146Y21590
X41402Y19050
X41402Y21590
X38862Y19050
X38862Y21590
X36322Y19050
X36322Y21590
X52578Y19050
X52578Y21590
X50038Y19050
X50038Y21590
X47498Y19050
X47498Y21590
X63754Y19050
X63754Y21590
X61214Y19050
X61214Y21590
X58674Y19050
X58674Y21590
X74930Y19050
X74930Y21590
X72390Y19050
X72390Y21590
X69850Y19050
X69850Y21590
X86106Y19050
X86106Y21590
X83566Y19050
X83566Y21590
X81026Y19050
X81026Y21590
X97282Y19050
X97282Y21590
X94742Y19050
X94742Y21590
X92202Y19050
X92202Y21590
X108458Y19050
X108458Y21590
X105918Y19050
X105918Y21590
X103378Y19050
X103378Y21590
X119634Y19050
X119634Y21590
X117094Y19050
X117094Y21590
X114554Y19050
X114554Y21590
X130810Y19050
X130810Y21590
X128270Y19050
X128270Y21590
X125730Y19050
X125730Y21590
X141986Y19050
X141986Y21590
X139446Y19050
X139446Y21590
X136906Y19050
X136906Y21590
X153162Y19050
X153162Y21590
X150622Y19050
X150622Y21590
X148082Y19050
X148082Y21590
X164338Y19050
X164338Y21590
X161798Y19050
X161798Y21590
X159258Y19050
X159258Y21590
X175514Y19050
X175514Y21590
X172974Y19050
X172974Y21590
X170434Y19050
X170434Y21590
X7874Y60198
X7874Y62738
X5334Y60198
X5334Y62738
X2794Y60198
X2794Y62738
X19050Y60198
X19050Y62738
X16510Y60198
X16510Y62738
X13970Y60198
X13970Y62738
X30226Y60198
X30226Y62738
X27686Y60198
X27686Y62738
X25146Y60198
X25146Y62738
X41402Y60198
X41402Y62738
X38862Y60198
X38862Y62738
X36322Y60198
X36322Y62738
X52578Y60198
X52578Y62738
X50038Y60198
X50038Y62738
X47498Y60198
X47498Y62738
X63754Y60198
X63754Y62738
X61214Y60198
X61214Y62738
X58674Y60198
X58674Y62738
X74930Y60198
X74930Y62738
X72390Y60198
X72390Y62738
X69850Y60198
X69850Y62738
X86106Y60198
X86106Y62738
X83566Y60198
X83566Y62738
X81026Y60198
X81026Y62738
X97282Y60198
X97282Y62738
X94742Y60198
X94742Y62738
X92202Y60198
X92202Y62738
X108458Y60198
X108458Y62738
X105918Y60198
X105918Y62738
X103378Y60198
X103378Y62738
X119634Y60198
X119634Y62738
X117094Y60198
X117094Y62738
X114554Y60198
X114554Y62738
X130810Y60198
X130810Y62738
X128270Y60198
X128270Y62738
X125730Y60198
X125730Y62738
X141986Y60198
X141986Y62738
X139446Y60198
X139446Y62738
X136906Y60198
X136906Y62738
X153162Y60198
X153162Y62738
X150622Y60198
X150622Y62738
X148082Y60198
X148082Y62738
X164338Y60198
X164338Y62738
X161798Y60198
X161798Y62738
X159258Y60198
X159258Y62738
X175514Y60198
X175514Y62738
X172974Y60198
X172974Y62738
X170434Y60198
X170434Y62738
X7874Y101346
X7874Y103886
X5334Y101346
X5334Y103886
X2794Y101346
X2794Y103886
X19050Y101346
X19050Y103886
X16510Y101346
X16510Y103886
X13970Y101346
X13970Y103886
X30226Y101346
X30226Y103886
X27686Y101346
X27686Y103886
X25146Y101346
X25146Y103886
X41402Y101346
X41402Y103886
X38862Y101346
X38862Y103886
X36322Y101346
X36322Y103886
X52578Y101346
X52578Y103886
X50038Y101346
X50038Y103886
X47498Y101346
X47498Y103886
X63754Y101346
X63754Y103886
X61214Y101346
X61214Y103886
X58674Y101346
X58674Y103886
X74930Y101346
X74930Y103886
X72390Y101346
X72390Y103886
X69850Y101346
X69850Y103886
X86106Y101346
X86106Y103886
X83566Y101346
X83566Y103886
X81026Y101346
X81026Y103886
X97282Y101346
X97282Y103886
X94742Y101346
X94742Y103886
X92202Y101346
X92202Y103886
X108458Y101346
X108458Y103886
X105918Y101346
X105918Y103886
X103378Y101346
X103378Y103886
X119634Y101346
X119634Y103886
X117094Y101346
X117094Y103886
X114554Y101346
X114554Y103886
X130810Y101346
X130810Y103886
X128270Y101346
X128270Y103886
X125730Y101346
X125730Y103886
X141986Y101346
X141986Y103886
X139446Y101346
X139446Y103886
X136906Y101346
X136906Y103886
X153162Y101346
X153162Y103886
X150622Y101346
X150622Y103886
X148082Y101346
X148082Y103886
X164338Y101346
X164338Y103886
X161798Y101346
X161798Y103886
X159258Y101346
X159258Y103886
X175514Y101346
X175514Y103886
X172974Y101346
X172974Y103886
X170434Y101346
T2
X34465Y11430
X36878Y14795
X34465Y14478
X39878Y10160
X40752Y13049
X37846Y30480
X42276Y11684
X41704Y16637
X38449Y6255
X39878Y7620
X40450Y21527
X40450Y19622
X41275Y6255
X37069Y16256
X39656Y11620
X34465Y33433
X41021Y34163
X41112Y1587
X40640Y2096
X40132Y1587
X39624Y2096
X39132Y1587
X38672Y2540
X38132Y1587
X37592Y2159
X37132Y1587
X36322Y28208
X35426Y20356
X38640Y20352
X36576Y2159
X36195Y25671
X35037Y19749
X42106Y1582
X35370Y2159
X37047Y37846
X40614Y37846
X40894Y29908
X40894Y30607
X38354Y11620
X37719Y11620
X34735Y1651
X34258Y2127
X43053Y1397
X41339Y15494
X41593Y25844
X41085Y32321
X41085Y33020
X41339Y12414
X41339Y11652
X42281Y17463
X35797Y28829
X36107Y20356
X36957Y15511
X37102Y9017
X39243Y29527
X38799Y30480
X54038Y4890
X52832Y2159
X47307Y1587
X48038Y33433
X47969Y38545
X52107Y38545
X45641Y23495
X50038Y24060
X45641Y28829
X45974Y35560
X45641Y29845
X51752Y28638
X53403Y28638
X53403Y26479
X47927Y24384
X52387Y24447
X45641Y19304
X45641Y18225
X45959Y4255
X45895Y2731
X53403Y35560
X54800Y40069
X45339Y39116
X54150Y2223
X50228Y3746
X46911Y17590
X46753Y26860
X48038Y32099
X50038Y36068
X45641Y8128
X45641Y11430
X48054Y14795
X45641Y14478
X51054Y10160
X51928Y13049
X49022Y30480
X53452Y11684
X52880Y16637
X49625Y6255
X51054Y7620
X51625Y21527
X51625Y19622
X52451Y6255
X48245Y16256
X50832Y11620
X45641Y33433
X52197Y34163
X52288Y1587
X51816Y2096
X51308Y1587
X50800Y2096
X50308Y1587
X49847Y2540
X49308Y1587
X48768Y2159
X48308Y1587
X47498Y28208
X46602Y20356
X49816Y20352
X47752Y2159
X47371Y25671
X46213Y19749
X53282Y1582
X46545Y2159
X48223Y37846
X51789Y37846
X52070Y29908
X52070Y30607
X49530Y11620
X48895Y11620
X45910Y1651
X45434Y2127
X54229Y1397
X52514Y15494
X52768Y25844
X52260Y32321
X52260Y33020
X52514Y12414
X52514Y11652
X53457Y17463
X46973Y28829
X47283Y20356
X48133Y15511
X48278Y9017
X50419Y29527
X49974Y30480
X65214Y4890
X64008Y2159
X58483Y1587
X59214Y33433
X59145Y38545
X63283Y38545
X56817Y23495
X61214Y24060
X56817Y28829
X57150Y35560
X56817Y29845
X62928Y28638
X64579Y28638
X64579Y26479
X59103Y24384
X63563Y24447
X56817Y19304
X56817Y18225
X57135Y4255
X57071Y2731
X64579Y35560
X65977Y40069
X56515Y39116
X65326Y2223
X61404Y3746
X58087Y17590
X57929Y26860
X59214Y32099
X61214Y36068
X56817Y8128
X56817Y11430
X59230Y14795
X56817Y14478
X62230Y10160
X63104Y13049
X60198Y30480
X64628Y11684
X64056Y16637
X60801Y6255
X62230Y7620
X62801Y21527
X62801Y19622
X63627Y6255
X59421Y16256
X62008Y11620
X56817Y33433
X63373Y34163
X63464Y1587
X62992Y2096
X62484Y1587
X61976Y2096
X61484Y1587
X61023Y2540
X60484Y1587
X59944Y2159
X59484Y1587
X58674Y28208
X57778Y20356
X60992Y20352
X58928Y2159
X58547Y25671
X57389Y19749
X64458Y1582
X57721Y2159
X59399Y37846
X62965Y37846
X63246Y29908
X63246Y30607
X60706Y11620
X60071Y11620
X57086Y1651
X56610Y2127
X65405Y1397
X63690Y15494
X63944Y25844
X63436Y32321
X63436Y33020
X63690Y12414
X63690Y11652
X64633Y17463
X58149Y28829
X58459Y20356
X59309Y15511
X59454Y9017
X61595Y29527
X61150Y30480
X76391Y4890
X75184Y2159
X69660Y1587
X70390Y33433
X70321Y38545
X74459Y38545
X67993Y23495
X72390Y24060
X67993Y28829
X68326Y35560
X67993Y29845
X74105Y28638
X75756Y28638
X75756Y26479
X70279Y24384
X74740Y24447
X67993Y19304
X67993Y18225
X68311Y4255
X68247Y2731
X75756Y35560
X77153Y40069
X67691Y39116
X76502Y2223
X72581Y3746
X69263Y17590
X69105Y26860
X70390Y32099
X72390Y36068
X67993Y8128
X67993Y11430
X70406Y14795
X67993Y14478
X73406Y10160
X74280Y13049
X71374Y30480
X75804Y11684
X75232Y16637
X71977Y6255
X73406Y7620
X73978Y21527
X73978Y19622
X74803Y6255
X70597Y16256
X73184Y11620
X67993Y33433
X74549Y34163
X74640Y1587
X74168Y2096
X73660Y1587
X73152Y2096
X72660Y1587
X72200Y2540
X71660Y1587
X71120Y2159
X70660Y1587
X69850Y28208
X68954Y20356
X72168Y20352
X70104Y2159
X69723Y25671
X68565Y19749
X75634Y1582
X68898Y2159
X70575Y37846
X74142Y37846
X74422Y29908
X74422Y30607
X71882Y11620
X71247Y11620
X68263Y1651
X67786Y2127
X76581Y1397
X74867Y15494
X75121Y25844
X74613Y32321
X74613Y33020
X74867Y12414
X74867Y11652
X75809Y17463
X69325Y28829
X69635Y20356
X70485Y15511
X70630Y9017
X72771Y29527
X72327Y30480
X87566Y4890
X86360Y2159
X80836Y1587
X81566Y33433
X81497Y38545
X85635Y38545
X79169Y23495
X83566Y24060
X79169Y28829
X79502Y35560
X79169Y29845
X85281Y28638
X86932Y28638
X86932Y26479
X81455Y24384
X85916Y24447
X79169Y19304
X79169Y18225
X79487Y4255
X79423Y2731
X86932Y35560
X88328Y40069
X78867Y39116
X87678Y2223
X83757Y3746
X80439Y17590
X80281Y26860
X81566Y32099
X83566Y36068
X79169Y8128
X79169Y11430
X81582Y14795
X79169Y14478
X84582Y10160
X85456Y13049
X82550Y30480
X86980Y11684
X86408Y16637
X83153Y6255
X84582Y7620
X85154Y21527
X85154Y19622
X85979Y6255
X81773Y16256
X84360Y11620
X79169Y33433
X85725Y34163
X85816Y1587
X85344Y2096
X84836Y1587
X84328Y2096
X83836Y1587
X83376Y2540
X82836Y1587
X82296Y2159
X81836Y1587
X81026Y28208
X80130Y20356
X83344Y20352
X81280Y2159
X80899Y25671
X79741Y19749
X86810Y1582
X80074Y2159
X81751Y37846
X85318Y37846
X85598Y29908
X85598Y30607
X83058Y11620
X82423Y11620
X79439Y1651
X78962Y2127
X87757Y1397
X86043Y15494
X86297Y25844
X85789Y32321
X85789Y33020
X86043Y12414
X86043Y11652
X86985Y17463
X80501Y28829
X80811Y20356
X81661Y15511
X81806Y9017
X83947Y29527
X83503Y30480
X98742Y4890
X97536Y2159
X92011Y1587
X92742Y33433
X92673Y38545
X96811Y38545
X90345Y23495
X94742Y24060
X90345Y28829
X90678Y35560
X90345Y29845
X96456Y28638
X98107Y28638
X98107Y26479
X92631Y24384
X97091Y24447
X90345Y19304
X90345Y18225
X90663Y4255
X90599Y2731
X98107Y35560
X99504Y40069
X90043Y39116
X98854Y2223
X94932Y3746
X91615Y17590
X91457Y26860
X92742Y32099
X94742Y36068
X90345Y8128
X90345Y11430
X92758Y14795
X90345Y14478
X95758Y10160
X96632Y13049
X93726Y30480
X98156Y11684
X97584Y16637
X94329Y6255
X95758Y7620
X96329Y21527
X96329Y19622
X97155Y6255
X92949Y16256
X95536Y11620
X90345Y33433
X96901Y34163
X96992Y1587
X96520Y2096
X96012Y1587
X95504Y2096
X95012Y1587
X94551Y2540
X94012Y1587
X93472Y2159
X93012Y1587
X92202Y28208
X91306Y20356
X94520Y20352
X92456Y2159
X92075Y25671
X90917Y19749
X97986Y1582
X91249Y2159
X92927Y37846
X96493Y37846
X96774Y29908
X96774Y30607
X94234Y11620
X93599Y11620
X90614Y1651
X90138Y2127
X98933Y1397
X97218Y15494
X97472Y25844
X96964Y32321
X96964Y33020
X97218Y12414
X97218Y11652
X98161Y17463
X91677Y28829
X91987Y20356
X92837Y15511
X92982Y9017
X95123Y29527
X94678Y30480
X109918Y4890
X108712Y2159
X103187Y1587
X103918Y33433
X103849Y38545
X107987Y38545
X101521Y23495
X105918Y24060
X101521Y28829
X101854Y35560
X101521Y29845
X107632Y28638
X109283Y28638
X109283Y26479
X103807Y24384
X108267Y24447
X101521Y19304
X101521Y18225
X101839Y4255
X101775Y2731
X109283Y35560
X110680Y40069
X101219Y39116
X110030Y2223
X106108Y3746
X102791Y17590
X102633Y26860
X103918Y32099
X105918Y36068
X101521Y8128
X101521Y11430
X103934Y14795
X101521Y14478
X106934Y10160
X107808Y13049
X104902Y30480
X109332Y11684
X108760Y16637
X105505Y6255
X106934Y7620
X107505Y21527
X107505Y19622
X108331Y6255
X104125Y16256
X106712Y11620
X101521Y33433
X108077Y34163
X108168Y1587
X107696Y2096
X107188Y1587
X106680Y2096
X106188Y1587
X105727Y2540
X105188Y1587
X104648Y2159
X104188Y1587
X103378Y28208
X102482Y20356
X105696Y20352
X103632Y2159
X103251Y25671
X102093Y19749
X109162Y1582
X102425Y2159
X104103Y37846
X107669Y37846
X107950Y29908
X107950Y30607
X105410Y11620
X104775Y11620
X101790Y1651
X101314Y2127
X110109Y1397
X108394Y15494
X108648Y25844
X108140Y32321
X108140Y33020
X108394Y12414
X108394Y11652
X109337Y17463
X102853Y28829
X103163Y20356
X104013Y15511
X104158Y9017
X106299Y29527
X105854Y30480
X121094Y4890
X119888Y2159
X114363Y1587
X115094Y33433
X115025Y38545
X119163Y38545
X112697Y23495
X117094Y24060
X112697Y28829
X113030Y35560
X112697Y29845
X118808Y28638
X120459Y28638
X120459Y26479
X114983Y24384
X119443Y24447
X112697Y19304
X112697Y18225
X113015Y4255
X112951Y2731
X120459Y35560
X121856Y40069
X112395Y39116
X121206Y2223
X117284Y3746
X113967Y17590
X113809Y26860
X115094Y32099
X117094Y36068
X112697Y8128
X112697Y11430
X115110Y14795
X112697Y14478
X118110Y10160
X118984Y13049
X116078Y30480
X120508Y11684
X119936Y16637
X116681Y6255
X118110Y7620
X118681Y21527
X118681Y19622
X119507Y6255
X115301Y16256
X117888Y11620
X112697Y33433
X119253Y34163
X119344Y1587
X118872Y2096
X118364Y1587
X117856Y2096
X117364Y1587
X116903Y2540
X116364Y1587
X115824Y2159
X115364Y1587
X114554Y28208
X113658Y20356
X116872Y20352
X114808Y2159
X114427Y25671
X113269Y19749
X120338Y1582
X113601Y2159
X115279Y37846
X118845Y37846
X119126Y29908
X119126Y30607
X116586Y11620
X115951Y11620
X112966Y1651
X112490Y2127
X121285Y1397
X119570Y15494
X119824Y25844
X119316Y32321
X119316Y33020
X119570Y12414
X119570Y11652
X120513Y17463
X114029Y28829
X114339Y20356
X115189Y15511
X115334Y9017
X117475Y29527
X117030Y30480
X132271Y4890
X131064Y2159
X125539Y1587
X126270Y33433
X126201Y38545
X130339Y38545
X123873Y23495
X128270Y24060
X123873Y28829
X124206Y35560
X123873Y29845
X129984Y28638
X131636Y28638
X131636Y26479
X126159Y24384
X130619Y24447
X123873Y19304
X123873Y18225
X124191Y4255
X124127Y2731
X131636Y35560
X133033Y40069
X123571Y39116
X132382Y2223
X128460Y3746
X125143Y17590
X124985Y26860
X126270Y32099
X128270Y36068
X123873Y8128
X123873Y11430
X126286Y14795
X123873Y14478
X129286Y10160
X130160Y13049
X127254Y30480
X131684Y11684
X131112Y16637
X127857Y6255
X129286Y7620
X129857Y21527
X129857Y19622
X130683Y6255
X126477Y16256
X129064Y11620
X123873Y33433
X130429Y34163
X130520Y1587
X130048Y2096
X129540Y1587
X129032Y2096
X128540Y1587
X128079Y2540
X127540Y1587
X127000Y2159
X126540Y1587
X125730Y28208
X124834Y20356
X128048Y20352
X125984Y2159
X125603Y25671
X124445Y19749
X131514Y1582
X124777Y2159
X126455Y37846
X130021Y37846
X130302Y29908
X130302Y30607
X127762Y11620
X127127Y11620
X124142Y1651
X123666Y2127
X132461Y1397
X130746Y15494
X131000Y25844
X130492Y32321
X130492Y33020
X130746Y12414
X130746Y11652
X131689Y17463
X125205Y28829
X125515Y20356
X126365Y15511
X126510Y9017
X128651Y29527
X128206Y30480
X143447Y4890
X142240Y2159
X136716Y1587
X137446Y33433
X137377Y38545
X141515Y38545
X135049Y23495
X139446Y24060
X135049Y28829
X135382Y35560
X135049Y29845
X141161Y28638
X142812Y28638
X142812Y26479
X137335Y24384
X141796Y24447
X135049Y19304
X135049Y18225
X135367Y4255
X135303Y2731
X142812Y35560
X144209Y40069
X134747Y39116
X143558Y2223
X139637Y3746
X136319Y17590
X136161Y26860
X137446Y32099
X139446Y36068
X135049Y8128
X135049Y11430
X137462Y14795
X135049Y14478
X140462Y10160
X141336Y13049
X138430Y30480
X142860Y11684
X142288Y16637
X139033Y6255
X140462Y7620
X141034Y21527
X141034Y19622
X141859Y6255
X137653Y16256
X140240Y11620
X135049Y33433
X141605Y34163
X141696Y1587
X141224Y2096
X140716Y1587
X140208Y2096
X139716Y1587
X139256Y2540
X138716Y1587
X138176Y2159
X137716Y1587
X136906Y28208
X136010Y20356
X139224Y20352
X137160Y2159
X136779Y25671
X135621Y19749
X142690Y1582
X135954Y2159
X137631Y37846
X141198Y37846
X141478Y29908
X141478Y30607
X138938Y11620
X138303Y11620
X135319Y1651
X134842Y2127
X143637Y1397
X141923Y15494
X142177Y25844
X141669Y32321
X141669Y33020
X141923Y12414
X141923Y11652
X142865Y17463
X136381Y28829
X136691Y20356
X137541Y15511
X137686Y9017
X139827Y29527
X139383Y30480
X154623Y4890
X153416Y2159
X147892Y1587
X148622Y33433
X148553Y38545
X152691Y38545
X146225Y23495
X150622Y24060
X146225Y28829
X146558Y35560
X146225Y29845
X152337Y28638
X153988Y28638
X153988Y26479
X148511Y24384
X152972Y24447
X146225Y19304
X146225Y18225
X146543Y4255
X146479Y2731
X153988Y35560
X155385Y40069
X145923Y39116
X154734Y2223
X150813Y3746
X147495Y17590
X147337Y26860
X148622Y32099
X150622Y36068
X146225Y8128
X146225Y11430
X148638Y14795
X146225Y14478
X151638Y10160
X152512Y13049
X149606Y30480
X154036Y11684
X153464Y16637
X150209Y6255
X151638Y7620
X152210Y21527
X152210Y19622
X153035Y6255
X148829Y16256
X151416Y11620
X146225Y33433
X152781Y34163
X152872Y1587
X152400Y2096
X151892Y1587
X151384Y2096
X150892Y1587
X150432Y2540
X149892Y1587
X149352Y2159
X148892Y1587
X148082Y28208
X147186Y20356
X150400Y20352
X148336Y2159
X147955Y25671
X146797Y19749
X153866Y1582
X147130Y2159
X148807Y37846
X152374Y37846
X152654Y29908
X152654Y30607
X150114Y11620
X149479Y11620
X146495Y1651
X146018Y2127
X154813Y1397
X153099Y15494
X153353Y25844
X152845Y32321
X152845Y33020
X153099Y12414
X153099Y11652
X154041Y17463
X147557Y28829
X147867Y20356
X148717Y15511
X148862Y9017
X151003Y29527
X150559Y30480
X165799Y4890
X164592Y2159
X159068Y1587
X159798Y33433
X159729Y38545
X163867Y38545
X157401Y23495
X161798Y24060
X157401Y28829
X157734Y35560
X157401Y29845
X163513Y28638
X165164Y28638
X165164Y26479
X159687Y24384
X164148Y24447
X157401Y19304
X157401Y18225
X157719Y4255
X157655Y2731
X165164Y35560
X166561Y40069
X157099Y39116
X165910Y2223
X161989Y3746
X158671Y17590
X158513Y26860
X159798Y32099
X161798Y36068
X157401Y8128
X157401Y11430
X159814Y14795
X157401Y14478
X162814Y10160
X163688Y13049
X160782Y30480
X165212Y11684
X164640Y16637
X161385Y6255
X162814Y7620
X163386Y21527
X163386Y19622
X164211Y6255
X160005Y16256
X162592Y11620
X157401Y33433
X163957Y34163
X164048Y1587
X163576Y2096
X163068Y1587
X162560Y2096
X162068Y1587
X161608Y2540
X161068Y1587
X160528Y2159
X160068Y1587
X159258Y28208
X158362Y20356
X161576Y20352
X159512Y2159
X159131Y25671
X157973Y19749
X165042Y1582
X158306Y2159
X159983Y37846
X163550Y37846
X163830Y29908
X163830Y30607
X161290Y11620
X160655Y11620
X157671Y1651
X157194Y2127
X165989Y1397
X164275Y15494
X164529Y25844
X164021Y32321
X164021Y33020
X164275Y12414
X164275Y11652
X165217Y17463
X158733Y28829
X159043Y20356
X159893Y15511
X160038Y9017
X162179Y29527
X161735Y30480
X176974Y4890
X175768Y2159
X170244Y1587
X170974Y33433
X170905Y38545
X175043Y38545
X168577Y23495
X172974Y24060
X168577Y28829
X168910Y35560
X168577Y29845
X174689Y28638
X176339Y28638
X176339Y26479
X170863Y24384
X175323Y24447
X168577Y19304
X168577Y18225
X168895Y4255
X168831Y2731
X176339Y35560
X177736Y40069
X168275Y39116
X177086Y2223
X173165Y3746
X169847Y17590
X169689Y26860
X170974Y32099
X172974Y36068
X168577Y8128
X168577Y11430
X170990Y14795
X168577Y14478
X173990Y10160
X174864Y13049
X171958Y30480
X176388Y11684
X175816Y16637
X172561Y6255
X173990Y7620
X174562Y21527
X174562Y19622
X175387Y6255
X171181Y16256
X173768Y11620
X168577Y33433
X175133Y34163
X175224Y1587
X174752Y2096
X174244Y1587
X173736Y2096
X173244Y1587
X172784Y2540
X172244Y1587
X171704Y2159
X171244Y1587
X170434Y28208
X169538Y20356
X172752Y20352
X170688Y2159
X170307Y25671
X169149Y19749
X176218Y1582
X169482Y2159
X171159Y37846
X174726Y37846
X175006Y29908
X175006Y30607
X172466Y11620
X171831Y11620
X168847Y1651
X168370Y2127
X177165Y1397
X175450Y15494
X175704Y25844
X175196Y32321
X175196Y33020
X175450Y12414
X175450Y11652
X176393Y17463
X169909Y28829
X170219Y20356
X171069Y15511
X171214Y9017
X173355Y29527
X172911Y30480
X9335Y46037
X8128Y43307
X2604Y42736
X3334Y74581
X3265Y79693
X7403Y79693
X937Y64643
X5334Y65208
X937Y69977
X1270Y76708
X937Y70993
X7048Y69787
X8700Y69787
X8700Y67628
X3223Y65532
X7683Y65596
X937Y60452
X937Y59372
X1255Y45402
X1191Y43878
X8700Y76708
X10097Y81217
X635Y80264
X9446Y43371
X5524Y44894
X2207Y58737
X2049Y68009
X3334Y73247
X5334Y77216
X937Y49276
X937Y52578
X3350Y55943
X937Y55626
X6350Y51308
X7224Y54197
X4318Y71628
X8748Y52832
X8176Y57785
X4921Y47403
X6350Y48768
X6921Y62674
X6921Y60769
X7747Y47403
X3541Y57404
X6128Y52768
X937Y74581
X7493Y75311
X7584Y42736
X7112Y43244
X6604Y42736
X6096Y43244
X5604Y42736
X5144Y43688
X4604Y42736
X4064Y43307
X3604Y42736
X2794Y69356
X1898Y61504
X5112Y61500
X3048Y43307
X2667Y66820
X1509Y60896
X8578Y42730
X1841Y43307
X3519Y78994
X7085Y78994
X7366Y71057
X7366Y71755
X4826Y52768
X4191Y52768
X1207Y42799
X730Y43275
X9525Y42545
X7810Y56642
X8064Y66993
X7556Y73470
X7556Y74168
X7810Y53562
X7810Y52800
X8753Y58610
X2269Y69977
X2579Y61504
X3429Y56659
X3574Y50165
X5715Y70676
X5271Y71628
X20511Y46037
X19304Y43307
X13779Y42736
X14510Y74581
X14441Y79693
X18579Y79693
X12113Y64643
X16510Y65208
X12113Y69977
X12446Y76708
X12113Y70993
X18225Y69787
X19876Y69787
X19876Y67628
X14399Y65532
X18860Y65596
X12113Y60452
X12113Y59372
X12431Y45402
X12367Y43878
X19876Y76708
X21273Y81217
X11811Y80264
X20622Y43371
X16701Y44894
X13383Y58737
X13225Y68009
X14510Y73247
X16510Y77216
X12113Y49276
X12113Y52578
X14526Y55943
X12113Y55626
X17526Y51308
X18400Y54197
X15494Y71628
X19924Y52832
X19352Y57785
X16097Y47403
X17526Y48768
X18098Y62674
X18098Y60769
X18923Y47403
X14717Y57404
X17304Y52768
X12113Y74581
X18669Y75311
X18760Y42736
X18288Y43244
X17780Y42736
X17272Y43244
X16780Y42736
X16319Y43688
X15780Y42736
X15240Y43307
X14780Y42736
X13970Y69356
X13074Y61504
X16288Y61500
X14224Y43307
X13843Y66820
X12685Y60896
X19754Y42730
X13017Y43307
X14695Y78994
X18262Y78994
X18542Y71057
X18542Y71755
X16002Y52768
X15367Y52768
X12382Y42799
X11906Y43275
X20701Y42545
X18987Y56642
X19241Y66993
X18733Y73470
X18733Y74168
X18987Y53562
X18987Y52800
X19929Y58610
X13445Y69977
X13755Y61504
X14605Y56659
X14750Y50165
X16891Y70676
X16447Y71628
X31686Y46037
X30480Y43307
X24955Y42736
X25686Y74581
X25617Y79693
X29755Y79693
X23289Y64643
X27686Y65208
X23289Y69977
X23622Y76708
X23289Y70993
X29400Y69787
X31051Y69787
X31051Y67628
X25575Y65532
X30035Y65596
X23289Y60452
X23289Y59372
X23607Y45402
X23543Y43878
X31051Y76708
X32448Y81217
X22987Y80264
X31798Y43371
X27876Y44894
X24559Y58737
X24401Y68009
X25686Y73247
X27686Y77216
X23289Y49276
X23289Y52578
X25702Y55943
X23289Y55626
X28702Y51308
X29576Y54197
X26670Y71628
X31100Y52832
X30528Y57785
X27273Y47403
X28702Y48768
X29273Y62674
X29273Y60769
X30099Y47403
X25893Y57404
X28480Y52768
X23289Y74581
X29845Y75311
X29936Y42736
X29464Y43244
X28956Y42736
X28448Y43244
X27956Y42736
X27495Y43688
X26956Y42736
X26416Y43307
X25956Y42736
X25146Y69356
X24250Y61504
X27464Y61500
X25400Y43307
X25019Y66820
X23861Y60896
X30930Y42730
X24193Y43307
X25871Y78994
X29437Y78994
X29718Y71057
X29718Y71755
X27178Y52768
X26543Y52768
X23558Y42799
X23082Y43275
X31877Y42545
X30162Y56642
X30416Y66993
X29908Y73470
X29908Y74168
X30162Y53562
X30162Y52800
X31105Y58610
X24621Y69977
X24931Y61504
X25781Y56659
X25926Y50165
X28067Y70676
X27622Y71628
X42863Y46037
X41656Y43307
X36132Y42736
X36862Y74581
X36793Y79693
X40931Y79693
X34465Y64643
X38862Y65208
X34465Y69977
X34798Y76708
X34465Y70993
X40577Y69787
X42228Y69787
X42228Y67628
X36751Y65532
X41212Y65596
X34465Y60452
X34465Y59372
X34783Y45402
X34719Y43878
X42228Y76708
X43625Y81217
X34163Y80264
X42974Y43371
X39053Y44894
X35735Y58737
X35577Y68009
X36862Y73247
X38862Y77216
X34465Y49276
X34465Y52578
X36878Y55943
X34465Y55626
X39878Y51308
X40752Y54197
X37846Y71628
X42276Y52832
X41704Y57785
X38449Y47403
X39878Y48768
X40450Y62674
X40450Y60769
X41275Y47403
X37069Y57404
X39656Y52768
X34465Y74581
X41021Y75311
X41112Y42736
X40640Y43244
X40132Y42736
X39624Y43244
X39132Y42736
X38672Y43688
X38132Y42736
X37592Y43307
X37132Y42736
X36322Y69356
X35426Y61504
X38640Y61500
X36576Y43307
X36195Y66820
X35037Y60896
X42106Y42730
X35370Y43307
X37047Y78994
X40614Y78994
X40894Y71057
X40894Y71755
X38354Y52768
X37719Y52768
X34735Y42799
X34258Y43275
X43053Y42545
X41339Y56642
X41593Y66993
X41085Y73470
X41085Y74168
X41339Y53562
X41339Y52800
X42281Y58610
X35797Y69977
X36107Y61504
X36957Y56659
X37102Y50165
X39243Y70676
X38799Y71628
X54038Y46037
X52832Y43307
X47307Y42736
X48038Y74581
X47969Y79693
X52107Y79693
X45641Y64643
X50038Y65208
X45641Y69977
X45974Y76708
X45641Y70993
X51752Y69787
X53403Y69787
X53403Y67628
X47927Y65532
X52387Y65596
X45641Y60452
X45641Y59372
X45959Y45402
X45895Y43878
X53403Y76708
X54800Y81217
X45339Y80264
X54150Y43371
X50228Y44894
X46911Y58737
X46753Y68009
X48038Y73247
X50038Y77216
X45641Y49276
X45641Y52578
X48054Y55943
X45641Y55626
X51054Y51308
X51928Y54197
X49022Y71628
X53452Y52832
X52880Y57785
X49625Y47403
X51054Y48768
X51625Y62674
X51625Y60769
X52451Y47403
X48245Y57404
X50832Y52768
X45641Y74581
X52197Y75311
X52288Y42736
X51816Y43244
X51308Y42736
X50800Y43244
X50308Y42736
X49847Y43688
X49308Y42736
X48768Y43307
X48308Y42736
X47498Y69356
X46602Y61504
X49816Y61500
X47752Y43307
X47371Y66820
X46213Y60896
X53282Y42730
X46545Y43307
X48223Y78994
X51789Y78994
X52070Y71057
X52070Y71755
X49530Y52768
X48895Y52768
X45910Y42799
X45434Y43275
X54229Y42545
X52514Y56642
X52768Y66993
X52260Y73470
X52260Y74168
X52514Y53562
X52514Y52800
X53457Y58610
X46973Y69977
X47283Y61504
X48133Y56659
X48278Y50165
X50419Y70676
X49974Y71628
X65214Y46037
X64008Y43307
X58483Y42736
X59214Y74581
X59145Y79693
X63283Y79693
X56817Y64643
X61214Y65208
X56817Y69977
X57150Y76708
X56817Y70993
X62928Y69787
X64579Y69787
X64579Y67628
X59103Y65532
X63563Y65596
X56817Y60452
X56817Y59372
X57135Y45402
X57071Y43878
X64579Y76708
X65977Y81217
X56515Y80264
X65326Y43371
X61404Y44894
X58087Y58737
X57929Y68009
X59214Y73247
X61214Y77216
X56817Y49276
X56817Y52578
X59230Y55943
X56817Y55626
X62230Y51308
X63104Y54197
X60198Y71628
X64628Y52832
X64056Y57785
X60801Y47403
X62230Y48768
X62801Y62674
X62801Y60769
X63627Y47403
X59421Y57404
X62008Y52768
X56817Y74581
X63373Y75311
X63464Y42736
X62992Y43244
X62484Y42736
X61976Y43244
X61484Y42736
X61023Y43688
X60484Y42736
X59944Y43307
X59484Y42736
X58674Y69356
X57778Y61504
X60992Y61500
X58928Y43307
X58547Y66820
X57389Y60896
X64458Y42730
X57721Y43307
X59399Y78994
X62965Y78994
X63246Y71057
X63246Y71755
X60706Y52768
X60071Y52768
X57086Y42799
X56610Y43275
X65405Y42545
X63690Y56642
X63944Y66993
X63436Y73470
X63436Y74168
X63690Y53562
X63690Y52800
X64633Y58610
X58149Y69977
X58459Y61504
X59309Y56659
X59454Y50165
X61595Y70676
X61150Y71628
X76391Y46037
X75184Y43307
X69660Y42736
X70390Y74581
X70321Y79693
X74459Y79693
X67993Y64643
X72390Y65208
X67993Y69977
X68326Y76708
X67993Y70993
X74105Y69787
X75756Y69787
X75756Y67628
X70279Y65532
X74740Y65596
X67993Y60452
X67993Y59372
X68311Y45402
X68247Y43878
X75756Y76708
X77153Y81217
X67691Y80264
X76502Y43371
X72581Y44894
X69263Y58737
X69105Y68009
X70390Y73247
X72390Y77216
X67993Y49276
X67993Y52578
X70406Y55943
X67993Y55626
X73406Y51308
X74280Y54197
X71374Y71628
X75804Y52832
X75232Y57785
X71977Y47403
X73406Y48768
X73978Y62674
X73978Y60769
X74803Y47403
X70597Y57404
X73184Y52768
X67993Y74581
X74549Y75311
X74640Y42736
X74168Y43244
X73660Y42736
X73152Y43244
X72660Y42736
X72200Y43688
X71660Y42736
X71120Y43307
X70660Y42736
X69850Y69356
X68954Y61504
X72168Y61500
X70104Y43307
X69723Y66820
X68565Y60896
X75634Y42730
X68898Y43307
X70575Y78994
X74142Y78994
X74422Y71057
X74422Y71755
X71882Y52768
X71247Y52768
X68263Y42799
X67786Y43275
X76581Y42545
X74867Y56642
X75121Y66993
X74613Y73470
X74613Y74168
X74867Y53562
X74867Y52800
X75809Y58610
X69325Y69977
X69635Y61504
X70485Y56659
X70630Y50165
X72771Y70676
X72327Y71628
X87566Y46037
X86360Y43307
X80836Y42736
X81566Y74581
X81497Y79693
X85635Y79693
X79169Y64643
X83566Y65208
X79169Y69977
X79502Y76708
X79169Y70993
X85281Y69787
X86932Y69787
X86932Y67628
X81455Y65532
X85916Y65596
X79169Y60452
X79169Y59372
X79487Y45402
X79423Y43878
X86932Y76708
X88328Y81217
X78867Y80264
X87678Y43371
X83757Y44894
X80439Y58737
X80281Y68009
X81566Y73247
X83566Y77216
X79169Y49276
X79169Y52578
X81582Y55943
X79169Y55626
X84582Y51308
X85456Y54197
X82550Y71628
X86980Y52832
X86408Y57785
X83153Y47403
X84582Y48768
X85154Y62674
X85154Y60769
X85979Y47403
X81773Y57404
X84360Y52768
X79169Y74581
X85725Y75311
X85816Y42736
X85344Y43244
X84836Y42736
X84328Y43244
X83836Y42736
X83376Y43688
X82836Y42736
X82296Y43307
X81836Y42736
X81026Y69356
X80130Y61504
X83344Y61500
X81280Y43307
X80899Y66820
X79741Y60896
X86810Y42730
X80074Y43307
X81751Y78994
X85318Y78994
X85598Y71057
X85598Y71755
X83058Y52768
X82423Y52768
X79439Y42799
X78962Y43275
X87757Y42545
X86043Y56642
X86297Y66993
X85789Y73470
X85789Y74168
X86043Y53562
X86043Y52800
X86985Y58610
X80501Y69977
X80811Y61504
X81661Y56659
X81806Y50165
X83947Y70676
X83503Y71628
X98742Y46037
X97536Y43307
X92011Y42736
X92742Y74581
X92673Y79693
X96811Y79693
X90345Y64643
X94742Y65208
X90345Y69977
X90678Y76708
X90345Y70993
X96456Y69787
X98107Y69787
X98107Y67628
X92631Y65532
X97091Y65596
X90345Y60452
X90345Y59372
X90663Y45402
X90599Y43878
X98107Y76708
X99504Y81217
X90043Y80264
X98854Y43371
X94932Y44894
X91615Y58737
X91457Y68009
X92742Y73247
X94742Y77216
X90345Y49276
X90345Y52578
X92758Y55943
X90345Y55626
X95758Y51308
X96632Y54197
X93726Y71628
X98156Y52832
X97584Y57785
X94329Y47403
X95758Y48768
X96329Y62674
X96329Y60769
X97155Y47403
X92949Y57404
X95536Y52768
X90345Y74581
X96901Y75311
X96992Y42736
X96520Y43244
X96012Y42736
X95504Y43244
X95012Y42736
X94551Y43688
X94012Y42736
X93472Y43307
X93012Y42736
X92202Y69356
X91306Y61504
X94520Y61500
X92456Y43307
X92075Y66820
X90917Y60896
X97986Y42730
X91249Y43307
X92927Y78994
X96493Y78994
X96774Y71057
X96774Y71755
X94234Y52768
X93599Y52768
X90614Y42799
X90138Y43275
X98933Y42545
X97218Y56642
X97472Y66993
X96964Y73470
X96964Y74168
X97218Y53562
X97218Y52800
X98161Y58610
X91677Y69977
X91987Y61504
X92837Y56659
X92982Y50165
X95123Y70676
X94678Y71628
X109918Y46037
X108712Y43307
X103187Y42736
X103918Y74581
X103849Y79693
X107987Y79693
X101521Y64643
X105918Y65208
X101521Y69977
X101854Y76708
X101521Y70993
X107632Y69787
X109283Y69787
X109283Y67628
X103807Y65532
X108267Y65596
X101521Y60452
X101521Y59372
X101839Y45402
X101775Y43878
X109283Y76708
X110680Y81217
X101219Y80264
X110030Y43371
X106108Y44894
X102791Y58737
X102633Y68009
X103918Y73247
X105918Y77216
X101521Y49276
X101521Y52578
X103934Y55943
X101521Y55626
X106934Y51308
X107808Y54197
X104902Y71628
X109332Y52832
X108760Y57785
X105505Y47403
X106934Y48768
X107505Y62674
X107505Y60769
X108331Y47403
X104125Y57404
X106712Y52768
X101521Y74581
X108077Y75311
X108168Y42736
X107696Y43244
X107188Y42736
X106680Y43244
X106188Y42736
X105727Y43688
X105188Y42736
X104648Y43307
X104188Y42736
X103378Y69356
X102482Y61504
X105696Y61500
X103632Y43307
X103251Y66820
X102093Y60896
X109162Y42730
X102425Y43307
X104103Y78994
X107669Y78994
X107950Y71057
X107950Y71755
X105410Y52768
X104775Y52768
X101790Y42799
X101314Y43275
X110109Y42545
X108394Y56642
X108648Y66993
X108140Y73470
X108140Y74168
X108394Y53562
X108394Y52800
X109337Y58610
X102853Y69977
X103163Y61504
X104013Y56659
X104158Y50165
X106299Y70676
X105854Y71628
X121094Y46037
X119888Y43307
X114363Y42736
X115094Y74581
X115025Y79693
X119163Y79693
X112697Y64643
X117094Y65208
X112697Y69977
X113030Y76708
X112697Y70993
X118808Y69787
X120459Y69787
X120459Y67628
X114983Y65532
X119443Y65596
X112697Y60452
X112697Y59372
X113015Y45402
X112951Y43878
X120459Y76708
X121856Y81217
X112395Y80264
X121206Y43371
X117284Y44894
X113967Y58737
X113809Y68009
X115094Y73247
X117094Y77216
X112697Y49276
X112697Y52578
X115110Y55943
X112697Y55626
X118110Y51308
X118984Y54197
X116078Y71628
X120508Y52832
X119936Y57785
X116681Y47403
X118110Y48768
X118681Y62674
X118681Y60769
X119507Y47403
X115301Y57404
X117888Y52768
X112697Y74581
X119253Y75311
X119344Y42736
X118872Y43244
X118364Y42736
X117856Y43244
X117364Y42736
X116903Y43688
X116364Y42736
X115824Y43307
X115364Y42736
X114554Y69356
X113658Y61504
X116872Y61500
X114808Y43307
X114427Y66820
X113269Y60896
X120338Y42730
X113601Y43307
X115279Y78994
X118845Y78994
X119126Y71057
X119126Y71755
X116586Y52768
X115951Y52768
X112966Y42799
X112490Y43275
X121285Y42545
X119570Y56642
X119824Y66993
X119316Y73470
X119316Y74168
X119570Y53562
X119570Y52800
X120513Y58610
X114029Y69977
X114339Y61504
X115189Y56659
X115334Y50165
X117475Y70676
X117030Y71628
X132271Y46037
X131064Y43307
X125539Y42736
X126270Y74581
X126201Y79693
X130339Y79693
X123873Y64643
X128270Y65208
X123873Y69977
X124206Y76708
X123873Y70993
X129984Y69787
X131636Y69787
X131636Y67628
X126159Y65532
X130619Y65596
X123873Y60452
X123873Y59372
X124191Y45402
X124127Y43878
X131636Y76708
X133033Y81217
X123571Y80264
X132382Y43371
X128460Y44894
X125143Y58737
X124985Y68009
X126270Y73247
X128270Y77216
X123873Y49276
X123873Y52578
X126286Y55943
X123873Y55626
X129286Y51308
X130160Y54197
X127254Y71628
X131684Y52832
X131112Y57785
X127857Y47403
X129286Y48768
X129857Y62674
X129857Y60769
X130683Y47403
X126477Y57404
X129064Y52768
X123873Y74581
X130429Y75311
X130520Y42736
X130048Y43244
X129540Y42736
X129032Y43244
X128540Y42736
X128079Y43688
X127540Y42736
X127000Y43307
X126540Y42736
X125730Y69356
X124834Y61504
X128048Y61500
X125984Y43307
X125603Y66820
X124445Y60896
X131514Y42730
X124777Y43307
X126455Y78994
X130021Y78994
X130302Y71057
X130302Y71755
X127762Y52768
X127127Y52768
X124142Y42799
X123666Y43275
X132461Y42545
X130746Y56642
X131000Y66993
X130492Y73470
X130492Y74168
X130746Y53562
X130746Y52800
X131689Y58610
X125205Y69977
X125515Y61504
X126365Y56659
X126510Y50165
X128651Y70676
X128206Y71628
X143447Y46037
X142240Y43307
X136716Y42736
X137446Y74581
X137377Y79693
X141515Y79693
X135049Y64643
X139446Y65208
X135049Y69977
X135382Y76708
X135049Y70993
X141161Y69787
X142812Y69787
X142812Y67628
X137335Y65532
X141796Y65596
X135049Y60452
X135049Y59372
X135367Y45402
X135303Y43878
X142812Y76708
X144209Y81217
X134747Y80264
X143558Y43371
X139637Y44894
X136319Y58737
X136161Y68009
X137446Y73247
X139446Y77216
X135049Y49276
X135049Y52578
X137462Y55943
X135049Y55626
X140462Y51308
X141336Y54197
X138430Y71628
X142860Y52832
X142288Y57785
X139033Y47403
X140462Y48768
X141034Y62674
X141034Y60769
X141859Y47403
X137653Y57404
X140240Y52768
X135049Y74581
X141605Y75311
X141696Y42736
X141224Y43244
X140716Y42736
X140208Y43244
X139716Y42736
X139256Y43688
X138716Y42736
X138176Y43307
X137716Y42736
X136906Y69356
X136010Y61504
X139224Y61500
X137160Y43307
X136779Y66820
X135621Y60896
X142690Y42730
X135954Y43307
X137631Y78994
X141198Y78994
X141478Y71057
X141478Y71755
X138938Y52768
X138303Y52768
X135319Y42799
X134842Y43275
X143637Y42545
X141923Y56642
X142177Y66993
X141669Y73470
X141669Y74168
X141923Y53562
X141923Y52800
X142865Y58610
X136381Y69977
X136691Y61504
X137541Y56659
X137686Y50165
X139827Y70676
X139383Y71628
X154623Y46037
X153416Y43307
X147892Y42736
X148622Y74581
X148553Y79693
X152691Y79693
X146225Y64643
X150622Y65208
X146225Y69977
X146558Y76708
X146225Y70993
X152337Y69787
X153988Y69787
X153988Y67628
X148511Y65532
X152972Y65596
X146225Y60452
X146225Y59372
X146543Y45402
X146479Y43878
X153988Y76708
X155385Y81217
X145923Y80264
X154734Y43371
X150813Y44894
X147495Y58737
X147337Y68009
X148622Y73247
X150622Y77216
X146225Y49276
X146225Y52578
X148638Y55943
X146225Y55626
X151638Y51308
X152512Y54197
X149606Y71628
X154036Y52832
X153464Y57785
X150209Y47403
X151638Y48768
X152210Y62674
X152210Y60769
X153035Y47403
X148829Y57404
X151416Y52768
X146225Y74581
X152781Y75311
X152872Y42736
X152400Y43244
X151892Y42736
X151384Y43244
X150892Y42736
X150432Y43688
X149892Y42736
X149352Y43307
X148892Y42736
X148082Y69356
X147186Y61504
X150400Y61500
X148336Y43307
X147955Y66820
X146797Y60896
X153866Y42730
X147130Y43307
X148807Y78994
X152374Y78994
X152654Y71057
X152654Y71755
X150114Y52768
X149479Y52768
X146495Y42799
X146018Y43275
X154813Y42545
X153099Y56642
X153353Y66993
X152845Y73470
X152845Y74168
X153099Y53562
X153099Y52800
X154041Y58610
X147557Y69977
X147867Y61504
X148717Y56659
X148862Y50165
X151003Y70676
X150559Y71628
X165799Y46037
X164592Y43307
X159068Y42736
X159798Y74581
X159729Y79693
X163867Y79693
X157401Y64643
X161798Y65208
X157401Y69977
X157734Y76708
X157401Y70993
X163513Y69787
X165164Y69787
X165164Y67628
X159687Y65532
X164148Y65596
X157401Y60452
X157401Y59372
X157719Y45402
X157655Y43878
X165164Y76708
X166561Y81217
X157099Y80264
X165910Y43371
X161989Y44894
X158671Y58737
X158513Y68009
X159798Y73247
X161798Y77216
X157401Y49276
X157401Y52578
X159814Y55943
X157401Y55626
X162814Y51308
X163688Y54197
X160782Y71628
X165212Y52832
X164640Y57785
X161385Y47403
X162814Y48768
X163386Y62674
X163386Y60769
X164211Y47403
X160005Y57404
X162592Y52768
X157401Y74581
X163957Y75311
X164048Y42736
X163576Y43244
X163068Y42736
X162560Y43244
X162068Y42736
X161608Y43688
X161068Y42736
X160528Y43307
X160068Y42736
X159258Y69356
X158362Y61504
X161576Y61500
X159512Y43307
X159131Y66820
X157973Y60896
X165042Y42730
X158306Y43307
X159983Y78994
X163550Y78994
X163830Y71057
X163830Y71755
X161290Y52768
X160655Y52768
X157671Y42799
X157194Y43275
X165989Y42545
X164275Y56642
X164529Y66993
X164021Y73470
X164021Y74168
X164275Y53562
X164275Y52800
X165217Y58610
X158733Y69977
X159043Y61504
X159893Y56659
X160038Y50165
X162179Y70676
X161735Y71628
X176974Y46037
X175768Y43307
X170244Y42736
X170974Y74581
X170905Y79693
X175043Y79693
X168577Y64643
X172974Y65208
X168577Y69977
X168910Y76708
X168577Y70993
X174689Y69787
X176339Y69787
X176339Y67628
X170863Y65532
X175323Y65596
X168577Y60452
X168577Y59372
X168895Y45402
X168831Y43878
X176339Y76708
X177736Y81217
X168275Y80264
X177086Y43371
X173165Y44894
X169847Y58737
X169689Y68009
X170974Y73247
X172974Y77216
X168577Y49276
X168577Y52578
X170990Y55943
X168577Y55626
X173990Y51308
X174864Y54197
X171958Y71628
X176388Y52832
X175816Y57785
X172561Y47403
X173990Y48768
X174562Y62674
X174562Y60769
X175387Y47403
X171181Y57404
X173768Y52768
X168577Y74581
X175133Y75311
X175224Y42736
X174752Y43244
X174244Y42736
X173736Y43244
X173244Y42736
X172784Y43688
X172244Y42736
X171704Y43307
X171244Y42736
X170434Y69356
X169538Y61504
X172752Y61500
X170688Y43307
X170307Y66820
X169149Y60896
X176218Y42730
X169482Y43307
X171159Y78994
X174726Y78994
X175006Y71057
X175006Y71755
X172466Y52768
X171831Y52768
X168847Y42799
X168370Y43275
X177165Y42545
X175450Y56642
X175704Y66993
X175196Y73470
X175196Y74168
X175450Y53562
X175450Y52800
X176393Y58610
X169909Y69977
X170219Y61504
X171069Y56659
X171214Y50165
X173355Y70676
X172911Y71628
X9335Y87186
X8128Y84455
X2604Y83884
X3334Y115729
X3265Y120840
X7403Y120840
X937Y105791
X5334Y106356
X937Y111125
X1270Y117856
X937Y112141
X7048Y110934
X8700Y110934
X8700Y108775
X3223Y106680
X7683Y106743
X937Y101600
X937Y100520
X1255Y86551
X1191Y85027
X8700Y117856
X10097Y122364
X635Y121412
X9446Y84519
X5524Y86043
X2207Y99885
X2049Y109156
X3334Y114395
X5334Y118364
X937Y90424
X937Y93726
X3350Y97091
X937Y96774
X6350Y92456
X7224Y95345
X4318Y112776
X8748Y93980
X8176Y98933
X4921Y88551
X6350Y89916
X6921Y103822
X6921Y101917
X7747Y88551
X3541Y98552
X6128Y93916
X937Y115729
X7493Y116459
X7584Y83884
X7112Y84392
X6604Y83884
X6096Y84392
X5604Y83884
X5144Y84836
X4604Y83884
X4064Y84455
X3604Y83884
X2794Y110504
X1898Y102652
X5112Y102648
X3048Y84455
X2667Y107967
X1509Y102044
X8578Y83878
X1841Y84455
X3519Y120142
X7085Y120142
X7366Y112204
X7366Y112903
X4826Y93916
X4191Y93916
X1207Y83947
X730Y84423
X9525Y83693
X7810Y97790
X8064Y108140
X7556Y114617
X7556Y115316
X7810Y94710
X7810Y93948
X8753Y99758
X2269Y111125
X2579Y102652
X3429Y97807
X3574Y91313
X5715Y111823
X5271Y112776
X20511Y87186
X19304Y84455
X13779Y83884
X14510Y115729
X14441Y120840
X18579Y120840
X12113Y105791
X16510Y106356
X12113Y111125
X12446Y117856
X12113Y112141
X18225Y110934
X19876Y110934
X19876Y108775
X14399Y106680
X18860Y106743
X12113Y101600
X12113Y100520
X12431Y86551
X12367Y85027
X19876Y117856
X21273Y122364
X11811Y121412
X20622Y84519
X16701Y86043
X13383Y99885
X13225Y109156
X14510Y114395
X16510Y118364
X12113Y90424
X12113Y93726
X14526Y97091
X12113Y96774
X17526Y92456
X18400Y95345
X15494Y112776
X19924Y93980
X19352Y98933
X16097Y88551
X17526Y89916
X18098Y103822
X18098Y101917
X18923Y88551
X14717Y98552
X17304Y93916
X12113Y115729
X18669Y116459
X18760Y83884
X18288Y84392
X17780Y83884
X17272Y84392
X16780Y83884
X16319Y84836
X15780Y83884
X15240Y84455
X14780Y83884
X13970Y110504
X13074Y102652
X16288Y102648
X14224Y84455
X13843Y107967
X12685Y102044
X19754Y83878
X13017Y84455
X14695Y120142
X18262Y120142
X18542Y112204
X18542Y112903
X16002Y93916
X15367Y93916
X12382Y83947
X11906Y84423
X20701Y83693
X18987Y97790
X19241Y108140
X18733Y114617
X18733Y115316
X18987Y94710
X18987Y93948
X19929Y99758
X13445Y111125
X13755Y102652
X14605Y97807
X14750Y91313
X16891Y111823
X16447Y112776
X31686Y87186
X30480Y84455
X24955Y83884
X25686Y115729
X25617Y120840
X29755Y120840
X23289Y105791
X27686Y106356
X23289Y111125
X23622Y117856
X23289Y112141
X29400Y110934
X31051Y110934
X31051Y108775
X25575Y106680
X30035Y106743
X23289Y101600
X23289Y100520
X23607Y86551
X23543Y85027
X31051Y117856
X32448Y122364
X22987Y121412
X31798Y84519
X27876Y86043
X24559Y99885
X24401Y109156
X25686Y114395
X27686Y118364
X23289Y90424
X23289Y93726
X25702Y97091
X23289Y96774
X28702Y92456
X29576Y95345
X26670Y112776
X31100Y93980
X30528Y98933
X27273Y88551
X28702Y89916
X29273Y103822
X29273Y101917
X30099Y88551
X25893Y98552
X28480Y93916
X23289Y115729
X29845Y116459
X29936Y83884
X29464Y84392
X28956Y83884
X28448Y84392
X27956Y83884
X27495Y84836
X26956Y83884
X26416Y84455
X25956Y83884
X25146Y110504
X24250Y102652
X27464Y102648
X25400Y84455
X25019Y107967
X23861Y102044
X30930Y83878
X24193Y84455
X25871Y120142
X29437Y120142
X29718Y112204
X29718Y112903
X27178Y93916
X26543Y93916
X23558Y83947
X23082Y84423
X31877Y83693
X30162Y97790
X30416Y108140
X29908Y114617
X29908Y115316
X30162Y94710
X30162Y93948
X31105Y99758
X24621Y111125
X24931Y102652
X25781Y97807
X25926Y91313
X28067Y111823
X27622Y112776
X42863Y87186
X41656Y84455
X36132Y83884
X36862Y115729
X36793Y120840
X40931Y120840
X34465Y105791
X38862Y106356
X34465Y111125
X34798Y117856
X34465Y112141
X40577Y110934
X42228Y110934
X42228Y108775
X36751Y106680
X41212Y106743
X34465Y101600
X34465Y100520
X34783Y86551
X34719Y85027
X42228Y117856
X43625Y122364
X34163Y121412
X42974Y84519
X39053Y86043
X35735Y99885
X35577Y109156
X36862Y114395
X38862Y118364
X34465Y90424
X34465Y93726
X36878Y97091
X34465Y96774
X39878Y92456
X40752Y95345
X37846Y112776
X42276Y93980
X41704Y98933
X38449Y88551
X39878Y89916
X40450Y103822
X40450Y101917
X41275Y88551
X37069Y98552
X39656Y93916
X34465Y115729
X41021Y116459
X41112Y83884
X40640Y84392
X40132Y83884
X39624Y84392
X39132Y83884
X38672Y84836
X38132Y83884
X37592Y84455
X37132Y83884
X36322Y110504
X35426Y102652
X38640Y102648
X36576Y84455
X36195Y107967
X35037Y102044
X42106Y83878
X35370Y84455
X37047Y120142
X40614Y120142
X40894Y112204
X40894Y112903
X38354Y93916
X37719Y93916
X34735Y83947
X34258Y84423
X43053Y83693
X41339Y97790
X41593Y108140
X41085Y114617
X41085Y115316
X41339Y94710
X41339Y93948
X42281Y99758
X35797Y111125
X36107Y102652
X36957Y97807
X37102Y91313
X39243Y111823
X38799Y112776
X54038Y87186
X52832Y84455
X47307Y83884
X48038Y115729
X47969Y120840
X52107Y120840
X45641Y105791
X50038Y106356
X45641Y111125
X45974Y117856
X45641Y112141
X51752Y110934
X53403Y110934
X53403Y108775
X47927Y106680
X52387Y106743
X45641Y101600
X45641Y100520
X45959Y86551
X45895Y85027
X53403Y117856
X54800Y122364
X45339Y121412
X54150Y84519
X50228Y86043
X46911Y99885
X46753Y109156
X48038Y114395
X50038Y118364
X45641Y90424
X45641Y93726
X48054Y97091
X45641Y96774
X51054Y92456
X51928Y95345
X49022Y112776
X53452Y93980
X52880Y98933
X49625Y88551
X51054Y89916
X51625Y103822
X51625Y101917
X52451Y88551
X48245Y98552
X50832Y93916
X45641Y115729
X52197Y116459
X52288Y83884
X51816Y84392
X51308Y83884
X50800Y84392
X50308Y83884
X49847Y84836
X49308Y83884
X48768Y84455
X48308Y83884
X47498Y110504
X46602Y102652
X49816Y102648
X47752Y84455
X47371Y107967
X46213Y102044
X53282Y83878
X46545Y84455
X48223Y120142
X51789Y120142
X52070Y112204
X52070Y112903
X49530Y93916
X48895Y93916
X45910Y83947
X45434Y84423
X54229Y83693
X52514Y97790
X52768Y108140
X52260Y114617
X52260Y115316
X52514Y94710
X52514Y93948
X53457Y99758
X46973Y111125
X47283Y102652
X48133Y97807
X48278Y91313
X50419Y111823
X49974Y112776
X65214Y87186
X64008Y84455
X58483Y83884
X59214Y115729
X59145Y120840
X63283Y120840
X56817Y105791
X61214Y106356
X56817Y111125
X57150Y117856
X56817Y112141
X62928Y110934
X64579Y110934
X64579Y108775
X59103Y106680
X63563Y106743
X56817Y101600
X56817Y100520
X57135Y86551
X57071Y85027
X64579Y117856
X65977Y122364
X56515Y121412
X65326Y84519
X61404Y86043
X58087Y99885
X57929Y109156
X59214Y114395
X61214Y118364
X56817Y90424
X56817Y93726
X59230Y97091
X56817Y96774
X62230Y92456
X63104Y95345
X60198Y112776
X64628Y93980
X64056Y98933
X60801Y88551
X62230Y89916
X62801Y103822
X62801Y101917
X63627Y88551
X59421Y98552
X62008Y93916
X56817Y115729
X63373Y116459
X63464Y83884
X62992Y84392
X62484Y83884
X61976Y84392
X61484Y83884
X61023Y84836
X60484Y83884
X59944Y84455
X59484Y83884
X58674Y110504
X57778Y102652
X60992Y102648
X58928Y84455
X58547Y107967
X57389Y102044
X64458Y83878
X57721Y84455
X59399Y120142
X62965Y120142
X63246Y112204
X63246Y112903
X60706Y93916
X60071Y93916
X57086Y83947
X56610Y84423
X65405Y83693
X63690Y97790
X63944Y108140
X63436Y114617
X63436Y115316
X63690Y94710
X63690Y93948
X64633Y99758
X58149Y111125
X58459Y102652
X59309Y97807
X59454Y91313
X61595Y111823
X61150Y112776
X76391Y87186
X75184Y84455
X69660Y83884
X70390Y115729
X70321Y120840
X74459Y120840
X67993Y105791
X72390Y106356
X67993Y111125
X68326Y117856
X67993Y112141
X74105Y110934
X75756Y110934
X75756Y108775
X70279Y106680
X74740Y106743
X67993Y101600
X67993Y100520
X68311Y86551
X68247Y85027
X75756Y117856
X77153Y122364
X67691Y121412
X76502Y84519
X72581Y86043
X69263Y99885
X69105Y109156
X70390Y114395
X72390Y118364
X67993Y90424
X67993Y93726
X70406Y97091
X67993Y96774
X73406Y92456
X74280Y95345
X71374Y112776
X75804Y93980
X75232Y98933
X71977Y88551
X73406Y89916
X73978Y103822
X73978Y101917
X74803Y88551
X9335Y4890
X73184Y93916
X67993Y115729
X74549Y116459
X74640Y83884
X74168Y84392
X73660Y83884
X73152Y84392
X72660Y83884
X72200Y84836
X71660Y83884
X71120Y84455
X70660Y83884
X69850Y110504
X68954Y102652
X72168Y102648
X70104Y84455
X69723Y107967
X68565Y102044
X75634Y83878
X68898Y84455
X70575Y120142
X74142Y120142
X74422Y112204
X74422Y112903
X71882Y93916
X71247Y93916
X68263Y83947
X67786Y84423
X76581Y83693
X74867Y97790
X75121Y108140
X74613Y114617
X74613Y115316
X74867Y94710
X74867Y93948
X75809Y99758
X69325Y111125
X69635Y102652
X70485Y97807
X70630Y91313
X72771Y111823
X72327Y112776
X87566Y87186
X86360Y84455
X80836Y83884
X81566Y115729
X81497Y120840
X85635Y120840
X79169Y105791
X83566Y106356
X79169Y111125
X79502Y117856
X79169Y112141
X85281Y110934
X86932Y110934
X86932Y108775
X81455Y106680
X85916Y106743
X79169Y101600
X79169Y100520
X79487Y86551
X79423Y85027
X86932Y117856
X88328Y122364
X78867Y121412
X87678Y84519
X83757Y86043
X80439Y99885
X80281Y109156
X81566Y114395
X83566Y118364
X79169Y90424
X79169Y93726
X81582Y97091
X79169Y96774
X84582Y92456
X85456Y95345
X82550Y112776
X86980Y93980
X86408Y98933
X83153Y88551
X84582Y89916
X85154Y103822
X85154Y101917
X85979Y88551
X81773Y98552
X84360Y93916
X79169Y115729
X85725Y116459
X85816Y83884
X85344Y84392
X84836Y83884
X84328Y84392
X83836Y83884
X83376Y84836
X82836Y83884
X82296Y84455
X81836Y83884
X81026Y110504
X80130Y102652
X83344Y102648
X81280Y84455
X80899Y107967
X79741Y102044
X86810Y83878
X80074Y84455
X81751Y120142
X85318Y120142
X85598Y112204
X85598Y112903
X83058Y93916
X82423Y93916
X79439Y83947
X78962Y84423
X87757Y83693
X86043Y97790
X86297Y108140
X85789Y114617
X85789Y115316
X86043Y94710
X86043Y93948
X86985Y99758
X80501Y111125
X80811Y102652
X81661Y97807
X81806Y91313
X83947Y111823
X83503Y112776
X98742Y87186
X97536Y84455
X92011Y83884
X92742Y115729
X92673Y120840
X96811Y120840
X90345Y105791
X94742Y106356
X90345Y111125
X90678Y117856
X90345Y112141
X96456Y110934
X98107Y110934
X98107Y108775
X92631Y106680
X97091Y106743
X90345Y101600
X90345Y100520
X90663Y86551
X90599Y85027
X98107Y117856
X99504Y122364
X90043Y121412
X98854Y84519
X94932Y86043
X91615Y99885
X91457Y109156
X92742Y114395
X94742Y118364
X90345Y90424
X90345Y93726
X92758Y97091
X90345Y96774
X95758Y92456
X96632Y95345
X93726Y112776
X98156Y93980
X97584Y98933
X94329Y88551
X95758Y89916
X96329Y103822
X96329Y101917
X97155Y88551
X92949Y98552
X95536Y93916
X90345Y115729
X96901Y116459
X96992Y83884
X96520Y84392
X96012Y83884
X95504Y84392
X95012Y83884
X94551Y84836
X94012Y83884
X93472Y84455
X93012Y83884
X92202Y110504
X91306Y102652
X94520Y102648
X92456Y84455
X92075Y107967
X90917Y102044
X97986Y83878
X91249Y84455
X92927Y120142
X96493Y120142
X96774Y112204
X96774Y112903
X94234Y93916
X93599Y93916
X90614Y83947
X90138Y84423
X98933Y83693
X97218Y97790
X97472Y108140
X96964Y114617
X96964Y115316
X97218Y94710
X97218Y93948
X98161Y99758
X91677Y111125
X91987Y102652
X92837Y97807
X92982Y91313
X95123Y111823
X94678Y112776
X109918Y87186
X108712Y84455
X103187Y83884
X103918Y115729
X103849Y120840
X107987Y120840
X101521Y105791
X105918Y106356
X101521Y111125
X101854Y117856
X101521Y112141
X107632Y110934
X109283Y110934
X109283Y108775
X103807Y106680
X108267Y106743
X101521Y101600
X101521Y100520
X101839Y86551
X101775Y85027
X109283Y117856
X110680Y122364
X101219Y121412
X110030Y84519
X106108Y86043
X102791Y99885
X102633Y109156
X103918Y114395
X105918Y118364
X101521Y90424
X101521Y93726
X103934Y97091
X101521Y96774
X106934Y92456
X107808Y95345
X104902Y112776
X109332Y93980
X108760Y98933
X105505Y88551
X106934Y89916
X107505Y103822
X107505Y101917
X108331Y88551
X104125Y98552
X106712Y93916
X101521Y115729
X108077Y116459
X108168Y83884
X107696Y84392
X107188Y83884
X106680Y84392
X106188Y83884
X105727Y84836
X105188Y83884
X104648Y84455
X104188Y83884
X103378Y110504
X102482Y102652
X105696Y102648
X103632Y84455
X103251Y107967
X102093Y102044
X109162Y83878
X102425Y84455
X104103Y120142
X107669Y120142
X107950Y112204
X107950Y112903
X105410Y93916
X104775Y93916
X101790Y83947
X101314Y84423
X110109Y83693
X108394Y97790
X108648Y108140
X108140Y114617
X108140Y115316
X108394Y94710
X108394Y93948
X109337Y99758
X102853Y111125
X103163Y102652
X104013Y97807
X104158Y91313
X106299Y111823
X105854Y112776
X121094Y87186
X119888Y84455
X114363Y83884
X115094Y115729
X115025Y120840
X119163Y120840
X112697Y105791
X117094Y106356
X112697Y111125
X113030Y117856
X112697Y112141
X118808Y110934
X120459Y110934
X120459Y108775
X114983Y106680
X119443Y106743
X112697Y101600
X112697Y100520
X113015Y86551
X112951Y85027
X120459Y117856
X121856Y122364
X112395Y121412
X121206Y84519
X117284Y86043
X113967Y99885
X113809Y109156
X115094Y114395
X117094Y118364
X112697Y90424
X112697Y93726
X115110Y97091
X112697Y96774
X118110Y92456
X118984Y95345
X116078Y112776
X120508Y93980
X119936Y98933
X116681Y88551
X118110Y89916
X118681Y103822
X118681Y101917
X119507Y88551
X115301Y98552
X117888Y93916
X112697Y115729
X119253Y116459
X119344Y83884
X118872Y84392
X118364Y83884
X117856Y84392
X117364Y83884
X116903Y84836
X116364Y83884
X115824Y84455
X115364Y83884
X114554Y110504
X113658Y102652
X116872Y102648
X114808Y84455
X114427Y107967
X113269Y102044
X120338Y83878
X113601Y84455
X115279Y120142
X118845Y120142
X119126Y112204
X119126Y112903
X116586Y93916
X115951Y93916
X112966Y83947
X112490Y84423
X121285Y83693
X119570Y97790
X119824Y108140
X119316Y114617
X119316Y115316
X119570Y94710
X119570Y93948
X120513Y99758
X114029Y111125
X114339Y102652
X115189Y97807
X115334Y91313
X117475Y111823
X117030Y112776
X132271Y87186
X131064Y84455
X125539Y83884
X126270Y115729
X126201Y120840
X130339Y120840
X123873Y105791
X128270Y106356
X123873Y111125
X124206Y117856
X123873Y112141
X129984Y110934
X131636Y110934
X131636Y108775
X126159Y106680
X130619Y106743
X123873Y101600
X123873Y100520
X124191Y86551
X124127Y85027
X131636Y117856
X133033Y122364
X123571Y121412
X132382Y84519
X128460Y86043
X125143Y99885
X124985Y109156
X126270Y114395
X128270Y118364
X123873Y90424
X123873Y93726
X126286Y97091
X123873Y96774
X129286Y92456
X130160Y95345
X127254Y112776
X131684Y93980
X131112Y98933
X127857Y88551
X129286Y89916
X129857Y103822
X129857Y101917
X130683Y88551
X126477Y98552
X129064Y93916
X123873Y115729
X130429Y116459
X130520Y83884
X130048Y84392
X129540Y83884
X129032Y84392
X128540Y83884
X128079Y84836
X127540Y83884
X127000Y84455
X126540Y83884
X125730Y110504
X124834Y102652
X128048Y102648
X125984Y84455
X125603Y107967
X124445Y102044
X131514Y83878
X124777Y84455
X126455Y120142
X130021Y120142
X130302Y112204
X130302Y112903
X127762Y93916
X127127Y93916
X124142Y83947
X123666Y84423
X132461Y83693
X130746Y97790
X131000Y108140
X130492Y114617
X130492Y115316
X130746Y94710
X130746Y93948
X131689Y99758
X125205Y111125
X125515Y102652
X126365Y97807
X126510Y91313
X128651Y111823
X128206Y112776
X143447Y87186
X142240Y84455
X136716Y83884
X137446Y115729
X137377Y120840
X141515Y120840
X135049Y105791
X139446Y106356
X135049Y111125
X135382Y117856
X135049Y112141
X141161Y110934
X142812Y110934
X142812Y108775
X137335Y106680
X141796Y106743
X135049Y101600
X135049Y100520
X135367Y86551
X135303Y85027
X142812Y117856
X144209Y122364
X134747Y121412
X143558Y84519
X139637Y86043
X136319Y99885
X136161Y109156
X137446Y114395
X139446Y118364
X135049Y90424
X135049Y93726
X137462Y97091
X135049Y96774
X140462Y92456
X141336Y95345
X138430Y112776
X142860Y93980
X142288Y98933
X139033Y88551
X140462Y89916
X141034Y103822
X141034Y101917
X141859Y88551
X137653Y98552
X140240Y93916
X135049Y115729
X141605Y116459
X141696Y83884
X141224Y84392
X140716Y83884
X140208Y84392
X139716Y83884
X139256Y84836
X138716Y83884
X138176Y84455
X137716Y83884
X136906Y110504
X136010Y102652
X139224Y102648
X137160Y84455
X136779Y107967
X135621Y102044
X142690Y83878
X135954Y84455
X137631Y120142
X141198Y120142
X141478Y112204
X141478Y112903
X138938Y93916
X138303Y93916
X135319Y83947
X134842Y84423
X143637Y83693
X141923Y97790
X142177Y108140
X141669Y114617
X141669Y115316
X141923Y94710
X141923Y93948
X70597Y98552
X136381Y111125
X136691Y102652
X137541Y97807
X137686Y91313
X139827Y111823
X139383Y112776
X154623Y87186
X153416Y84455
X147892Y83884
X148622Y115729
X148553Y120840
X152691Y120840
X146225Y105791
X150622Y106356
X146225Y111125
X146558Y117856
X146225Y112141
X152337Y110934
X153988Y110934
X153988Y108775
X148511Y106680
X152972Y106743
X146225Y101600
X146225Y100520
X146543Y86551
X146479Y85027
X153988Y117856
X155385Y122364
X145923Y121412
X154734Y84519
X150813Y86043
X147495Y99885
X147337Y109156
X148622Y114395
X150622Y118364
X146225Y90424
X146225Y93726
X148638Y97091
X146225Y96774
X151638Y92456
X152512Y95345
X149606Y112776
X154036Y93980
X153464Y98933
X150209Y88551
X151638Y89916
X152210Y103822
X152210Y101917
X153035Y88551
X148829Y98552
X151416Y93916
X146225Y115729
X152781Y116459
X152872Y83884
X152400Y84392
X151892Y83884
X151384Y84392
X150892Y83884
X150432Y84836
X149892Y83884
X149352Y84455
X148892Y83884
X148082Y110504
X147186Y102652
X150400Y102648
X148336Y84455
X147955Y107967
X146797Y102044
X153866Y83878
X147130Y84455
X148807Y120142
X152374Y120142
X152654Y112204
X152654Y112903
X150114Y93916
X149479Y93916
X146495Y83947
X146018Y84423
X154813Y83693
X153099Y97790
X153353Y108140
X152845Y114617
X152845Y115316
X153099Y94710
X153099Y93948
X154041Y99758
X147557Y111125
X147867Y102652
X148717Y97807
X148862Y91313
X151003Y111823
X150559Y112776
X165799Y87186
X164592Y84455
X159068Y83884
X159798Y115729
X159729Y120840
X163867Y120840
X157401Y105791
X161798Y106356
X157401Y111125
X157734Y117856
X157401Y112141
X163513Y110934
X165164Y110934
X165164Y108775
X159687Y106680
X164148Y106743
X157401Y101600
X157401Y100520
X157719Y86551
X157655Y85027
X165164Y117856
X166561Y122364
X157099Y121412
X165910Y84519
X161989Y86043
X158671Y99885
X158513Y109156
X159798Y114395
X161798Y118364
X157401Y90424
X157401Y93726
X159814Y97091
X157401Y96774
X162814Y92456
X163688Y95345
X160782Y112776
X165212Y93980
X164640Y98933
X161385Y88551
X162814Y89916
X163386Y103822
X163386Y101917
X164211Y88551
X160005Y98552
X162592Y93916
X157401Y115729
X163957Y116459
X164048Y83884
X163576Y84392
X163068Y83884
X162560Y84392
X162068Y83884
X161608Y84836
X161068Y83884
X160528Y84455
X160068Y83884
X159258Y110504
X158362Y102652
X161576Y102648
X159512Y84455
X159131Y107967
X157973Y102044
X165042Y83878
X158306Y84455
X159983Y120142
X163550Y120142
X163830Y112204
X163830Y112903
X161290Y93916
X160655Y93916
X157671Y83947
X157194Y84423
X165989Y83693
X164275Y97790
X164529Y108140
X164021Y114617
X164021Y115316
X164275Y94710
X164275Y93948
X165217Y99758
X158733Y111125
X159043Y102652
X159893Y97807
X160038Y91313
X162179Y111823
X161735Y112776
X176974Y87186
X175768Y84455
X170244Y83884
X170974Y115729
X170905Y120840
X175043Y120840
X168577Y105791
X172974Y106356
X168577Y111125
X168910Y117856
X168577Y112141
X174689Y110934
X176339Y110934
X176339Y108775
X170863Y106680
X175323Y106743
X168577Y101600
X168577Y100520
X168895Y86551
X168831Y85027
X176339Y117856
X177736Y122364
X168275Y121412
X177086Y84519
X173165Y86043
X169847Y99885
X169689Y109156
X170974Y114395
X172974Y118364
X168577Y90424
X168577Y93726
X170990Y97091
X168577Y96774
X173990Y92456
X174864Y95345
X171958Y112776
X176388Y93980
X175816Y98933
X172561Y88551
X173990Y89916
X174562Y103822
X174562Y101917
X175387Y88551
X171181Y98552
X173768Y93916
X168577Y115729
X175133Y116459
X175224Y83884
X174752Y84392
X174244Y83884
X173736Y84392
X173244Y83884
X172784Y84836
X172244Y83884
X171704Y84455
X171244Y83884
X170434Y110504
X169538Y102652
X172752Y102648
X170688Y84455
X170307Y107967
X169149Y102044
X176218Y83878
X169482Y84455
X171159Y120142
X174726Y120142
X175006Y112204
X175006Y112903
X172466Y93916
X171831Y93916
X168847Y83947
X168370Y84423
X177165Y83693
X175450Y97790
X175704Y108140
X175196Y114617
X175196Y115316
X175450Y94710
X175450Y93948
X176393Y99758
X169909Y111125
X170219Y102652
X171069Y97807
X171214Y91313
X173355Y111823
X172911Y112776
X8128Y2159
X2604Y1587
X3334Y33433
X3265Y38545
X7403Y38545
X937Y23495
X5334Y24060
X937Y28829
X1270Y35560
X937Y29845
X7048Y28638
X8700Y28638
X8700Y26479
X3223Y24384
X7683Y24447
X937Y19304
X937Y18225
X1255Y4255
X1191Y2731
X8700Y35560
X10097Y40069
X635Y39116
X9446Y2223
X5524Y3746
X2207Y17590
X2049Y26860
X3334Y32099
X5334Y36068
X937Y8128
X937Y11430
X3350Y14795
X937Y14478
X6350Y10160
X7224Y13049
X4318Y30480
X8748Y11684
X8176Y16637
X4921Y6255
X6350Y7620
X6921Y21527
X6921Y19622
X7747Y6255
X3541Y16256
X6128Y11620
X937Y33433
X7493Y34163
X7584Y1587
X7112Y2096
X6604Y1587
X6096Y2096
X5604Y1587
X5144Y2540
X4604Y1587
X4064Y2159
X3604Y1587
X2794Y28208
X1898Y20356
X5112Y20352
X3048Y2159
X2667Y25671
X1509Y19749
X8578Y1582
X1841Y2159
X3519Y37846
X7085Y37846
X7366Y29908
X7366Y30607
X4826Y11620
X4191Y11620
X1207Y1651
X730Y2127
X9525Y1397
X7810Y15494
X8064Y25844
X7556Y32321
X7556Y33020
X7810Y12414
X7810Y11652
X8753Y17463
X2269Y28829
X2579Y20356
X3429Y15511
X3574Y9017
X5715Y29527
X5271Y30480
X20511Y4890
X19304Y2159
X13779Y1587
X14510Y33433
X14441Y38545
X18579Y38545
X12113Y23495
X16510Y24060
X12113Y28829
X12446Y35560
X12113Y29845
X18225Y28638
X19876Y28638
X19876Y26479
X14399Y24384
X18860Y24447
X12113Y19304
X12113Y18225
X12431Y4255
X12367Y2731
X19876Y35560
X21273Y40069
X11811Y39116
X20622Y2223
X16701Y3746
X13383Y17590
X13225Y26860
X14510Y32099
X16510Y36068
X12113Y8128
X12113Y11430
X14526Y14795
X12113Y14478
X17526Y10160
X18400Y13049
X15494Y30480
X19924Y11684
X19352Y16637
X16097Y6255
X17526Y7620
X18098Y21527
X18098Y19622
X18923Y6255
X14717Y16256
X17304Y11620
X12113Y33433
X18669Y34163
X18760Y1587
X18288Y2096
X17780Y1587
X17272Y2096
X16780Y1587
X16319Y2540
X15780Y1587
X15240Y2159
X14780Y1587
X13970Y28208
X13074Y20356
X16288Y20352
X14224Y2159
X13843Y25671
X12685Y19749
X19754Y1582
X13017Y2159
X14695Y37846
X18262Y37846
X18542Y29908
X18542Y30607
X16002Y11620
X15367Y11620
X12382Y1651
X11906Y2127
X20701Y1397
X18987Y15494
X19241Y25844
X18733Y32321
X18733Y33020
X18987Y12414
X18987Y11652
X19929Y17463
X13445Y28829
X13755Y20356
X14605Y15511
X14750Y9017
X16891Y29527
X16447Y30480
X31686Y4890
X30480Y2159
X24955Y1587
X25686Y33433
X25617Y38545
X29755Y38545
X23289Y23495
X27686Y24060
X23289Y28829
X23622Y35560
X23289Y29845
X29400Y28638
X31051Y28638
X31051Y26479
X25575Y24384
X30035Y24447
X23289Y19304
X23289Y18225
X23607Y4255
X23543Y2731
X31051Y35560
X32448Y40069
X22987Y39116
X31798Y2223
X27876Y3746
X24559Y17590
X24401Y26860
X25686Y32099
X27686Y36068
X23289Y8128
X23289Y11430
X25702Y14795
X23289Y14478
X28702Y10160
X29576Y13049
X26670Y30480
X31100Y11684
X30528Y16637
X27273Y6255
X28702Y7620
X29273Y21527
X29273Y19622
X30099Y6255
X25893Y16256
X28480Y11620
X23289Y33433
X29845Y34163
X29936Y1587
X29464Y2096
X28956Y1587
X28448Y2096
X27956Y1587
X27495Y2540
X26956Y1587
X26416Y2159
X25956Y1587
X25146Y28208
X24250Y20356
X27464Y20352
X25400Y2159
X25019Y25671
X23861Y19749
X30930Y1582
X24193Y2159
X25871Y37846
X29437Y37846
X29718Y29908
X29718Y30607
X27178Y11620
X26543Y11620
X23558Y1651
X23082Y2127
X31877Y1397
X30162Y15494
X30416Y25844
X29908Y32321
X29908Y33020
X30162Y12414
X30162Y11652
X31105Y17463
X24621Y28829
X24931Y20356
X25781Y15511
X25926Y9017
X28067Y29527
X27622Y30480
X42863Y4890
X41656Y2159
X36132Y1587
X36862Y33433
X36793Y38545
X40931Y38545
X34465Y23495
X38862Y24060
X34465Y28829
X34798Y35560
X34465Y29845
X40577Y28638
X42228Y28638
X42228Y26479
X36751Y24384
X41212Y24447
X34465Y19304
X34465Y18225
X34783Y4255
X34719Y2731
X42228Y35560
X43625Y40069
X34163Y39116
X42974Y2223
X39053Y3746
X35735Y17590
X35577Y26860
X36862Y32099
X38862Y36068
X34465Y8128
X142865Y99758
M30