M48
;GenerationSoftware,Autodesk,EAGLE,9.6.2*%
;CreationDate,2021-05-25T15:24:57Z*%
FMAT,2
ICI,OFF
METRIC,TZ,000.000
T2C0.300
T1C0.508
%
G90
M71
T1
X149098Y103886
X7874Y19050
X7874Y21590
X5334Y19050
X5334Y21590
X2794Y19050
X2794Y21590
X24130Y19050
X24130Y21590
X21590Y19050
X21590Y21590
X19050Y19050
X19050Y21590
X40386Y19050
X40386Y21590
X37846Y19050
X37846Y21590
X35306Y19050
X35306Y21590
X56642Y19050
X56642Y21590
X54102Y19050
X54102Y21590
X51562Y19050
X51562Y21590
X72898Y19050
X72898Y21590
X70358Y19050
X70358Y21590
X67818Y19050
X67818Y21590
X89154Y19050
X89154Y21590
X86614Y19050
X86614Y21590
X84074Y19050
X84074Y21590
X105410Y19050
X105410Y21590
X102870Y19050
X102870Y21590
X100330Y19050
X100330Y21590
X121666Y19050
X121666Y21590
X119126Y19050
X119126Y21590
X116586Y19050
X116586Y21590
X137922Y19050
X137922Y21590
X135382Y19050
X135382Y21590
X132842Y19050
X132842Y21590
X154178Y19050
X154178Y21590
X151638Y19050
X151638Y21590
X149098Y19050
X149098Y21590
X7874Y60198
X7874Y62738
X5334Y60198
X5334Y62738
X2794Y60198
X2794Y62738
X24130Y60198
X24130Y62738
X21590Y60198
X21590Y62738
X19050Y60198
X19050Y62738
X40386Y60198
X40386Y62738
X37846Y60198
X37846Y62738
X35306Y60198
X35306Y62738
X56642Y60198
X56642Y62738
X54102Y60198
X54102Y62738
X51562Y60198
X51562Y62738
X72898Y60198
X72898Y62738
X70358Y60198
X70358Y62738
X67818Y60198
X67818Y62738
X89154Y60198
X89154Y62738
X86614Y60198
X86614Y62738
X84074Y60198
X84074Y62738
X105410Y60198
X105410Y62738
X102870Y60198
X102870Y62738
X100330Y60198
X100330Y62738
X121666Y60198
X121666Y62738
X119126Y60198
X119126Y62738
X116586Y60198
X116586Y62738
X137922Y60198
X137922Y62738
X135382Y60198
X135382Y62738
X132842Y60198
X132842Y62738
X154178Y60198
X154178Y62738
X151638Y60198
X151638Y62738
X149098Y60198
X149098Y62738
X7874Y101346
X7874Y103886
X5334Y101346
X5334Y103886
X2794Y101346
X2794Y103886
X24130Y101346
X24130Y103886
X21590Y101346
X21590Y103886
X19050Y101346
X19050Y103886
X40386Y101346
X40386Y103886
X37846Y101346
X37846Y103886
X35306Y101346
X35306Y103886
X56642Y101346
X56642Y103886
X54102Y101346
X54102Y103886
X51562Y101346
X51562Y103886
X72898Y101346
X72898Y103886
X70358Y101346
X70358Y103886
X67818Y101346
X67818Y103886
X89154Y101346
X89154Y103886
X86614Y101346
X86614Y103886
X84074Y101346
X84074Y103886
X105410Y101346
X105410Y103886
X102870Y101346
X102870Y103886
X100330Y101346
X100330Y103886
X121666Y101346
X121666Y103886
X119126Y101346
X119126Y103886
X116586Y101346
X116586Y103886
X137922Y101346
X137922Y103886
X135382Y101346
X135382Y103886
X132842Y101346
X132842Y103886
X154178Y101346
X154178Y103886
X151638Y101346
X151638Y103886
X149098Y101346
T2
X33449Y28829
X33782Y35560
X33449Y29845
X39561Y28638
X41212Y28638
X41212Y26479
X35735Y24384
X40196Y24447
X33449Y19304
X33449Y18225
X33767Y4255
X33703Y2731
X41212Y35560
X42609Y40069
X33147Y39116
X41958Y2223
X38037Y3746
X34719Y17590
X34561Y26860
X35846Y32099
X37846Y36068
X33449Y8128
X33449Y11430
X35862Y14795
X33449Y14478
X38862Y10160
X39736Y13049
X36830Y30480
X41260Y11684
X40688Y16637
X37433Y6255
X38862Y7620
X39434Y21527
X39434Y19622
X40259Y6255
X36053Y16256
X38640Y11620
X33449Y33433
X40005Y34163
X40096Y1587
X39624Y2096
X39116Y1587
X38608Y2096
X38116Y1587
X37656Y2540
X37116Y1587
X36576Y2159
X36116Y1587
X35306Y28208
X34410Y20356
X37624Y20352
X35560Y2159
X35179Y25671
X34021Y19749
X41090Y1582
X34354Y2159
X36031Y37846
X39598Y37846
X39878Y29908
X39878Y30607
X37338Y11620
X36703Y11620
X33719Y1651
X33242Y2127
X42037Y1397
X40323Y15494
X40577Y25844
X40069Y32321
X40069Y33020
X40323Y12414
X40323Y11652
X41265Y17463
X34781Y28829
X35091Y20356
X35941Y15511
X36086Y9017
X38227Y29527
X37783Y30480
X58102Y4890
X56896Y2159
X51371Y1587
X52102Y33433
X52033Y38545
X56171Y38545
X49705Y23495
X54102Y24060
X49705Y28829
X50038Y35560
X49705Y29845
X55816Y28638
X57467Y28638
X57467Y26479
X51991Y24384
X56451Y24447
X49705Y19304
X49705Y18225
X50023Y4255
X49959Y2731
X57467Y35560
X58864Y40069
X49403Y39116
X58214Y2223
X54292Y3746
X50975Y17590
X50817Y26860
X52102Y32099
X54102Y36068
X49705Y8128
X49705Y11430
X52118Y14795
X49705Y14478
X55118Y10160
X55992Y13049
X53086Y30480
X57516Y11684
X56944Y16637
X53689Y6255
X55118Y7620
X55689Y21527
X55689Y19622
X56515Y6255
X52309Y16256
X54896Y11620
X49705Y33433
X56261Y34163
X56352Y1587
X55880Y2096
X55372Y1587
X54864Y2096
X54372Y1587
X53911Y2540
X53372Y1587
X52832Y2159
X52372Y1587
X51562Y28208
X50666Y20356
X53880Y20352
X51816Y2159
X51435Y25671
X50277Y19749
X57346Y1582
X50609Y2159
X52287Y37846
X55853Y37846
X56134Y29908
X56134Y30607
X53594Y11620
X52959Y11620
X49974Y1651
X49498Y2127
X58293Y1397
X56578Y15494
X56832Y25844
X56324Y32321
X56324Y33020
X56578Y12414
X56578Y11652
X57521Y17463
X51037Y28829
X51347Y20356
X52197Y15511
X52342Y9017
X54483Y29527
X54038Y30480
X74359Y4890
X73152Y2159
X67628Y1587
X68358Y33433
X68289Y38545
X72427Y38545
X65961Y23495
X70358Y24060
X65961Y28829
X66294Y35560
X65961Y29845
X72073Y28638
X73724Y28638
X73724Y26479
X68247Y24384
X72708Y24447
X65961Y19304
X65961Y18225
X66279Y4255
X66215Y2731
X73724Y35560
X75121Y40069
X65659Y39116
X74470Y2223
X70549Y3746
X67231Y17590
X67073Y26860
X68358Y32099
X70358Y36068
X65961Y8128
X65961Y11430
X68374Y14795
X65961Y14478
X71374Y10160
X72248Y13049
X69342Y30480
X73772Y11684
X73200Y16637
X69945Y6255
X71374Y7620
X71946Y21527
X71946Y19622
X72771Y6255
X68565Y16256
X71152Y11620
X65961Y33433
X72517Y34163
X72608Y1587
X72136Y2096
X71628Y1587
X71120Y2096
X70628Y1587
X70168Y2540
X69628Y1587
X69088Y2159
X68628Y1587
X67818Y28208
X66922Y20356
X70136Y20352
X68072Y2159
X67691Y25671
X66533Y19749
X73602Y1582
X66866Y2159
X68543Y37846
X72110Y37846
X72390Y29908
X72390Y30607
X69850Y11620
X69215Y11620
X66231Y1651
X65754Y2127
X74549Y1397
X72835Y15494
X73089Y25844
X72581Y32321
X72581Y33020
X72835Y12414
X72835Y11652
X73777Y17463
X67293Y28829
X67603Y20356
X68453Y15511
X68598Y9017
X70739Y29527
X70295Y30480
X90614Y4890
X89408Y2159
X83884Y1587
X84614Y33433
X84545Y38545
X88683Y38545
X82217Y23495
X86614Y24060
X82217Y28829
X82550Y35560
X82217Y29845
X88328Y28638
X89979Y28638
X89979Y26479
X84503Y24384
X88963Y24447
X82217Y19304
X82217Y18225
X82535Y4255
X82471Y2731
X89979Y35560
X91376Y40069
X81915Y39116
X90726Y2223
X86805Y3746
X83487Y17590
X83329Y26860
X84614Y32099
X86614Y36068
X82217Y8128
X82217Y11430
X84630Y14795
X82217Y14478
X87630Y10160
X88504Y13049
X85598Y30480
X90028Y11684
X89456Y16637
X86201Y6255
X87630Y7620
X88201Y21527
X88201Y19622
X89027Y6255
X84821Y16256
X87408Y11620
X82217Y33433
X88773Y34163
X88864Y1587
X88392Y2096
X87884Y1587
X87376Y2096
X86884Y1587
X86424Y2540
X85884Y1587
X85344Y2159
X84884Y1587
X84074Y28208
X83178Y20356
X86392Y20352
X84328Y2159
X83947Y25671
X82789Y19749
X89858Y1582
X83122Y2159
X84799Y37846
X88365Y37846
X88646Y29908
X88646Y30607
X86106Y11620
X85471Y11620
X82487Y1651
X82010Y2127
X90805Y1397
X89090Y15494
X89344Y25844
X88836Y32321
X88836Y33020
X89090Y12414
X89090Y11652
X90033Y17463
X83549Y28829
X83859Y20356
X84709Y15511
X84854Y9017
X86995Y29527
X86551Y30480
X106870Y4890
X105664Y2159
X100139Y1587
X100870Y33433
X100801Y38545
X104939Y38545
X98473Y23495
X102870Y24060
X98473Y28829
X98806Y35560
X98473Y29845
X104584Y28638
X106235Y28638
X106235Y26479
X100759Y24384
X105219Y24447
X98473Y19304
X98473Y18225
X98791Y4255
X98727Y2731
X106235Y35560
X107632Y40069
X98171Y39116
X106982Y2223
X103060Y3746
X99743Y17590
X99585Y26860
X100870Y32099
X102870Y36068
X98473Y8128
X98473Y11430
X100886Y14795
X98473Y14478
X103886Y10160
X104760Y13049
X101854Y30480
X106284Y11684
X105712Y16637
X102457Y6255
X103886Y7620
X104457Y21527
X104457Y19622
X105283Y6255
X101077Y16256
X103664Y11620
X98473Y33433
X105029Y34163
X105120Y1587
X104648Y2096
X104140Y1587
X103632Y2096
X103140Y1587
X102679Y2540
X102140Y1587
X101600Y2159
X101140Y1587
X100330Y28208
X99434Y20356
X102648Y20352
X100584Y2159
X100203Y25671
X99045Y19749
X106114Y1582
X99377Y2159
X101055Y37846
X104621Y37846
X104902Y29908
X104902Y30607
X102362Y11620
X101727Y11620
X98742Y1651
X98266Y2127
X107061Y1397
X105346Y15494
X105600Y25844
X105092Y32321
X105092Y33020
X105346Y12414
X105346Y11652
X106289Y17463
X99805Y28829
X100115Y20356
X100965Y15511
X101110Y9017
X103251Y29527
X102806Y30480
X123126Y4890
X121920Y2159
X116395Y1587
X117126Y33433
X117057Y38545
X121195Y38545
X114729Y23495
X119126Y24060
X114729Y28829
X115062Y35560
X114729Y29845
X120840Y28638
X122491Y28638
X122491Y26479
X117015Y24384
X121475Y24447
X114729Y19304
X114729Y18225
X115047Y4255
X114983Y2731
X122491Y35560
X123888Y40069
X114427Y39116
X123238Y2223
X119316Y3746
X115999Y17590
X115841Y26860
X117126Y32099
X119126Y36068
X114729Y8128
X114729Y11430
X117142Y14795
X114729Y14478
X120142Y10160
X121016Y13049
X118110Y30480
X122540Y11684
X121968Y16637
X118713Y6255
X120142Y7620
X120713Y21527
X120713Y19622
X121539Y6255
X117333Y16256
X119920Y11620
X114729Y33433
X121285Y34163
X121376Y1587
X120904Y2096
X120396Y1587
X119888Y2096
X119396Y1587
X118935Y2540
X118396Y1587
X117856Y2159
X117396Y1587
X116586Y28208
X115690Y20356
X118904Y20352
X116840Y2159
X116459Y25671
X115301Y19749
X122370Y1582
X115633Y2159
X117311Y37846
X120877Y37846
X121158Y29908
X121158Y30607
X118618Y11620
X117983Y11620
X114998Y1651
X114522Y2127
X123317Y1397
X121602Y15494
X121856Y25844
X121348Y32321
X121348Y33020
X121602Y12414
X121602Y11652
X122545Y17463
X116061Y28829
X116371Y20356
X117221Y15511
X117366Y9017
X119507Y29527
X119062Y30480
X139383Y4890
X138176Y2159
X132652Y1587
X133382Y33433
X133313Y38545
X137451Y38545
X130985Y23495
X135382Y24060
X130985Y28829
X131318Y35560
X130985Y29845
X137097Y28638
X138748Y28638
X138748Y26479
X133271Y24384
X137732Y24447
X130985Y19304
X130985Y18225
X131303Y4255
X131239Y2731
X138748Y35560
X140145Y40069
X130683Y39116
X139494Y2223
X135573Y3746
X132255Y17590
X132097Y26860
X133382Y32099
X135382Y36068
X130985Y8128
X130985Y11430
X133398Y14795
X130985Y14478
X136398Y10160
X137272Y13049
X134366Y30480
X138796Y11684
X138224Y16637
X134969Y6255
X136398Y7620
X136970Y21527
X136970Y19622
X137795Y6255
X133589Y16256
X136176Y11620
X130985Y33433
X137541Y34163
X137632Y1587
X137160Y2096
X136652Y1587
X136144Y2096
X135652Y1587
X135192Y2540
X134652Y1587
X134112Y2159
X133652Y1587
X132842Y28208
X131946Y20356
X135160Y20352
X133096Y2159
X132715Y25671
X131557Y19749
X138626Y1582
X131890Y2159
X133567Y37846
X137134Y37846
X137414Y29908
X137414Y30607
X134874Y11620
X134239Y11620
X131255Y1651
X130778Y2127
X139573Y1397
X137859Y15494
X138113Y25844
X137605Y32321
X137605Y33020
X137859Y12414
X137859Y11652
X138801Y17463
X132317Y28829
X132627Y20356
X133477Y15511
X133622Y9017
X135763Y29527
X135319Y30480
X155639Y4890
X154432Y2159
X148908Y1587
X149638Y33433
X149569Y38545
X153707Y38545
X147241Y23495
X151638Y24060
X147241Y28829
X147574Y35560
X147241Y29845
X153353Y28638
X155004Y28638
X155004Y26479
X149527Y24384
X153988Y24447
X147241Y19304
X147241Y18225
X147559Y4255
X147495Y2731
X155004Y35560
X156401Y40069
X146939Y39116
X155750Y2223
X151829Y3746
X148511Y17590
X148353Y26860
X149638Y32099
X151638Y36068
X147241Y8128
X147241Y11430
X149654Y14795
X147241Y14478
X152654Y10160
X153528Y13049
X150622Y30480
X155052Y11684
X154480Y16637
X151225Y6255
X152654Y7620
X153226Y21527
X153226Y19622
X154051Y6255
X149845Y16256
X152432Y11620
X147241Y33433
X153797Y34163
X153888Y1587
X153416Y2096
X152908Y1587
X152400Y2096
X151908Y1587
X151448Y2540
X150908Y1587
X150368Y2159
X149908Y1587
X149098Y28208
X148202Y20356
X151416Y20352
X149352Y2159
X148971Y25671
X147813Y19749
X154882Y1582
X148146Y2159
X149823Y37846
X153390Y37846
X153670Y29908
X153670Y30607
X151130Y11620
X150495Y11620
X147511Y1651
X147034Y2127
X155829Y1397
X154115Y15494
X154369Y25844
X153861Y32321
X153861Y33020
X154115Y12414
X154115Y11652
X155057Y17463
X148573Y28829
X148883Y20356
X149733Y15511
X149878Y9017
X152019Y29527
X151575Y30480
X9335Y46037
X8128Y43307
X2604Y42736
X3334Y74581
X3265Y79693
X7403Y79693
X937Y64643
X5334Y65208
X937Y69977
X1270Y76708
X937Y70993
X7048Y69787
X8700Y69787
X8700Y67628
X3223Y65532
X7683Y65596
X937Y60452
X937Y59372
X1255Y45402
X1191Y43878
X8700Y76708
X10097Y81217
X635Y80264
X9446Y43371
X5524Y44894
X2207Y58737
X2049Y68009
X3334Y73247
X5334Y77216
X937Y49276
X937Y52578
X3350Y55943
X937Y55626
X6350Y51308
X7224Y54197
X4318Y71628
X8748Y52832
X8176Y57785
X4921Y47403
X6350Y48768
X6921Y62674
X6921Y60769
X7747Y47403
X3541Y57404
X6128Y52768
X937Y74581
X7493Y75311
X7584Y42736
X7112Y43244
X6604Y42736
X6096Y43244
X5604Y42736
X5144Y43688
X4604Y42736
X4064Y43307
X3604Y42736
X2794Y69356
X1898Y61504
X5112Y61500
X3048Y43307
X2667Y66820
X1509Y60896
X8578Y42730
X1841Y43307
X3519Y78994
X7085Y78994
X7366Y71057
X7366Y71755
X4826Y52768
X4191Y52768
X1207Y42799
X730Y43275
X9525Y42545
X7810Y56642
X8064Y66993
X7556Y73470
X7556Y74168
X7810Y53562
X7810Y52800
X8753Y58610
X2269Y69977
X2579Y61504
X3429Y56659
X3574Y50165
X5715Y70676
X5271Y71628
X25590Y46037
X24384Y43307
X18860Y42736
X19590Y74581
X19521Y79693
X23659Y79693
X17193Y64643
X21590Y65208
X17193Y69977
X17526Y76708
X17193Y70993
X23304Y69787
X24955Y69787
X24955Y67628
X19479Y65532
X23939Y65596
X17193Y60452
X17193Y59372
X17511Y45402
X17447Y43878
X24955Y76708
X26352Y81217
X16891Y80264
X25702Y43371
X21781Y44894
X18463Y58737
X18305Y68009
X19590Y73247
X21590Y77216
X17193Y49276
X17193Y52578
X19606Y55943
X17193Y55626
X22606Y51308
X23480Y54197
X20574Y71628
X25004Y52832
X24432Y57785
X21177Y47403
X22606Y48768
X23177Y62674
X23177Y60769
X24003Y47403
X19797Y57404
X22384Y52768
X17193Y74581
X23749Y75311
X23840Y42736
X23368Y43244
X22860Y42736
X22352Y43244
X21860Y42736
X21400Y43688
X20860Y42736
X20320Y43307
X19860Y42736
X19050Y69356
X18154Y61504
X21368Y61500
X19304Y43307
X18923Y66820
X17765Y60896
X24834Y42730
X18098Y43307
X19775Y78994
X23341Y78994
X23622Y71057
X23622Y71755
X21082Y52768
X20447Y52768
X17463Y42799
X16986Y43275
X25781Y42545
X24066Y56642
X24320Y66993
X23812Y73470
X23812Y74168
X24066Y53562
X24066Y52800
X25009Y58610
X18525Y69977
X18835Y61504
X19685Y56659
X19830Y50165
X21971Y70676
X21527Y71628
X41847Y46037
X40640Y43307
X35116Y42736
X35846Y74581
X35777Y79693
X39915Y79693
X33449Y64643
X37846Y65208
X33449Y69977
X33782Y76708
X33449Y70993
X39561Y69787
X41212Y69787
X41212Y67628
X35735Y65532
X40196Y65596
X33449Y60452
X33449Y59372
X33767Y45402
X33703Y43878
X41212Y76708
X42609Y81217
X33147Y80264
X41958Y43371
X38037Y44894
X34719Y58737
X34561Y68009
X35846Y73247
X37846Y77216
X33449Y49276
X33449Y52578
X35862Y55943
X33449Y55626
X38862Y51308
X39736Y54197
X36830Y71628
X41260Y52832
X40688Y57785
X37433Y47403
X38862Y48768
X39434Y62674
X39434Y60769
X40259Y47403
X36053Y57404
X38640Y52768
X33449Y74581
X40005Y75311
X40096Y42736
X39624Y43244
X39116Y42736
X38608Y43244
X38116Y42736
X37656Y43688
X37116Y42736
X36576Y43307
X36116Y42736
X35306Y69356
X34410Y61504
X37624Y61500
X35560Y43307
X35179Y66820
X34021Y60896
X41090Y42730
X34354Y43307
X36031Y78994
X39598Y78994
X39878Y71057
X39878Y71755
X37338Y52768
X36703Y52768
X33719Y42799
X33242Y43275
X42037Y42545
X40323Y56642
X40577Y66993
X40069Y73470
X40069Y74168
X40323Y53562
X40323Y52800
X41265Y58610
X34781Y69977
X35091Y61504
X35941Y56659
X36086Y50165
X38227Y70676
X37783Y71628
X58102Y46037
X56896Y43307
X51371Y42736
X52102Y74581
X52033Y79693
X56171Y79693
X49705Y64643
X54102Y65208
X49705Y69977
X50038Y76708
X49705Y70993
X55816Y69787
X57467Y69787
X57467Y67628
X51991Y65532
X56451Y65596
X49705Y60452
X49705Y59372
X50023Y45402
X49959Y43878
X57467Y76708
X58864Y81217
X49403Y80264
X58214Y43371
X54292Y44894
X50975Y58737
X50817Y68009
X52102Y73247
X54102Y77216
X49705Y49276
X49705Y52578
X52118Y55943
X49705Y55626
X55118Y51308
X55992Y54197
X53086Y71628
X57516Y52832
X56944Y57785
X53689Y47403
X55118Y48768
X55689Y62674
X55689Y60769
X56515Y47403
X52309Y57404
X54896Y52768
X49705Y74581
X56261Y75311
X56352Y42736
X55880Y43244
X55372Y42736
X54864Y43244
X54372Y42736
X53911Y43688
X53372Y42736
X52832Y43307
X52372Y42736
X51562Y69356
X50666Y61504
X53880Y61500
X51816Y43307
X51435Y66820
X50277Y60896
X57346Y42730
X50609Y43307
X52287Y78994
X55853Y78994
X56134Y71057
X56134Y71755
X53594Y52768
X52959Y52768
X49974Y42799
X49498Y43275
X58293Y42545
X56578Y56642
X56832Y66993
X56324Y73470
X56324Y74168
X56578Y53562
X56578Y52800
X57521Y58610
X51037Y69977
X51347Y61504
X52197Y56659
X52342Y50165
X54483Y70676
X54038Y71628
X74359Y46037
X73152Y43307
X67628Y42736
X68358Y74581
X68289Y79693
X72427Y79693
X65961Y64643
X70358Y65208
X65961Y69977
X66294Y76708
X65961Y70993
X72073Y69787
X73724Y69787
X73724Y67628
X68247Y65532
X72708Y65596
X65961Y60452
X65961Y59372
X66279Y45402
X66215Y43878
X73724Y76708
X75121Y81217
X65659Y80264
X74470Y43371
X70549Y44894
X67231Y58737
X67073Y68009
X68358Y73247
X70358Y77216
X65961Y49276
X65961Y52578
X68374Y55943
X65961Y55626
X71374Y51308
X72248Y54197
X69342Y71628
X73772Y52832
X73200Y57785
X69945Y47403
X71374Y48768
X71946Y62674
X71946Y60769
X72771Y47403
X68565Y57404
X71152Y52768
X65961Y74581
X72517Y75311
X72608Y42736
X72136Y43244
X71628Y42736
X71120Y43244
X70628Y42736
X70168Y43688
X69628Y42736
X69088Y43307
X68628Y42736
X67818Y69356
X66922Y61504
X70136Y61500
X68072Y43307
X67691Y66820
X66533Y60896
X73602Y42730
X66866Y43307
X68543Y78994
X72110Y78994
X72390Y71057
X72390Y71755
X69850Y52768
X69215Y52768
X66231Y42799
X65754Y43275
X74549Y42545
X72835Y56642
X73089Y66993
X72581Y73470
X72581Y74168
X72835Y53562
X72835Y52800
X73777Y58610
X67293Y69977
X67603Y61504
X68453Y56659
X68598Y50165
X70739Y70676
X70295Y71628
X90614Y46037
X89408Y43307
X83884Y42736
X84614Y74581
X84545Y79693
X88683Y79693
X82217Y64643
X86614Y65208
X82217Y69977
X82550Y76708
X82217Y70993
X88328Y69787
X89979Y69787
X89979Y67628
X84503Y65532
X88963Y65596
X82217Y60452
X82217Y59372
X82535Y45402
X82471Y43878
X89979Y76708
X91376Y81217
X81915Y80264
X90726Y43371
X86805Y44894
X83487Y58737
X83329Y68009
X84614Y73247
X86614Y77216
X82217Y49276
X82217Y52578
X84630Y55943
X82217Y55626
X87630Y51308
X88504Y54197
X85598Y71628
X90028Y52832
X89456Y57785
X86201Y47403
X87630Y48768
X88201Y62674
X88201Y60769
X89027Y47403
X84821Y57404
X87408Y52768
X82217Y74581
X88773Y75311
X88864Y42736
X88392Y43244
X87884Y42736
X87376Y43244
X86884Y42736
X86424Y43688
X85884Y42736
X85344Y43307
X84884Y42736
X84074Y69356
X83178Y61504
X86392Y61500
X84328Y43307
X83947Y66820
X82789Y60896
X89858Y42730
X83122Y43307
X84799Y78994
X88365Y78994
X88646Y71057
X88646Y71755
X86106Y52768
X85471Y52768
X82487Y42799
X82010Y43275
X90805Y42545
X89090Y56642
X89344Y66993
X88836Y73470
X88836Y74168
X89090Y53562
X89090Y52800
X90033Y58610
X83549Y69977
X83859Y61504
X84709Y56659
X84854Y50165
X86995Y70676
X86551Y71628
X106870Y46037
X105664Y43307
X100139Y42736
X100870Y74581
X100801Y79693
X104939Y79693
X98473Y64643
X102870Y65208
X98473Y69977
X98806Y76708
X98473Y70993
X104584Y69787
X106235Y69787
X106235Y67628
X100759Y65532
X105219Y65596
X98473Y60452
X98473Y59372
X98791Y45402
X98727Y43878
X106235Y76708
X107632Y81217
X98171Y80264
X106982Y43371
X103060Y44894
X99743Y58737
X99585Y68009
X100870Y73247
X102870Y77216
X98473Y49276
X98473Y52578
X100886Y55943
X98473Y55626
X103886Y51308
X104760Y54197
X101854Y71628
X106284Y52832
X105712Y57785
X102457Y47403
X103886Y48768
X104457Y62674
X104457Y60769
X105283Y47403
X101077Y57404
X103664Y52768
X98473Y74581
X105029Y75311
X105120Y42736
X104648Y43244
X104140Y42736
X103632Y43244
X103140Y42736
X102679Y43688
X102140Y42736
X101600Y43307
X101140Y42736
X100330Y69356
X99434Y61504
X102648Y61500
X100584Y43307
X100203Y66820
X99045Y60896
X106114Y42730
X99377Y43307
X101055Y78994
X104621Y78994
X104902Y71057
X104902Y71755
X102362Y52768
X101727Y52768
X98742Y42799
X98266Y43275
X107061Y42545
X105346Y56642
X105600Y66993
X105092Y73470
X105092Y74168
X105346Y53562
X105346Y52800
X106289Y58610
X99805Y69977
X100115Y61504
X100965Y56659
X101110Y50165
X103251Y70676
X102806Y71628
X123126Y46037
X121920Y43307
X116395Y42736
X117126Y74581
X117057Y79693
X121195Y79693
X114729Y64643
X119126Y65208
X114729Y69977
X115062Y76708
X114729Y70993
X120840Y69787
X122491Y69787
X122491Y67628
X117015Y65532
X121475Y65596
X114729Y60452
X114729Y59372
X115047Y45402
X114983Y43878
X122491Y76708
X123888Y81217
X114427Y80264
X123238Y43371
X119316Y44894
X115999Y58737
X115841Y68009
X117126Y73247
X119126Y77216
X114729Y49276
X114729Y52578
X117142Y55943
X114729Y55626
X120142Y51308
X121016Y54197
X118110Y71628
X122540Y52832
X121968Y57785
X118713Y47403
X120142Y48768
X120713Y62674
X120713Y60769
X121539Y47403
X117333Y57404
X119920Y52768
X114729Y74581
X121285Y75311
X121376Y42736
X120904Y43244
X120396Y42736
X119888Y43244
X119396Y42736
X118935Y43688
X118396Y42736
X117856Y43307
X117396Y42736
X116586Y69356
X115690Y61504
X118904Y61500
X116840Y43307
X116459Y66820
X115301Y60896
X122370Y42730
X115633Y43307
X117311Y78994
X120877Y78994
X121158Y71057
X121158Y71755
X118618Y52768
X117983Y52768
X114998Y42799
X114522Y43275
X123317Y42545
X121602Y56642
X121856Y66993
X121348Y73470
X121348Y74168
X121602Y53562
X121602Y52800
X122545Y58610
X116061Y69977
X116371Y61504
X117221Y56659
X117366Y50165
X119507Y70676
X119062Y71628
X139383Y46037
X138176Y43307
X132652Y42736
X133382Y74581
X133313Y79693
X137451Y79693
X130985Y64643
X135382Y65208
X130985Y69977
X131318Y76708
X130985Y70993
X137097Y69787
X138748Y69787
X138748Y67628
X133271Y65532
X137732Y65596
X130985Y60452
X130985Y59372
X131303Y45402
X131239Y43878
X138748Y76708
X140145Y81217
X130683Y80264
X139494Y43371
X135573Y44894
X132255Y58737
X132097Y68009
X133382Y73247
X135382Y77216
X130985Y49276
X130985Y52578
X133398Y55943
X130985Y55626
X136398Y51308
X137272Y54197
X134366Y71628
X138796Y52832
X138224Y57785
X134969Y47403
X136398Y48768
X136970Y62674
X136970Y60769
X137795Y47403
X133589Y57404
X136176Y52768
X130985Y74581
X137541Y75311
X137632Y42736
X137160Y43244
X136652Y42736
X136144Y43244
X135652Y42736
X135192Y43688
X134652Y42736
X134112Y43307
X133652Y42736
X132842Y69356
X131946Y61504
X135160Y61500
X133096Y43307
X132715Y66820
X131557Y60896
X138626Y42730
X131890Y43307
X133567Y78994
X137134Y78994
X137414Y71057
X137414Y71755
X134874Y52768
X134239Y52768
X131255Y42799
X130778Y43275
X139573Y42545
X137859Y56642
X138113Y66993
X137605Y73470
X137605Y74168
X137859Y53562
X137859Y52800
X138801Y58610
X132317Y69977
X132627Y61504
X133477Y56659
X133622Y50165
X135763Y70676
X135319Y71628
X155639Y46037
X154432Y43307
X148908Y42736
X149638Y74581
X149569Y79693
X153707Y79693
X147241Y64643
X151638Y65208
X147241Y69977
X147574Y76708
X147241Y70993
X153353Y69787
X155004Y69787
X155004Y67628
X149527Y65532
X153988Y65596
X147241Y60452
X147241Y59372
X147559Y45402
X147495Y43878
X155004Y76708
X156401Y81217
X146939Y80264
X155750Y43371
X151829Y44894
X148511Y58737
X148353Y68009
X149638Y73247
X151638Y77216
X147241Y49276
X147241Y52578
X149654Y55943
X147241Y55626
X152654Y51308
X153528Y54197
X150622Y71628
X155052Y52832
X154480Y57785
X151225Y47403
X152654Y48768
X153226Y62674
X153226Y60769
X154051Y47403
X149845Y57404
X152432Y52768
X147241Y74581
X153797Y75311
X153888Y42736
X153416Y43244
X152908Y42736
X152400Y43244
X151908Y42736
X151448Y43688
X150908Y42736
X150368Y43307
X149908Y42736
X149098Y69356
X148202Y61504
X151416Y61500
X149352Y43307
X148971Y66820
X147813Y60896
X154882Y42730
X148146Y43307
X149823Y78994
X153390Y78994
X153670Y71057
X153670Y71755
X151130Y52768
X150495Y52768
X147511Y42799
X147034Y43275
X155829Y42545
X154115Y56642
X154369Y66993
X153861Y73470
X153861Y74168
X154115Y53562
X154115Y52800
X155057Y58610
X148573Y69977
X148883Y61504
X149733Y56659
X149878Y50165
X152019Y70676
X151575Y71628
X9335Y87186
X8128Y84455
X2604Y83884
X3334Y115729
X3265Y120840
X7403Y120840
X937Y105791
X5334Y106356
X937Y111125
X1270Y117856
X937Y112141
X7048Y110934
X8700Y110934
X8700Y108775
X3223Y106680
X7683Y106743
X937Y101600
X937Y100520
X1255Y86551
X1191Y85027
X8700Y117856
X10097Y122364
X635Y121412
X9446Y84519
X5524Y86043
X2207Y99885
X2049Y109156
X3334Y114395
X5334Y118364
X937Y90424
X937Y93726
X3350Y97091
X937Y96774
X6350Y92456
X7224Y95345
X4318Y112776
X8748Y93980
X8176Y98933
X4921Y88551
X6350Y89916
X6921Y103822
X6921Y101917
X7747Y88551
X3541Y98552
X6128Y93916
X937Y115729
X7493Y116459
X7584Y83884
X7112Y84392
X6604Y83884
X6096Y84392
X5604Y83884
X5144Y84836
X4604Y83884
X4064Y84455
X3604Y83884
X2794Y110504
X1898Y102652
X5112Y102648
X3048Y84455
X2667Y107967
X1509Y102044
X8578Y83878
X1841Y84455
X3519Y120142
X7085Y120142
X7366Y112204
X7366Y112903
X4826Y93916
X4191Y93916
X1207Y83947
X730Y84423
X9525Y83693
X7810Y97790
X8064Y108140
X7556Y114617
X7556Y115316
X7810Y94710
X7810Y93948
X8753Y99758
X2269Y111125
X2579Y102652
X3429Y97807
X3574Y91313
X5715Y111823
X5271Y112776
X25590Y87186
X24384Y84455
X18860Y83884
X19590Y115729
X19521Y120840
X23659Y120840
X17193Y105791
X21590Y106356
X17193Y111125
X17526Y117856
X17193Y112141
X23304Y110934
X24955Y110934
X24955Y108775
X19479Y106680
X23939Y106743
X17193Y101600
X17193Y100520
X17511Y86551
X17447Y85027
X24955Y117856
X26352Y122364
X16891Y121412
X25702Y84519
X21781Y86043
X18463Y99885
X18305Y109156
X19590Y114395
X21590Y118364
X17193Y90424
X17193Y93726
X19606Y97091
X17193Y96774
X22606Y92456
X23480Y95345
X20574Y112776
X25004Y93980
X24432Y98933
X21177Y88551
X22606Y89916
X23177Y103822
X23177Y101917
X24003Y88551
X19797Y98552
X22384Y93916
X17193Y115729
X23749Y116459
X23840Y83884
X23368Y84392
X22860Y83884
X22352Y84392
X21860Y83884
X21400Y84836
X20860Y83884
X20320Y84455
X19860Y83884
X19050Y110504
X18154Y102652
X21368Y102648
X19304Y84455
X18923Y107967
X17765Y102044
X24834Y83878
X18098Y84455
X19775Y120142
X23341Y120142
X23622Y112204
X23622Y112903
X21082Y93916
X20447Y93916
X17463Y83947
X16986Y84423
X25781Y83693
X24066Y97790
X24320Y108140
X23812Y114617
X23812Y115316
X24066Y94710
X24066Y93948
X25009Y99758
X18525Y111125
X18835Y102652
X19685Y97807
X19830Y91313
X21971Y111823
X21527Y112776
X41847Y87186
X40640Y84455
X35116Y83884
X35846Y115729
X35777Y120840
X39915Y120840
X33449Y105791
X37846Y106356
X33449Y111125
X33782Y117856
X33449Y112141
X39561Y110934
X41212Y110934
X41212Y108775
X35735Y106680
X40196Y106743
X33449Y101600
X33449Y100520
X33767Y86551
X33703Y85027
X41212Y117856
X42609Y122364
X33147Y121412
X41958Y84519
X38037Y86043
X34719Y99885
X34561Y109156
X35846Y114395
X37846Y118364
X33449Y90424
X33449Y93726
X35862Y97091
X33449Y96774
X38862Y92456
X39736Y95345
X36830Y112776
X41260Y93980
X40688Y98933
X37433Y88551
X38862Y89916
X39434Y103822
X39434Y101917
X40259Y88551
X36053Y98552
X38640Y93916
X33449Y115729
X40005Y116459
X40096Y83884
X39624Y84392
X39116Y83884
X38608Y84392
X38116Y83884
X37656Y84836
X37116Y83884
X36576Y84455
X36116Y83884
X35306Y110504
X34410Y102652
X37624Y102648
X35560Y84455
X35179Y107967
X34021Y102044
X41090Y83878
X34354Y84455
X36031Y120142
X39598Y120142
X39878Y112204
X39878Y112903
X37338Y93916
X36703Y93916
X33719Y83947
X33242Y84423
X42037Y83693
X40323Y97790
X40577Y108140
X40069Y114617
X40069Y115316
X40323Y94710
X40323Y93948
X41265Y99758
X34781Y111125
X35091Y102652
X35941Y97807
X36086Y91313
X38227Y111823
X37783Y112776
X58102Y87186
X56896Y84455
X51371Y83884
X52102Y115729
X52033Y120840
X56171Y120840
X49705Y105791
X54102Y106356
X49705Y111125
X50038Y117856
X49705Y112141
X55816Y110934
X57467Y110934
X57467Y108775
X51991Y106680
X56451Y106743
X49705Y101600
X49705Y100520
X50023Y86551
X49959Y85027
X57467Y117856
X58864Y122364
X49403Y121412
X58214Y84519
X54292Y86043
X50975Y99885
X50817Y109156
X52102Y114395
X54102Y118364
X49705Y90424
X49705Y93726
X52118Y97091
X49705Y96774
X55118Y92456
X55992Y95345
X53086Y112776
X57516Y93980
X56944Y98933
X53689Y88551
X55118Y89916
X55689Y103822
X55689Y101917
X56515Y88551
X52309Y98552
X54896Y93916
X49705Y115729
X56261Y116459
X56352Y83884
X55880Y84392
X55372Y83884
X54864Y84392
X54372Y83884
X53911Y84836
X53372Y83884
X52832Y84455
X52372Y83884
X51562Y110504
X50666Y102652
X53880Y102648
X51816Y84455
X51435Y107967
X50277Y102044
X57346Y83878
X50609Y84455
X52287Y120142
X55853Y120142
X56134Y112204
X56134Y112903
X53594Y93916
X52959Y93916
X49974Y83947
X49498Y84423
X58293Y83693
X56578Y97790
X56832Y108140
X56324Y114617
X56324Y115316
X56578Y94710
X56578Y93948
X57521Y99758
X51037Y111125
X51347Y102652
X52197Y97807
X52342Y91313
X54483Y111823
X54038Y112776
X74359Y87186
X73152Y84455
X67628Y83884
X68358Y115729
X68289Y120840
X9335Y4890
X65961Y105791
X70358Y106356
X65961Y111125
X66294Y117856
X65961Y112141
X72073Y110934
X73724Y110934
X73724Y108775
X68247Y106680
X72708Y106743
X65961Y101600
X65961Y100520
X66279Y86551
X66215Y85027
X73724Y117856
X75121Y122364
X65659Y121412
X74470Y84519
X70549Y86043
X67231Y99885
X67073Y109156
X68358Y114395
X70358Y118364
X65961Y90424
X65961Y93726
X68374Y97091
X65961Y96774
X71374Y92456
X72248Y95345
X69342Y112776
X73772Y93980
X73200Y98933
X69945Y88551
X71374Y89916
X71946Y103822
X71946Y101917
X72771Y88551
X68565Y98552
X71152Y93916
X65961Y115729
X72517Y116459
X72608Y83884
X72136Y84392
X71628Y83884
X71120Y84392
X70628Y83884
X70168Y84836
X69628Y83884
X69088Y84455
X68628Y83884
X67818Y110504
X66922Y102652
X70136Y102648
X68072Y84455
X67691Y107967
X66533Y102044
X73602Y83878
X66866Y84455
X68543Y120142
X72110Y120142
X72390Y112204
X72390Y112903
X69850Y93916
X69215Y93916
X66231Y83947
X65754Y84423
X74549Y83693
X72835Y97790
X73089Y108140
X72581Y114617
X72581Y115316
X72835Y94710
X72835Y93948
X73777Y99758
X67293Y111125
X67603Y102652
X68453Y97807
X68598Y91313
X70739Y111823
X70295Y112776
X90614Y87186
X89408Y84455
X83884Y83884
X84614Y115729
X84545Y120840
X88683Y120840
X82217Y105791
X86614Y106356
X82217Y111125
X82550Y117856
X82217Y112141
X88328Y110934
X89979Y110934
X89979Y108775
X84503Y106680
X88963Y106743
X82217Y101600
X82217Y100520
X82535Y86551
X82471Y85027
X89979Y117856
X91376Y122364
X81915Y121412
X90726Y84519
X86805Y86043
X83487Y99885
X83329Y109156
X84614Y114395
X86614Y118364
X82217Y90424
X82217Y93726
X84630Y97091
X82217Y96774
X87630Y92456
X88504Y95345
X85598Y112776
X90028Y93980
X89456Y98933
X86201Y88551
X87630Y89916
X88201Y103822
X88201Y101917
X89027Y88551
X84821Y98552
X87408Y93916
X82217Y115729
X88773Y116459
X88864Y83884
X88392Y84392
X87884Y83884
X87376Y84392
X86884Y83884
X86424Y84836
X85884Y83884
X85344Y84455
X84884Y83884
X84074Y110504
X83178Y102652
X86392Y102648
X84328Y84455
X83947Y107967
X82789Y102044
X89858Y83878
X83122Y84455
X84799Y120142
X88365Y120142
X88646Y112204
X88646Y112903
X86106Y93916
X85471Y93916
X82487Y83947
X82010Y84423
X90805Y83693
X89090Y97790
X89344Y108140
X88836Y114617
X88836Y115316
X89090Y94710
X89090Y93948
X90033Y99758
X83549Y111125
X83859Y102652
X84709Y97807
X84854Y91313
X86995Y111823
X86551Y112776
X106870Y87186
X105664Y84455
X100139Y83884
X100870Y115729
X100801Y120840
X104939Y120840
X98473Y105791
X102870Y106356
X98473Y111125
X98806Y117856
X98473Y112141
X104584Y110934
X106235Y110934
X106235Y108775
X100759Y106680
X105219Y106743
X98473Y101600
X98473Y100520
X98791Y86551
X98727Y85027
X106235Y117856
X107632Y122364
X98171Y121412
X106982Y84519
X103060Y86043
X99743Y99885
X99585Y109156
X100870Y114395
X102870Y118364
X98473Y90424
X98473Y93726
X100886Y97091
X98473Y96774
X103886Y92456
X104760Y95345
X101854Y112776
X106284Y93980
X105712Y98933
X102457Y88551
X103886Y89916
X104457Y103822
X104457Y101917
X105283Y88551
X101077Y98552
X103664Y93916
X98473Y115729
X105029Y116459
X105120Y83884
X104648Y84392
X104140Y83884
X103632Y84392
X103140Y83884
X102679Y84836
X102140Y83884
X101600Y84455
X101140Y83884
X100330Y110504
X99434Y102652
X102648Y102648
X100584Y84455
X100203Y107967
X99045Y102044
X106114Y83878
X99377Y84455
X101055Y120142
X104621Y120142
X104902Y112204
X104902Y112903
X102362Y93916
X101727Y93916
X98742Y83947
X98266Y84423
X107061Y83693
X105346Y97790
X105600Y108140
X105092Y114617
X105092Y115316
X105346Y94710
X105346Y93948
X106289Y99758
X99805Y111125
X100115Y102652
X100965Y97807
X101110Y91313
X103251Y111823
X102806Y112776
X123126Y87186
X121920Y84455
X116395Y83884
X117126Y115729
X117057Y120840
X121195Y120840
X114729Y105791
X119126Y106356
X114729Y111125
X115062Y117856
X114729Y112141
X120840Y110934
X122491Y110934
X122491Y108775
X117015Y106680
X121475Y106743
X114729Y101600
X114729Y100520
X115047Y86551
X114983Y85027
X122491Y117856
X123888Y122364
X114427Y121412
X123238Y84519
X119316Y86043
X115999Y99885
X115841Y109156
X117126Y114395
X119126Y118364
X114729Y90424
X114729Y93726
X117142Y97091
X114729Y96774
X120142Y92456
X121016Y95345
X118110Y112776
X122540Y93980
X121968Y98933
X118713Y88551
X120142Y89916
X120713Y103822
X120713Y101917
X121539Y88551
X117333Y98552
X119920Y93916
X114729Y115729
X121285Y116459
X121376Y83884
X120904Y84392
X120396Y83884
X119888Y84392
X119396Y83884
X118935Y84836
X118396Y83884
X117856Y84455
X117396Y83884
X116586Y110504
X115690Y102652
X118904Y102648
X116840Y84455
X116459Y107967
X115301Y102044
X122370Y83878
X115633Y84455
X117311Y120142
X120877Y120142
X121158Y112204
X121158Y112903
X118618Y93916
X117983Y93916
X114998Y83947
X114522Y84423
X123317Y83693
X121602Y97790
X121856Y108140
X121348Y114617
X121348Y115316
X121602Y94710
X121602Y93948
X122545Y99758
X116061Y111125
X116371Y102652
X117221Y97807
X117366Y91313
X119507Y111823
X119062Y112776
X139383Y87186
X138176Y84455
X132652Y83884
X133382Y115729
X133313Y120840
X137451Y120840
X72427Y120840
X135382Y106356
X130985Y111125
X131318Y117856
X130985Y112141
X137097Y110934
X138748Y110934
X138748Y108775
X133271Y106680
X137732Y106743
X130985Y101600
X130985Y100520
X131303Y86551
X131239Y85027
X138748Y117856
X140145Y122364
X130683Y121412
X139494Y84519
X135573Y86043
X132255Y99885
X132097Y109156
X133382Y114395
X135382Y118364
X130985Y90424
X130985Y93726
X133398Y97091
X130985Y96774
X136398Y92456
X137272Y95345
X134366Y112776
X138796Y93980
X138224Y98933
X134969Y88551
X136398Y89916
X136970Y103822
X136970Y101917
X137795Y88551
X133589Y98552
X136176Y93916
X130985Y115729
X137541Y116459
X137632Y83884
X137160Y84392
X136652Y83884
X136144Y84392
X135652Y83884
X135192Y84836
X134652Y83884
X134112Y84455
X133652Y83884
X132842Y110504
X131946Y102652
X135160Y102648
X133096Y84455
X132715Y107967
X131557Y102044
X138626Y83878
X131890Y84455
X133567Y120142
X137134Y120142
X137414Y112204
X137414Y112903
X134874Y93916
X134239Y93916
X131255Y83947
X130778Y84423
X139573Y83693
X137859Y97790
X138113Y108140
X137605Y114617
X137605Y115316
X137859Y94710
X137859Y93948
X138801Y99758
X132317Y111125
X132627Y102652
X133477Y97807
X133622Y91313
X135763Y111823
X135319Y112776
X155639Y87186
X154432Y84455
X148908Y83884
X149638Y115729
X149569Y120840
X153707Y120840
X147241Y105791
X151638Y106356
X147241Y111125
X147574Y117856
X147241Y112141
X153353Y110934
X155004Y110934
X155004Y108775
X149527Y106680
X153988Y106743
X147241Y101600
X147241Y100520
X147559Y86551
X147495Y85027
X155004Y117856
X156401Y122364
X146939Y121412
X155750Y84519
X151829Y86043
X148511Y99885
X148353Y109156
X149638Y114395
X151638Y118364
X147241Y90424
X147241Y93726
X149654Y97091
X147241Y96774
X152654Y92456
X153528Y95345
X150622Y112776
X155052Y93980
X154480Y98933
X151225Y88551
X152654Y89916
X153226Y103822
X153226Y101917
X154051Y88551
X149845Y98552
X152432Y93916
X147241Y115729
X153797Y116459
X153888Y83884
X153416Y84392
X152908Y83884
X152400Y84392
X151908Y83884
X151448Y84836
X150908Y83884
X150368Y84455
X149908Y83884
X149098Y110504
X148202Y102652
X151416Y102648
X149352Y84455
X148971Y107967
X147813Y102044
X154882Y83878
X148146Y84455
X149823Y120142
X153390Y120142
X153670Y112204
X153670Y112903
X151130Y93916
X150495Y93916
X147511Y83947
X147034Y84423
X155829Y83693
X154115Y97790
X154369Y108140
X153861Y114617
X153861Y115316
X154115Y94710
X154115Y93948
X155057Y99758
X148573Y111125
X148883Y102652
X149733Y97807
X149878Y91313
X152019Y111823
X151575Y112776
X8128Y2159
X2604Y1587
X3334Y33433
X3265Y38545
X7403Y38545
X937Y23495
X5334Y24060
X937Y28829
X1270Y35560
X937Y29845
X7048Y28638
X8700Y28638
X8700Y26479
X3223Y24384
X7683Y24447
X937Y19304
X937Y18225
X1255Y4255
X1191Y2731
X8700Y35560
X10097Y40069
X635Y39116
X9446Y2223
X5524Y3746
X2207Y17590
X2049Y26860
X3334Y32099
X5334Y36068
X937Y8128
X937Y11430
X3350Y14795
X937Y14478
X6350Y10160
X7224Y13049
X4318Y30480
X8748Y11684
X8176Y16637
X4921Y6255
X6350Y7620
X6921Y21527
X6921Y19622
X7747Y6255
X3541Y16256
X6128Y11620
X937Y33433
X7493Y34163
X7584Y1587
X7112Y2096
X6604Y1587
X6096Y2096
X5604Y1587
X5144Y2540
X4604Y1587
X4064Y2159
X3604Y1587
X2794Y28208
X1898Y20356
X5112Y20352
X3048Y2159
X2667Y25671
X1509Y19749
X8578Y1582
X1841Y2159
X3519Y37846
X7085Y37846
X7366Y29908
X7366Y30607
X4826Y11620
X4191Y11620
X1207Y1651
X730Y2127
X9525Y1397
X7810Y15494
X8064Y25844
X7556Y32321
X7556Y33020
X7810Y12414
X7810Y11652
X8753Y17463
X2269Y28829
X2579Y20356
X3429Y15511
X3574Y9017
X5715Y29527
X5271Y30480
X25590Y4890
X24384Y2159
X18860Y1587
X19590Y33433
X19521Y38545
X23659Y38545
X17193Y23495
X21590Y24060
X17193Y28829
X17526Y35560
X17193Y29845
X23304Y28638
X24955Y28638
X24955Y26479
X19479Y24384
X23939Y24447
X17193Y19304
X17193Y18225
X17511Y4255
X17447Y2731
X24955Y35560
X26352Y40069
X16891Y39116
X25702Y2223
X21781Y3746
X18463Y17590
X18305Y26860
X19590Y32099
X21590Y36068
X17193Y8128
X17193Y11430
X19606Y14795
X17193Y14478
X22606Y10160
X23480Y13049
X20574Y30480
X25004Y11684
X24432Y16637
X21177Y6255
X22606Y7620
X23177Y21527
X23177Y19622
X24003Y6255
X19797Y16256
X22384Y11620
X17193Y33433
X23749Y34163
X23840Y1587
X23368Y2096
X22860Y1587
X22352Y2096
X21860Y1587
X21400Y2540
X20860Y1587
X20320Y2159
X19860Y1587
X19050Y28208
X18154Y20356
X21368Y20352
X19304Y2159
X18923Y25671
X17765Y19749
X24834Y1582
X18098Y2159
X19775Y37846
X23341Y37846
X23622Y29908
X23622Y30607
X21082Y11620
X20447Y11620
X17463Y1651
X16986Y2127
X25781Y1397
X24066Y15494
X24320Y25844
X23812Y32321
X23812Y33020
X24066Y12414
X24066Y11652
X25009Y17463
X18525Y28829
X18835Y20356
X19685Y15511
X19830Y9017
X21971Y29527
X21527Y30480
X41847Y4890
X40640Y2159
X35116Y1587
X35846Y33433
X35777Y38545
X39915Y38545
X33449Y23495
X37846Y24060
X130985Y105791
M30