G04 EAGLE Gerber RS-274X export*
G75*
%MOMM*%
%FSLAX34Y34*%
%LPD*%
%INSolderpaste Bottom*%
%IPPOS*%
%AMOC8*
5,1,8,0,0,1.08239X$1,22.5*%
G01*
%ADD10C,0.100000*%
%ADD11R,0.250000X0.650000*%


D10*
X99340Y377445D02*
X102340Y377445D01*
X102340Y370445D01*
X99340Y370445D01*
X99340Y377445D01*
X99340Y371395D02*
X102340Y371395D01*
X102340Y372345D02*
X99340Y372345D01*
X99340Y373295D02*
X102340Y373295D01*
X102340Y374245D02*
X99340Y374245D01*
X99340Y375195D02*
X102340Y375195D01*
X102340Y376145D02*
X99340Y376145D01*
X99340Y377095D02*
X102340Y377095D01*
D11*
X90840Y398945D03*
X85840Y398945D03*
D10*
X7340Y377445D02*
X4340Y377445D01*
X7340Y377445D02*
X7340Y370445D01*
X4340Y370445D01*
X4340Y377445D01*
X4340Y371395D02*
X7340Y371395D01*
X7340Y372345D02*
X4340Y372345D01*
X4340Y373295D02*
X7340Y373295D01*
X7340Y374245D02*
X4340Y374245D01*
X4340Y375195D02*
X7340Y375195D01*
X7340Y376145D02*
X4340Y376145D01*
X4340Y377095D02*
X7340Y377095D01*
D11*
X80840Y398945D03*
X75840Y398945D03*
X70840Y398945D03*
X65840Y398945D03*
X60840Y398945D03*
X55840Y398945D03*
X50840Y398945D03*
X45840Y398945D03*
X40840Y398945D03*
X35840Y398945D03*
X30840Y398945D03*
X25840Y398945D03*
X20840Y398945D03*
X15840Y398945D03*
D10*
X261900Y377445D02*
X264900Y377445D01*
X264900Y370445D01*
X261900Y370445D01*
X261900Y377445D01*
X261900Y371395D02*
X264900Y371395D01*
X264900Y372345D02*
X261900Y372345D01*
X261900Y373295D02*
X264900Y373295D01*
X264900Y374245D02*
X261900Y374245D01*
X261900Y375195D02*
X264900Y375195D01*
X264900Y376145D02*
X261900Y376145D01*
X261900Y377095D02*
X264900Y377095D01*
D11*
X253400Y398945D03*
X248400Y398945D03*
D10*
X169900Y377445D02*
X166900Y377445D01*
X169900Y377445D02*
X169900Y370445D01*
X166900Y370445D01*
X166900Y377445D01*
X166900Y371395D02*
X169900Y371395D01*
X169900Y372345D02*
X166900Y372345D01*
X166900Y373295D02*
X169900Y373295D01*
X169900Y374245D02*
X166900Y374245D01*
X166900Y375195D02*
X169900Y375195D01*
X169900Y376145D02*
X166900Y376145D01*
X166900Y377095D02*
X169900Y377095D01*
D11*
X243400Y398945D03*
X238400Y398945D03*
X233400Y398945D03*
X228400Y398945D03*
X223400Y398945D03*
X218400Y398945D03*
X213400Y398945D03*
X208400Y398945D03*
X203400Y398945D03*
X198400Y398945D03*
X193400Y398945D03*
X188400Y398945D03*
X183400Y398945D03*
X178400Y398945D03*
D10*
X424460Y377445D02*
X427460Y377445D01*
X427460Y370445D01*
X424460Y370445D01*
X424460Y377445D01*
X424460Y371395D02*
X427460Y371395D01*
X427460Y372345D02*
X424460Y372345D01*
X424460Y373295D02*
X427460Y373295D01*
X427460Y374245D02*
X424460Y374245D01*
X424460Y375195D02*
X427460Y375195D01*
X427460Y376145D02*
X424460Y376145D01*
X424460Y377095D02*
X427460Y377095D01*
D11*
X415960Y398945D03*
X410960Y398945D03*
D10*
X332460Y377445D02*
X329460Y377445D01*
X332460Y377445D02*
X332460Y370445D01*
X329460Y370445D01*
X329460Y377445D01*
X329460Y371395D02*
X332460Y371395D01*
X332460Y372345D02*
X329460Y372345D01*
X329460Y373295D02*
X332460Y373295D01*
X332460Y374245D02*
X329460Y374245D01*
X329460Y375195D02*
X332460Y375195D01*
X332460Y376145D02*
X329460Y376145D01*
X329460Y377095D02*
X332460Y377095D01*
D11*
X405960Y398945D03*
X400960Y398945D03*
X395960Y398945D03*
X390960Y398945D03*
X385960Y398945D03*
X380960Y398945D03*
X375960Y398945D03*
X370960Y398945D03*
X365960Y398945D03*
X360960Y398945D03*
X355960Y398945D03*
X350960Y398945D03*
X345960Y398945D03*
X340960Y398945D03*
D10*
X587020Y377445D02*
X590020Y377445D01*
X590020Y370445D01*
X587020Y370445D01*
X587020Y377445D01*
X587020Y371395D02*
X590020Y371395D01*
X590020Y372345D02*
X587020Y372345D01*
X587020Y373295D02*
X590020Y373295D01*
X590020Y374245D02*
X587020Y374245D01*
X587020Y375195D02*
X590020Y375195D01*
X590020Y376145D02*
X587020Y376145D01*
X587020Y377095D02*
X590020Y377095D01*
D11*
X578520Y398945D03*
X573520Y398945D03*
D10*
X495020Y377445D02*
X492020Y377445D01*
X495020Y377445D02*
X495020Y370445D01*
X492020Y370445D01*
X492020Y377445D01*
X492020Y371395D02*
X495020Y371395D01*
X495020Y372345D02*
X492020Y372345D01*
X492020Y373295D02*
X495020Y373295D01*
X495020Y374245D02*
X492020Y374245D01*
X492020Y375195D02*
X495020Y375195D01*
X495020Y376145D02*
X492020Y376145D01*
X492020Y377095D02*
X495020Y377095D01*
D11*
X568520Y398945D03*
X563520Y398945D03*
X558520Y398945D03*
X553520Y398945D03*
X548520Y398945D03*
X543520Y398945D03*
X538520Y398945D03*
X533520Y398945D03*
X528520Y398945D03*
X523520Y398945D03*
X518520Y398945D03*
X513520Y398945D03*
X508520Y398945D03*
X503520Y398945D03*
D10*
X749580Y377445D02*
X752580Y377445D01*
X752580Y370445D01*
X749580Y370445D01*
X749580Y377445D01*
X749580Y371395D02*
X752580Y371395D01*
X752580Y372345D02*
X749580Y372345D01*
X749580Y373295D02*
X752580Y373295D01*
X752580Y374245D02*
X749580Y374245D01*
X749580Y375195D02*
X752580Y375195D01*
X752580Y376145D02*
X749580Y376145D01*
X749580Y377095D02*
X752580Y377095D01*
D11*
X741080Y398945D03*
X736080Y398945D03*
D10*
X657580Y377445D02*
X654580Y377445D01*
X657580Y377445D02*
X657580Y370445D01*
X654580Y370445D01*
X654580Y377445D01*
X654580Y371395D02*
X657580Y371395D01*
X657580Y372345D02*
X654580Y372345D01*
X654580Y373295D02*
X657580Y373295D01*
X657580Y374245D02*
X654580Y374245D01*
X654580Y375195D02*
X657580Y375195D01*
X657580Y376145D02*
X654580Y376145D01*
X654580Y377095D02*
X657580Y377095D01*
D11*
X731080Y398945D03*
X726080Y398945D03*
X721080Y398945D03*
X716080Y398945D03*
X711080Y398945D03*
X706080Y398945D03*
X701080Y398945D03*
X696080Y398945D03*
X691080Y398945D03*
X686080Y398945D03*
X681080Y398945D03*
X676080Y398945D03*
X671080Y398945D03*
X666080Y398945D03*
D10*
X912140Y377445D02*
X915140Y377445D01*
X915140Y370445D01*
X912140Y370445D01*
X912140Y377445D01*
X912140Y371395D02*
X915140Y371395D01*
X915140Y372345D02*
X912140Y372345D01*
X912140Y373295D02*
X915140Y373295D01*
X915140Y374245D02*
X912140Y374245D01*
X912140Y375195D02*
X915140Y375195D01*
X915140Y376145D02*
X912140Y376145D01*
X912140Y377095D02*
X915140Y377095D01*
D11*
X903640Y398945D03*
X898640Y398945D03*
D10*
X820140Y377445D02*
X817140Y377445D01*
X820140Y377445D02*
X820140Y370445D01*
X817140Y370445D01*
X817140Y377445D01*
X817140Y371395D02*
X820140Y371395D01*
X820140Y372345D02*
X817140Y372345D01*
X817140Y373295D02*
X820140Y373295D01*
X820140Y374245D02*
X817140Y374245D01*
X817140Y375195D02*
X820140Y375195D01*
X820140Y376145D02*
X817140Y376145D01*
X817140Y377095D02*
X820140Y377095D01*
D11*
X893640Y398945D03*
X888640Y398945D03*
X883640Y398945D03*
X878640Y398945D03*
X873640Y398945D03*
X868640Y398945D03*
X863640Y398945D03*
X858640Y398945D03*
X853640Y398945D03*
X848640Y398945D03*
X843640Y398945D03*
X838640Y398945D03*
X833640Y398945D03*
X828640Y398945D03*
D10*
X1074700Y377445D02*
X1077700Y377445D01*
X1077700Y370445D01*
X1074700Y370445D01*
X1074700Y377445D01*
X1074700Y371395D02*
X1077700Y371395D01*
X1077700Y372345D02*
X1074700Y372345D01*
X1074700Y373295D02*
X1077700Y373295D01*
X1077700Y374245D02*
X1074700Y374245D01*
X1074700Y375195D02*
X1077700Y375195D01*
X1077700Y376145D02*
X1074700Y376145D01*
X1074700Y377095D02*
X1077700Y377095D01*
D11*
X1066200Y398945D03*
X1061200Y398945D03*
D10*
X982700Y377445D02*
X979700Y377445D01*
X982700Y377445D02*
X982700Y370445D01*
X979700Y370445D01*
X979700Y377445D01*
X979700Y371395D02*
X982700Y371395D01*
X982700Y372345D02*
X979700Y372345D01*
X979700Y373295D02*
X982700Y373295D01*
X982700Y374245D02*
X979700Y374245D01*
X979700Y375195D02*
X982700Y375195D01*
X982700Y376145D02*
X979700Y376145D01*
X979700Y377095D02*
X982700Y377095D01*
D11*
X1056200Y398945D03*
X1051200Y398945D03*
X1046200Y398945D03*
X1041200Y398945D03*
X1036200Y398945D03*
X1031200Y398945D03*
X1026200Y398945D03*
X1021200Y398945D03*
X1016200Y398945D03*
X1011200Y398945D03*
X1006200Y398945D03*
X1001200Y398945D03*
X996200Y398945D03*
X991200Y398945D03*
D10*
X1237260Y377445D02*
X1240260Y377445D01*
X1240260Y370445D01*
X1237260Y370445D01*
X1237260Y377445D01*
X1237260Y371395D02*
X1240260Y371395D01*
X1240260Y372345D02*
X1237260Y372345D01*
X1237260Y373295D02*
X1240260Y373295D01*
X1240260Y374245D02*
X1237260Y374245D01*
X1237260Y375195D02*
X1240260Y375195D01*
X1240260Y376145D02*
X1237260Y376145D01*
X1237260Y377095D02*
X1240260Y377095D01*
D11*
X1228760Y398945D03*
X1223760Y398945D03*
D10*
X1145260Y377445D02*
X1142260Y377445D01*
X1145260Y377445D02*
X1145260Y370445D01*
X1142260Y370445D01*
X1142260Y377445D01*
X1142260Y371395D02*
X1145260Y371395D01*
X1145260Y372345D02*
X1142260Y372345D01*
X1142260Y373295D02*
X1145260Y373295D01*
X1145260Y374245D02*
X1142260Y374245D01*
X1142260Y375195D02*
X1145260Y375195D01*
X1145260Y376145D02*
X1142260Y376145D01*
X1142260Y377095D02*
X1145260Y377095D01*
D11*
X1218760Y398945D03*
X1213760Y398945D03*
X1208760Y398945D03*
X1203760Y398945D03*
X1198760Y398945D03*
X1193760Y398945D03*
X1188760Y398945D03*
X1183760Y398945D03*
X1178760Y398945D03*
X1173760Y398945D03*
X1168760Y398945D03*
X1163760Y398945D03*
X1158760Y398945D03*
X1153760Y398945D03*
D10*
X1399820Y377445D02*
X1402820Y377445D01*
X1402820Y370445D01*
X1399820Y370445D01*
X1399820Y377445D01*
X1399820Y371395D02*
X1402820Y371395D01*
X1402820Y372345D02*
X1399820Y372345D01*
X1399820Y373295D02*
X1402820Y373295D01*
X1402820Y374245D02*
X1399820Y374245D01*
X1399820Y375195D02*
X1402820Y375195D01*
X1402820Y376145D02*
X1399820Y376145D01*
X1399820Y377095D02*
X1402820Y377095D01*
D11*
X1391320Y398945D03*
X1386320Y398945D03*
D10*
X1307820Y377445D02*
X1304820Y377445D01*
X1307820Y377445D02*
X1307820Y370445D01*
X1304820Y370445D01*
X1304820Y377445D01*
X1304820Y371395D02*
X1307820Y371395D01*
X1307820Y372345D02*
X1304820Y372345D01*
X1304820Y373295D02*
X1307820Y373295D01*
X1307820Y374245D02*
X1304820Y374245D01*
X1304820Y375195D02*
X1307820Y375195D01*
X1307820Y376145D02*
X1304820Y376145D01*
X1304820Y377095D02*
X1307820Y377095D01*
D11*
X1381320Y398945D03*
X1376320Y398945D03*
X1371320Y398945D03*
X1366320Y398945D03*
X1361320Y398945D03*
X1356320Y398945D03*
X1351320Y398945D03*
X1346320Y398945D03*
X1341320Y398945D03*
X1336320Y398945D03*
X1331320Y398945D03*
X1326320Y398945D03*
X1321320Y398945D03*
X1316320Y398945D03*
D10*
X1562380Y377445D02*
X1565380Y377445D01*
X1565380Y370445D01*
X1562380Y370445D01*
X1562380Y377445D01*
X1562380Y371395D02*
X1565380Y371395D01*
X1565380Y372345D02*
X1562380Y372345D01*
X1562380Y373295D02*
X1565380Y373295D01*
X1565380Y374245D02*
X1562380Y374245D01*
X1562380Y375195D02*
X1565380Y375195D01*
X1565380Y376145D02*
X1562380Y376145D01*
X1562380Y377095D02*
X1565380Y377095D01*
D11*
X1553880Y398945D03*
X1548880Y398945D03*
D10*
X1470380Y377445D02*
X1467380Y377445D01*
X1470380Y377445D02*
X1470380Y370445D01*
X1467380Y370445D01*
X1467380Y377445D01*
X1467380Y371395D02*
X1470380Y371395D01*
X1470380Y372345D02*
X1467380Y372345D01*
X1467380Y373295D02*
X1470380Y373295D01*
X1470380Y374245D02*
X1467380Y374245D01*
X1467380Y375195D02*
X1470380Y375195D01*
X1470380Y376145D02*
X1467380Y376145D01*
X1467380Y377095D02*
X1470380Y377095D01*
D11*
X1543880Y398945D03*
X1538880Y398945D03*
X1533880Y398945D03*
X1528880Y398945D03*
X1523880Y398945D03*
X1518880Y398945D03*
X1513880Y398945D03*
X1508880Y398945D03*
X1503880Y398945D03*
X1498880Y398945D03*
X1493880Y398945D03*
X1488880Y398945D03*
X1483880Y398945D03*
X1478880Y398945D03*
D10*
X102340Y788925D02*
X99340Y788925D01*
X102340Y788925D02*
X102340Y781925D01*
X99340Y781925D01*
X99340Y788925D01*
X99340Y782875D02*
X102340Y782875D01*
X102340Y783825D02*
X99340Y783825D01*
X99340Y784775D02*
X102340Y784775D01*
X102340Y785725D02*
X99340Y785725D01*
X99340Y786675D02*
X102340Y786675D01*
X102340Y787625D02*
X99340Y787625D01*
X99340Y788575D02*
X102340Y788575D01*
D11*
X90840Y810425D03*
X85840Y810425D03*
D10*
X7340Y788925D02*
X4340Y788925D01*
X7340Y788925D02*
X7340Y781925D01*
X4340Y781925D01*
X4340Y788925D01*
X4340Y782875D02*
X7340Y782875D01*
X7340Y783825D02*
X4340Y783825D01*
X4340Y784775D02*
X7340Y784775D01*
X7340Y785725D02*
X4340Y785725D01*
X4340Y786675D02*
X7340Y786675D01*
X7340Y787625D02*
X4340Y787625D01*
X4340Y788575D02*
X7340Y788575D01*
D11*
X80840Y810425D03*
X75840Y810425D03*
X70840Y810425D03*
X65840Y810425D03*
X60840Y810425D03*
X55840Y810425D03*
X50840Y810425D03*
X45840Y810425D03*
X40840Y810425D03*
X35840Y810425D03*
X30840Y810425D03*
X25840Y810425D03*
X20840Y810425D03*
X15840Y810425D03*
D10*
X261900Y788925D02*
X264900Y788925D01*
X264900Y781925D01*
X261900Y781925D01*
X261900Y788925D01*
X261900Y782875D02*
X264900Y782875D01*
X264900Y783825D02*
X261900Y783825D01*
X261900Y784775D02*
X264900Y784775D01*
X264900Y785725D02*
X261900Y785725D01*
X261900Y786675D02*
X264900Y786675D01*
X264900Y787625D02*
X261900Y787625D01*
X261900Y788575D02*
X264900Y788575D01*
D11*
X253400Y810425D03*
X248400Y810425D03*
D10*
X169900Y788925D02*
X166900Y788925D01*
X169900Y788925D02*
X169900Y781925D01*
X166900Y781925D01*
X166900Y788925D01*
X166900Y782875D02*
X169900Y782875D01*
X169900Y783825D02*
X166900Y783825D01*
X166900Y784775D02*
X169900Y784775D01*
X169900Y785725D02*
X166900Y785725D01*
X166900Y786675D02*
X169900Y786675D01*
X169900Y787625D02*
X166900Y787625D01*
X166900Y788575D02*
X169900Y788575D01*
D11*
X243400Y810425D03*
X238400Y810425D03*
X233400Y810425D03*
X228400Y810425D03*
X223400Y810425D03*
X218400Y810425D03*
X213400Y810425D03*
X208400Y810425D03*
X203400Y810425D03*
X198400Y810425D03*
X193400Y810425D03*
X188400Y810425D03*
X183400Y810425D03*
X178400Y810425D03*
D10*
X424460Y788925D02*
X427460Y788925D01*
X427460Y781925D01*
X424460Y781925D01*
X424460Y788925D01*
X424460Y782875D02*
X427460Y782875D01*
X427460Y783825D02*
X424460Y783825D01*
X424460Y784775D02*
X427460Y784775D01*
X427460Y785725D02*
X424460Y785725D01*
X424460Y786675D02*
X427460Y786675D01*
X427460Y787625D02*
X424460Y787625D01*
X424460Y788575D02*
X427460Y788575D01*
D11*
X415960Y810425D03*
X410960Y810425D03*
D10*
X332460Y788925D02*
X329460Y788925D01*
X332460Y788925D02*
X332460Y781925D01*
X329460Y781925D01*
X329460Y788925D01*
X329460Y782875D02*
X332460Y782875D01*
X332460Y783825D02*
X329460Y783825D01*
X329460Y784775D02*
X332460Y784775D01*
X332460Y785725D02*
X329460Y785725D01*
X329460Y786675D02*
X332460Y786675D01*
X332460Y787625D02*
X329460Y787625D01*
X329460Y788575D02*
X332460Y788575D01*
D11*
X405960Y810425D03*
X400960Y810425D03*
X395960Y810425D03*
X390960Y810425D03*
X385960Y810425D03*
X380960Y810425D03*
X375960Y810425D03*
X370960Y810425D03*
X365960Y810425D03*
X360960Y810425D03*
X355960Y810425D03*
X350960Y810425D03*
X345960Y810425D03*
X340960Y810425D03*
D10*
X587020Y788925D02*
X590020Y788925D01*
X590020Y781925D01*
X587020Y781925D01*
X587020Y788925D01*
X587020Y782875D02*
X590020Y782875D01*
X590020Y783825D02*
X587020Y783825D01*
X587020Y784775D02*
X590020Y784775D01*
X590020Y785725D02*
X587020Y785725D01*
X587020Y786675D02*
X590020Y786675D01*
X590020Y787625D02*
X587020Y787625D01*
X587020Y788575D02*
X590020Y788575D01*
D11*
X578520Y810425D03*
X573520Y810425D03*
D10*
X495020Y788925D02*
X492020Y788925D01*
X495020Y788925D02*
X495020Y781925D01*
X492020Y781925D01*
X492020Y788925D01*
X492020Y782875D02*
X495020Y782875D01*
X495020Y783825D02*
X492020Y783825D01*
X492020Y784775D02*
X495020Y784775D01*
X495020Y785725D02*
X492020Y785725D01*
X492020Y786675D02*
X495020Y786675D01*
X495020Y787625D02*
X492020Y787625D01*
X492020Y788575D02*
X495020Y788575D01*
D11*
X568520Y810425D03*
X563520Y810425D03*
X558520Y810425D03*
X553520Y810425D03*
X548520Y810425D03*
X543520Y810425D03*
X538520Y810425D03*
X533520Y810425D03*
X528520Y810425D03*
X523520Y810425D03*
X518520Y810425D03*
X513520Y810425D03*
X508520Y810425D03*
X503520Y810425D03*
D10*
X749580Y788925D02*
X752580Y788925D01*
X752580Y781925D01*
X749580Y781925D01*
X749580Y788925D01*
X749580Y782875D02*
X752580Y782875D01*
X752580Y783825D02*
X749580Y783825D01*
X749580Y784775D02*
X752580Y784775D01*
X752580Y785725D02*
X749580Y785725D01*
X749580Y786675D02*
X752580Y786675D01*
X752580Y787625D02*
X749580Y787625D01*
X749580Y788575D02*
X752580Y788575D01*
D11*
X741080Y810425D03*
X736080Y810425D03*
D10*
X657580Y788925D02*
X654580Y788925D01*
X657580Y788925D02*
X657580Y781925D01*
X654580Y781925D01*
X654580Y788925D01*
X654580Y782875D02*
X657580Y782875D01*
X657580Y783825D02*
X654580Y783825D01*
X654580Y784775D02*
X657580Y784775D01*
X657580Y785725D02*
X654580Y785725D01*
X654580Y786675D02*
X657580Y786675D01*
X657580Y787625D02*
X654580Y787625D01*
X654580Y788575D02*
X657580Y788575D01*
D11*
X731080Y810425D03*
X726080Y810425D03*
X721080Y810425D03*
X716080Y810425D03*
X711080Y810425D03*
X706080Y810425D03*
X701080Y810425D03*
X696080Y810425D03*
X691080Y810425D03*
X686080Y810425D03*
X681080Y810425D03*
X676080Y810425D03*
X671080Y810425D03*
X666080Y810425D03*
D10*
X912140Y788925D02*
X915140Y788925D01*
X915140Y781925D01*
X912140Y781925D01*
X912140Y788925D01*
X912140Y782875D02*
X915140Y782875D01*
X915140Y783825D02*
X912140Y783825D01*
X912140Y784775D02*
X915140Y784775D01*
X915140Y785725D02*
X912140Y785725D01*
X912140Y786675D02*
X915140Y786675D01*
X915140Y787625D02*
X912140Y787625D01*
X912140Y788575D02*
X915140Y788575D01*
D11*
X903640Y810425D03*
X898640Y810425D03*
D10*
X820140Y788925D02*
X817140Y788925D01*
X820140Y788925D02*
X820140Y781925D01*
X817140Y781925D01*
X817140Y788925D01*
X817140Y782875D02*
X820140Y782875D01*
X820140Y783825D02*
X817140Y783825D01*
X817140Y784775D02*
X820140Y784775D01*
X820140Y785725D02*
X817140Y785725D01*
X817140Y786675D02*
X820140Y786675D01*
X820140Y787625D02*
X817140Y787625D01*
X817140Y788575D02*
X820140Y788575D01*
D11*
X893640Y810425D03*
X888640Y810425D03*
X883640Y810425D03*
X878640Y810425D03*
X873640Y810425D03*
X868640Y810425D03*
X863640Y810425D03*
X858640Y810425D03*
X853640Y810425D03*
X848640Y810425D03*
X843640Y810425D03*
X838640Y810425D03*
X833640Y810425D03*
X828640Y810425D03*
D10*
X1074700Y788925D02*
X1077700Y788925D01*
X1077700Y781925D01*
X1074700Y781925D01*
X1074700Y788925D01*
X1074700Y782875D02*
X1077700Y782875D01*
X1077700Y783825D02*
X1074700Y783825D01*
X1074700Y784775D02*
X1077700Y784775D01*
X1077700Y785725D02*
X1074700Y785725D01*
X1074700Y786675D02*
X1077700Y786675D01*
X1077700Y787625D02*
X1074700Y787625D01*
X1074700Y788575D02*
X1077700Y788575D01*
D11*
X1066200Y810425D03*
X1061200Y810425D03*
D10*
X982700Y788925D02*
X979700Y788925D01*
X982700Y788925D02*
X982700Y781925D01*
X979700Y781925D01*
X979700Y788925D01*
X979700Y782875D02*
X982700Y782875D01*
X982700Y783825D02*
X979700Y783825D01*
X979700Y784775D02*
X982700Y784775D01*
X982700Y785725D02*
X979700Y785725D01*
X979700Y786675D02*
X982700Y786675D01*
X982700Y787625D02*
X979700Y787625D01*
X979700Y788575D02*
X982700Y788575D01*
D11*
X1056200Y810425D03*
X1051200Y810425D03*
X1046200Y810425D03*
X1041200Y810425D03*
X1036200Y810425D03*
X1031200Y810425D03*
X1026200Y810425D03*
X1021200Y810425D03*
X1016200Y810425D03*
X1011200Y810425D03*
X1006200Y810425D03*
X1001200Y810425D03*
X996200Y810425D03*
X991200Y810425D03*
D10*
X1237260Y788925D02*
X1240260Y788925D01*
X1240260Y781925D01*
X1237260Y781925D01*
X1237260Y788925D01*
X1237260Y782875D02*
X1240260Y782875D01*
X1240260Y783825D02*
X1237260Y783825D01*
X1237260Y784775D02*
X1240260Y784775D01*
X1240260Y785725D02*
X1237260Y785725D01*
X1237260Y786675D02*
X1240260Y786675D01*
X1240260Y787625D02*
X1237260Y787625D01*
X1237260Y788575D02*
X1240260Y788575D01*
D11*
X1228760Y810425D03*
X1223760Y810425D03*
D10*
X1145260Y788925D02*
X1142260Y788925D01*
X1145260Y788925D02*
X1145260Y781925D01*
X1142260Y781925D01*
X1142260Y788925D01*
X1142260Y782875D02*
X1145260Y782875D01*
X1145260Y783825D02*
X1142260Y783825D01*
X1142260Y784775D02*
X1145260Y784775D01*
X1145260Y785725D02*
X1142260Y785725D01*
X1142260Y786675D02*
X1145260Y786675D01*
X1145260Y787625D02*
X1142260Y787625D01*
X1142260Y788575D02*
X1145260Y788575D01*
D11*
X1218760Y810425D03*
X1213760Y810425D03*
X1208760Y810425D03*
X1203760Y810425D03*
X1198760Y810425D03*
X1193760Y810425D03*
X1188760Y810425D03*
X1183760Y810425D03*
X1178760Y810425D03*
X1173760Y810425D03*
X1168760Y810425D03*
X1163760Y810425D03*
X1158760Y810425D03*
X1153760Y810425D03*
D10*
X1399820Y788925D02*
X1402820Y788925D01*
X1402820Y781925D01*
X1399820Y781925D01*
X1399820Y788925D01*
X1399820Y782875D02*
X1402820Y782875D01*
X1402820Y783825D02*
X1399820Y783825D01*
X1399820Y784775D02*
X1402820Y784775D01*
X1402820Y785725D02*
X1399820Y785725D01*
X1399820Y786675D02*
X1402820Y786675D01*
X1402820Y787625D02*
X1399820Y787625D01*
X1399820Y788575D02*
X1402820Y788575D01*
D11*
X1391320Y810425D03*
X1386320Y810425D03*
D10*
X1307820Y788925D02*
X1304820Y788925D01*
X1307820Y788925D02*
X1307820Y781925D01*
X1304820Y781925D01*
X1304820Y788925D01*
X1304820Y782875D02*
X1307820Y782875D01*
X1307820Y783825D02*
X1304820Y783825D01*
X1304820Y784775D02*
X1307820Y784775D01*
X1307820Y785725D02*
X1304820Y785725D01*
X1304820Y786675D02*
X1307820Y786675D01*
X1307820Y787625D02*
X1304820Y787625D01*
X1304820Y788575D02*
X1307820Y788575D01*
D11*
X1381320Y810425D03*
X1376320Y810425D03*
X1371320Y810425D03*
X1366320Y810425D03*
X1361320Y810425D03*
X1356320Y810425D03*
X1351320Y810425D03*
X1346320Y810425D03*
X1341320Y810425D03*
X1336320Y810425D03*
X1331320Y810425D03*
X1326320Y810425D03*
X1321320Y810425D03*
X1316320Y810425D03*
D10*
X1562380Y788925D02*
X1565380Y788925D01*
X1565380Y781925D01*
X1562380Y781925D01*
X1562380Y788925D01*
X1562380Y782875D02*
X1565380Y782875D01*
X1565380Y783825D02*
X1562380Y783825D01*
X1562380Y784775D02*
X1565380Y784775D01*
X1565380Y785725D02*
X1562380Y785725D01*
X1562380Y786675D02*
X1565380Y786675D01*
X1565380Y787625D02*
X1562380Y787625D01*
X1562380Y788575D02*
X1565380Y788575D01*
D11*
X1553880Y810425D03*
X1548880Y810425D03*
D10*
X1470380Y788925D02*
X1467380Y788925D01*
X1470380Y788925D02*
X1470380Y781925D01*
X1467380Y781925D01*
X1467380Y788925D01*
X1467380Y782875D02*
X1470380Y782875D01*
X1470380Y783825D02*
X1467380Y783825D01*
X1467380Y784775D02*
X1470380Y784775D01*
X1470380Y785725D02*
X1467380Y785725D01*
X1467380Y786675D02*
X1470380Y786675D01*
X1470380Y787625D02*
X1467380Y787625D01*
X1467380Y788575D02*
X1470380Y788575D01*
D11*
X1543880Y810425D03*
X1538880Y810425D03*
X1533880Y810425D03*
X1528880Y810425D03*
X1523880Y810425D03*
X1518880Y810425D03*
X1513880Y810425D03*
X1508880Y810425D03*
X1503880Y810425D03*
X1498880Y810425D03*
X1493880Y810425D03*
X1488880Y810425D03*
X1483880Y810425D03*
X1478880Y810425D03*
D10*
X102340Y1200405D02*
X99340Y1200405D01*
X102340Y1200405D02*
X102340Y1193405D01*
X99340Y1193405D01*
X99340Y1200405D01*
X99340Y1194355D02*
X102340Y1194355D01*
X102340Y1195305D02*
X99340Y1195305D01*
X99340Y1196255D02*
X102340Y1196255D01*
X102340Y1197205D02*
X99340Y1197205D01*
X99340Y1198155D02*
X102340Y1198155D01*
X102340Y1199105D02*
X99340Y1199105D01*
X99340Y1200055D02*
X102340Y1200055D01*
D11*
X90840Y1221905D03*
X85840Y1221905D03*
D10*
X7340Y1200405D02*
X4340Y1200405D01*
X7340Y1200405D02*
X7340Y1193405D01*
X4340Y1193405D01*
X4340Y1200405D01*
X4340Y1194355D02*
X7340Y1194355D01*
X7340Y1195305D02*
X4340Y1195305D01*
X4340Y1196255D02*
X7340Y1196255D01*
X7340Y1197205D02*
X4340Y1197205D01*
X4340Y1198155D02*
X7340Y1198155D01*
X7340Y1199105D02*
X4340Y1199105D01*
X4340Y1200055D02*
X7340Y1200055D01*
D11*
X80840Y1221905D03*
X75840Y1221905D03*
X70840Y1221905D03*
X65840Y1221905D03*
X60840Y1221905D03*
X55840Y1221905D03*
X50840Y1221905D03*
X45840Y1221905D03*
X40840Y1221905D03*
X35840Y1221905D03*
X30840Y1221905D03*
X25840Y1221905D03*
X20840Y1221905D03*
X15840Y1221905D03*
D10*
X261900Y1200405D02*
X264900Y1200405D01*
X264900Y1193405D01*
X261900Y1193405D01*
X261900Y1200405D01*
X261900Y1194355D02*
X264900Y1194355D01*
X264900Y1195305D02*
X261900Y1195305D01*
X261900Y1196255D02*
X264900Y1196255D01*
X264900Y1197205D02*
X261900Y1197205D01*
X261900Y1198155D02*
X264900Y1198155D01*
X264900Y1199105D02*
X261900Y1199105D01*
X261900Y1200055D02*
X264900Y1200055D01*
D11*
X253400Y1221905D03*
X248400Y1221905D03*
D10*
X169900Y1200405D02*
X166900Y1200405D01*
X169900Y1200405D02*
X169900Y1193405D01*
X166900Y1193405D01*
X166900Y1200405D01*
X166900Y1194355D02*
X169900Y1194355D01*
X169900Y1195305D02*
X166900Y1195305D01*
X166900Y1196255D02*
X169900Y1196255D01*
X169900Y1197205D02*
X166900Y1197205D01*
X166900Y1198155D02*
X169900Y1198155D01*
X169900Y1199105D02*
X166900Y1199105D01*
X166900Y1200055D02*
X169900Y1200055D01*
D11*
X243400Y1221905D03*
X238400Y1221905D03*
X233400Y1221905D03*
X228400Y1221905D03*
X223400Y1221905D03*
X218400Y1221905D03*
X213400Y1221905D03*
X208400Y1221905D03*
X203400Y1221905D03*
X198400Y1221905D03*
X193400Y1221905D03*
X188400Y1221905D03*
X183400Y1221905D03*
X178400Y1221905D03*
D10*
X424460Y1200405D02*
X427460Y1200405D01*
X427460Y1193405D01*
X424460Y1193405D01*
X424460Y1200405D01*
X424460Y1194355D02*
X427460Y1194355D01*
X427460Y1195305D02*
X424460Y1195305D01*
X424460Y1196255D02*
X427460Y1196255D01*
X427460Y1197205D02*
X424460Y1197205D01*
X424460Y1198155D02*
X427460Y1198155D01*
X427460Y1199105D02*
X424460Y1199105D01*
X424460Y1200055D02*
X427460Y1200055D01*
D11*
X415960Y1221905D03*
X410960Y1221905D03*
D10*
X332460Y1200405D02*
X329460Y1200405D01*
X332460Y1200405D02*
X332460Y1193405D01*
X329460Y1193405D01*
X329460Y1200405D01*
X329460Y1194355D02*
X332460Y1194355D01*
X332460Y1195305D02*
X329460Y1195305D01*
X329460Y1196255D02*
X332460Y1196255D01*
X332460Y1197205D02*
X329460Y1197205D01*
X329460Y1198155D02*
X332460Y1198155D01*
X332460Y1199105D02*
X329460Y1199105D01*
X329460Y1200055D02*
X332460Y1200055D01*
D11*
X405960Y1221905D03*
X400960Y1221905D03*
X395960Y1221905D03*
X390960Y1221905D03*
X385960Y1221905D03*
X380960Y1221905D03*
X375960Y1221905D03*
X370960Y1221905D03*
X365960Y1221905D03*
X360960Y1221905D03*
X355960Y1221905D03*
X350960Y1221905D03*
X345960Y1221905D03*
X340960Y1221905D03*
D10*
X587020Y1200405D02*
X590020Y1200405D01*
X590020Y1193405D01*
X587020Y1193405D01*
X587020Y1200405D01*
X587020Y1194355D02*
X590020Y1194355D01*
X590020Y1195305D02*
X587020Y1195305D01*
X587020Y1196255D02*
X590020Y1196255D01*
X590020Y1197205D02*
X587020Y1197205D01*
X587020Y1198155D02*
X590020Y1198155D01*
X590020Y1199105D02*
X587020Y1199105D01*
X587020Y1200055D02*
X590020Y1200055D01*
D11*
X578520Y1221905D03*
X573520Y1221905D03*
D10*
X495020Y1200405D02*
X492020Y1200405D01*
X495020Y1200405D02*
X495020Y1193405D01*
X492020Y1193405D01*
X492020Y1200405D01*
X492020Y1194355D02*
X495020Y1194355D01*
X495020Y1195305D02*
X492020Y1195305D01*
X492020Y1196255D02*
X495020Y1196255D01*
X495020Y1197205D02*
X492020Y1197205D01*
X492020Y1198155D02*
X495020Y1198155D01*
X495020Y1199105D02*
X492020Y1199105D01*
X492020Y1200055D02*
X495020Y1200055D01*
D11*
X568520Y1221905D03*
X563520Y1221905D03*
X558520Y1221905D03*
X553520Y1221905D03*
X548520Y1221905D03*
X543520Y1221905D03*
X538520Y1221905D03*
X533520Y1221905D03*
X528520Y1221905D03*
X523520Y1221905D03*
X518520Y1221905D03*
X513520Y1221905D03*
X508520Y1221905D03*
X503520Y1221905D03*
D10*
X749580Y1200405D02*
X752580Y1200405D01*
X752580Y1193405D01*
X749580Y1193405D01*
X749580Y1200405D01*
X749580Y1194355D02*
X752580Y1194355D01*
X752580Y1195305D02*
X749580Y1195305D01*
X749580Y1196255D02*
X752580Y1196255D01*
X752580Y1197205D02*
X749580Y1197205D01*
X749580Y1198155D02*
X752580Y1198155D01*
X752580Y1199105D02*
X749580Y1199105D01*
X749580Y1200055D02*
X752580Y1200055D01*
D11*
X741080Y1221905D03*
X736080Y1221905D03*
D10*
X657580Y1200405D02*
X654580Y1200405D01*
X657580Y1200405D02*
X657580Y1193405D01*
X654580Y1193405D01*
X654580Y1200405D01*
X654580Y1194355D02*
X657580Y1194355D01*
X657580Y1195305D02*
X654580Y1195305D01*
X654580Y1196255D02*
X657580Y1196255D01*
X657580Y1197205D02*
X654580Y1197205D01*
X654580Y1198155D02*
X657580Y1198155D01*
X657580Y1199105D02*
X654580Y1199105D01*
X654580Y1200055D02*
X657580Y1200055D01*
D11*
X731080Y1221905D03*
X726080Y1221905D03*
X721080Y1221905D03*
X716080Y1221905D03*
X711080Y1221905D03*
X706080Y1221905D03*
X701080Y1221905D03*
X696080Y1221905D03*
X691080Y1221905D03*
X686080Y1221905D03*
X681080Y1221905D03*
X676080Y1221905D03*
X671080Y1221905D03*
X666080Y1221905D03*
D10*
X912140Y1200405D02*
X915140Y1200405D01*
X915140Y1193405D01*
X912140Y1193405D01*
X912140Y1200405D01*
X912140Y1194355D02*
X915140Y1194355D01*
X915140Y1195305D02*
X912140Y1195305D01*
X912140Y1196255D02*
X915140Y1196255D01*
X915140Y1197205D02*
X912140Y1197205D01*
X912140Y1198155D02*
X915140Y1198155D01*
X915140Y1199105D02*
X912140Y1199105D01*
X912140Y1200055D02*
X915140Y1200055D01*
D11*
X903640Y1221905D03*
X898640Y1221905D03*
D10*
X820140Y1200405D02*
X817140Y1200405D01*
X820140Y1200405D02*
X820140Y1193405D01*
X817140Y1193405D01*
X817140Y1200405D01*
X817140Y1194355D02*
X820140Y1194355D01*
X820140Y1195305D02*
X817140Y1195305D01*
X817140Y1196255D02*
X820140Y1196255D01*
X820140Y1197205D02*
X817140Y1197205D01*
X817140Y1198155D02*
X820140Y1198155D01*
X820140Y1199105D02*
X817140Y1199105D01*
X817140Y1200055D02*
X820140Y1200055D01*
D11*
X893640Y1221905D03*
X888640Y1221905D03*
X883640Y1221905D03*
X878640Y1221905D03*
X873640Y1221905D03*
X868640Y1221905D03*
X863640Y1221905D03*
X858640Y1221905D03*
X853640Y1221905D03*
X848640Y1221905D03*
X843640Y1221905D03*
X838640Y1221905D03*
X833640Y1221905D03*
X828640Y1221905D03*
D10*
X1074700Y1200405D02*
X1077700Y1200405D01*
X1077700Y1193405D01*
X1074700Y1193405D01*
X1074700Y1200405D01*
X1074700Y1194355D02*
X1077700Y1194355D01*
X1077700Y1195305D02*
X1074700Y1195305D01*
X1074700Y1196255D02*
X1077700Y1196255D01*
X1077700Y1197205D02*
X1074700Y1197205D01*
X1074700Y1198155D02*
X1077700Y1198155D01*
X1077700Y1199105D02*
X1074700Y1199105D01*
X1074700Y1200055D02*
X1077700Y1200055D01*
D11*
X1066200Y1221905D03*
X1061200Y1221905D03*
D10*
X982700Y1200405D02*
X979700Y1200405D01*
X982700Y1200405D02*
X982700Y1193405D01*
X979700Y1193405D01*
X979700Y1200405D01*
X979700Y1194355D02*
X982700Y1194355D01*
X982700Y1195305D02*
X979700Y1195305D01*
X979700Y1196255D02*
X982700Y1196255D01*
X982700Y1197205D02*
X979700Y1197205D01*
X979700Y1198155D02*
X982700Y1198155D01*
X982700Y1199105D02*
X979700Y1199105D01*
X979700Y1200055D02*
X982700Y1200055D01*
D11*
X1056200Y1221905D03*
X1051200Y1221905D03*
X1046200Y1221905D03*
X1041200Y1221905D03*
X1036200Y1221905D03*
X1031200Y1221905D03*
X1026200Y1221905D03*
X1021200Y1221905D03*
X1016200Y1221905D03*
X1011200Y1221905D03*
X1006200Y1221905D03*
X1001200Y1221905D03*
X996200Y1221905D03*
X991200Y1221905D03*
D10*
X1237260Y1200405D02*
X1240260Y1200405D01*
X1240260Y1193405D01*
X1237260Y1193405D01*
X1237260Y1200405D01*
X1237260Y1194355D02*
X1240260Y1194355D01*
X1240260Y1195305D02*
X1237260Y1195305D01*
X1237260Y1196255D02*
X1240260Y1196255D01*
X1240260Y1197205D02*
X1237260Y1197205D01*
X1237260Y1198155D02*
X1240260Y1198155D01*
X1240260Y1199105D02*
X1237260Y1199105D01*
X1237260Y1200055D02*
X1240260Y1200055D01*
D11*
X1228760Y1221905D03*
X1223760Y1221905D03*
D10*
X1145260Y1200405D02*
X1142260Y1200405D01*
X1145260Y1200405D02*
X1145260Y1193405D01*
X1142260Y1193405D01*
X1142260Y1200405D01*
X1142260Y1194355D02*
X1145260Y1194355D01*
X1145260Y1195305D02*
X1142260Y1195305D01*
X1142260Y1196255D02*
X1145260Y1196255D01*
X1145260Y1197205D02*
X1142260Y1197205D01*
X1142260Y1198155D02*
X1145260Y1198155D01*
X1145260Y1199105D02*
X1142260Y1199105D01*
X1142260Y1200055D02*
X1145260Y1200055D01*
D11*
X1218760Y1221905D03*
X1213760Y1221905D03*
X1208760Y1221905D03*
X1203760Y1221905D03*
X1198760Y1221905D03*
X1193760Y1221905D03*
X1188760Y1221905D03*
X1183760Y1221905D03*
X1178760Y1221905D03*
X1173760Y1221905D03*
X1168760Y1221905D03*
X1163760Y1221905D03*
X1158760Y1221905D03*
X1153760Y1221905D03*
D10*
X1399820Y1200405D02*
X1402820Y1200405D01*
X1402820Y1193405D01*
X1399820Y1193405D01*
X1399820Y1200405D01*
X1399820Y1194355D02*
X1402820Y1194355D01*
X1402820Y1195305D02*
X1399820Y1195305D01*
X1399820Y1196255D02*
X1402820Y1196255D01*
X1402820Y1197205D02*
X1399820Y1197205D01*
X1399820Y1198155D02*
X1402820Y1198155D01*
X1402820Y1199105D02*
X1399820Y1199105D01*
X1399820Y1200055D02*
X1402820Y1200055D01*
D11*
X1391320Y1221905D03*
X1386320Y1221905D03*
D10*
X1307820Y1200405D02*
X1304820Y1200405D01*
X1307820Y1200405D02*
X1307820Y1193405D01*
X1304820Y1193405D01*
X1304820Y1200405D01*
X1304820Y1194355D02*
X1307820Y1194355D01*
X1307820Y1195305D02*
X1304820Y1195305D01*
X1304820Y1196255D02*
X1307820Y1196255D01*
X1307820Y1197205D02*
X1304820Y1197205D01*
X1304820Y1198155D02*
X1307820Y1198155D01*
X1307820Y1199105D02*
X1304820Y1199105D01*
X1304820Y1200055D02*
X1307820Y1200055D01*
D11*
X1381320Y1221905D03*
X1376320Y1221905D03*
X1371320Y1221905D03*
X1366320Y1221905D03*
X1361320Y1221905D03*
X1356320Y1221905D03*
X1351320Y1221905D03*
X1346320Y1221905D03*
X1341320Y1221905D03*
X1336320Y1221905D03*
X1331320Y1221905D03*
X1326320Y1221905D03*
X1321320Y1221905D03*
X1316320Y1221905D03*
D10*
X1562380Y1200405D02*
X1565380Y1200405D01*
X1565380Y1193405D01*
X1562380Y1193405D01*
X1562380Y1200405D01*
X1562380Y1194355D02*
X1565380Y1194355D01*
X1565380Y1195305D02*
X1562380Y1195305D01*
X1562380Y1196255D02*
X1565380Y1196255D01*
X1565380Y1197205D02*
X1562380Y1197205D01*
X1562380Y1198155D02*
X1565380Y1198155D01*
X1565380Y1199105D02*
X1562380Y1199105D01*
X1562380Y1200055D02*
X1565380Y1200055D01*
D11*
X1553880Y1221905D03*
X1548880Y1221905D03*
D10*
X1470380Y1200405D02*
X1467380Y1200405D01*
X1470380Y1200405D02*
X1470380Y1193405D01*
X1467380Y1193405D01*
X1467380Y1200405D01*
X1467380Y1194355D02*
X1470380Y1194355D01*
X1470380Y1195305D02*
X1467380Y1195305D01*
X1467380Y1196255D02*
X1470380Y1196255D01*
X1470380Y1197205D02*
X1467380Y1197205D01*
X1467380Y1198155D02*
X1470380Y1198155D01*
X1470380Y1199105D02*
X1467380Y1199105D01*
X1467380Y1200055D02*
X1470380Y1200055D01*
D11*
X1543880Y1221905D03*
X1538880Y1221905D03*
X1533880Y1221905D03*
X1528880Y1221905D03*
X1523880Y1221905D03*
X1518880Y1221905D03*
X1513880Y1221905D03*
X1508880Y1221905D03*
X1503880Y1221905D03*
X1498880Y1221905D03*
X1493880Y1221905D03*
X1488880Y1221905D03*
X1483880Y1221905D03*
X1478880Y1221905D03*
M02*
